<svg viewBox="0 0 64 64" xmlns="http://www.w3.org/2000/svg"><path d="m52.1 10c-5.4-5-12.5-8-20.4-8s-15 3-20.4 8zm-40.8 44c5.4 5 12.5 8 20.4 8s15-3 20.4-8zm-9.6-22c0 4.3.9 8.3 2.5 12h55c1.6-3.7 2.5-7.7 2.5-12s-.9-8.3-2.5-12h-55c-1.6 3.7-2.5 7.7-2.5 12" fill="#f9f9f9"/><path d="m11.4 54h40.7c3-2.8 5.5-6.2 7.1-10h-55c1.7 3.8 4.2 7.2 7.2 10m40.7-44h-40.7c-3 2.8-5.5 6.2-7.1 10h55c-1.7-3.8-4.2-7.2-7.2-10m-11.4 17h-6l-3-5-3 5h-6l3 5-3 5h6l3 5 3-5h6l-3-5zm-9-2.1 1.3 2.1h-2.5zm-6.3 3.6h2.5l-1.2 2.1zm0 7 1.2-2.1 1.2 2.1zm6.3 3.6-1.2-2.1h2.5zm2.2-3.6h-4.2l-2.2-3.5 2.1-3.5h4.2l2.2 3.5zm4.2 0h-2.5l1.2-2.1zm-1.2-5-1.2-2.1h2.5z" fill="#428bc1"/></svg>