<svg viewBox="0 0 64 64" xmlns="http://www.w3.org/2000/svg"><path d="m8 22h52.3c-4.1-11.6-15.2-20-28.3-20-9.8 0-18.5 4.7-24 12z" fill="#3e4347"/><path d="m60.3 22h-52.3v20h52.3c1.1-3.1 1.7-6.5 1.7-10s-.6-6.9-1.7-10" fill="#f9f9f9"/><path d="m8 42v8c5.5 7.3 14.2 12 24 12 13.1 0 24.2-8.3 28.3-20z" fill="#75a843"/><path d="m8 14c-3.8 5-6 11.2-6 18s2.2 13 6 18l24-18z" fill="#c94747"/><path d="m11 29.7 1-2.7 1 2.7 2.5-1.2-1.2 2.5 2.7 1-2.7 1 1.2 2.5-2.5-1.2-1 2.7-1-2.7-2.5 1.2 1.2-2.5-2.7-1 2.7-1-1.2-2.5z" fill="#fff"/></svg>