<svg viewBox="0 0 64 64" xmlns="http://www.w3.org/2000/svg"><circle cx="32" cy="32" fill="#f5f5f5" r="30"/><path d="m23.4 33.7c2.8 1.9 6.7 1.1 8.6-1.7s5.7-3.6 8.6-1.7c2.7 1.8 3.5 5.3 2 8 3.3-5.6 1.8-12.9-3.8-16.6-5.7-3.8-13.4-2.3-17.2 3.4-.1.2-.2.4-.3.5-1.4 2.9-.5 6.3 2.1 8.1" fill="#ed4c5c"/><path d="m42.3 38.9c.1-.2.2-.4.3-.5-.1.1-.2.3-.3.5" fill="#003478"/><path d="m40.6 30.3c-2.8-1.9-6.7-1.1-8.6 1.7s-5.7 3.6-8.6 1.7c-2.7-1.8-3.5-5.3-2-8-3.4 5.6-1.8 12.9 3.8 16.6 5.7 3.8 13.4 2.3 17.2-3.4.1-.2.2-.4.3-.5 1.4-2.9.5-6.3-2.1-8.1" fill="#428bc1"/><path d="m7.8 23.3 6.9-10.3-.7-.5-.7-.4-6.9 10.3.7.4zm1.9 1.3.7.4 6.8-10.3-.6-.4-.7-.5-6.9 10.3zm8.7-9.1-6.8 10.3.7.5.7.4 6.8-10.3-.7-.4zm30.1 27 .7.5 3.2-4.8-.7-.5-.7-.4-3.2 4.8zm7.7-1.8-3.2 4.8.7.5.7.4 3.2-4.8-.7-.4zm-4.4 4 3.2-4.8-.7-.5-.7-.4-3.2 4.8.7.4zm-3.7-1.5-.7-.4-3.2 4.8.7.4.7.5 3.2-4.8zm2.5 1.7-.6-.4-3.2 4.8.6.4.7.5 3.2-4.8zm1.9 1.3-3.2 4.8.7.5.7.4 3.2-4.8-.7-.5zm-45.4-5-.7.4 6.9 10.3.7-.4.7-.5-6.9-10.3zm6.3 3.7-.7.5 3.2 4.8.7-.5.6-.4-3.2-4.8zm-1.1-7.2-.7.5 6.8 10.3.7-.5.7-.4-6.8-10.3zm-3.3 2.2 3.2 4.8.7-.5.7-.4-3.2-4.8-.7.4zm44.2-22.5.7-.5-3.2-4.8-.7.4-.7.5 3.2 4.8zm-5.1 3.4.7-.5-3.2-4.8-.7.5-.7.4 3.2 4.8zm4.9-2.3 3.2 4.8.7-.5.7-.4-3.2-4.8-.7.4zm1.3 6.1.7-.5-6.9-10.3-.7.5-.6.4 6.8 10.3zm-2.6 1.7.7-.5-3.2-4.8-.7.5-.7.4 3.2 4.8z" fill="#3e4347"/></svg>