<svg viewBox="0 0 64 64" xmlns="http://www.w3.org/2000/svg"><path d="m56 14h-24v6h27.5c-.9-2.1-2.1-4.2-3.5-6" fill="#ed4c5c"/><path d="m61.4 38c.4-1.9.6-3.9.6-6h-60c0 2.1.2 4.1.6 6z" fill="#f9f9f9"/><path d="m32 2v6h18c-5-3.8-11.2-6-18-6" fill="#ed4c5c"/><path d="m32 14h24c-1.7-2.3-3.7-4.3-6-6h-18zm27.5 6h-27.5v6h29.4c-.4-2.1-1.1-4.1-1.9-6" fill="#f9f9f9"/><path d="m32 26v6h30c0-2.1-.2-4.1-.6-6zm-27.5 18h55c.8-1.9 1.5-3.9 1.9-6h-58.8c.4 2.1 1.1 4.1 1.9 6" fill="#ed4c5c"/><path d="m8 50h48c1.4-1.8 2.6-3.9 3.5-6h-55c.9 2.1 2.1 4.2 3.5 6" fill="#f9f9f9"/><path d="m8 50c1.7 2.3 3.7 4.3 6 6h36c2.3-1.7 4.3-3.7 6-6z" fill="#ed4c5c"/><path d="m14 56c5 3.8 11.2 6 18 6s13-2.2 18-6z" fill="#f9f9f9"/><path d="m32 2c-16.6 0-30 13.4-30 30h30z" fill="#2a5f9e"/><path d="m19.9 25.6c-3 0-5.5-2.5-5.5-5.6s2.5-5.6 5.5-5.6c1.2 0 2.2.4 3.1 1-1.3-1.5-3.1-2.4-5.2-2.4-3.8 0-6.8 3.1-6.8 7s3.1 7 6.8 7c2.1 0 3.9-.9 5.2-2.4-.9.6-2 1-3.1 1m6.1-6.8.7-1.8-.2 1.9 1.4-1.3-1 1.7 1.8-.6-1.6 1 1.9.3-1.9.3 1.6 1-1.8-.6 1 1.7-1.4-1.3.2 1.9-.7-1.8-.7 1.8.2-1.9-1.4 1.3 1-1.7-1.8.6 1.6-1-1.9-.3 1.9-.3-1.6-1 1.8.6-1-1.7 1.4 1.3-.2-1.9z" fill="#ffe62e"/></svg>