<svg viewBox="0 0 64 64" xmlns="http://www.w3.org/2000/svg"><path d="m2 32c0 13.1 8.4 24.2 20 28.3v-56.6c-11.6 4.1-20 15.2-20 28.3zm60 0c0-13.1-8.3-24.2-20-28.3v56.6c11.7-4.1 20-15.2 20-28.3" fill="#c94747"/><path d="m22 60.3c3.1 1.1 6.5 1.7 10 1.7s6.9-.6 10-1.7v-56.6c-3.1-1.1-6.5-1.7-10-1.7s-6.9.6-10 1.7z" fill="#2872a0"/><circle cx="13" cy="24" fill="#f9cf02" r="3.5" stroke-width="5"/><circle cx="13" cy="22" fill="#c94747" r="4" stroke-width="5"/><g fill="#f9cf02" transform="scale(5)"><circle cx="2.6" cy="4.6" r=".5"/><path d="m2.3 3.6c0 .2.1.3.3.3s.4-.1.4-.3c0-.1-.1-.1-.1-.2v-.2.3s0 .1-.1.1-.1 0-.1-.1.1-.1.1-.2 0-.1-.1-.2c0-.1-.1-.1-.1-.2-.1 0 0 .2 0 .2s-.1.1-.1.2v.2s0 .1-.1.1-.1 0-.1-.1v-.1c0-.1-.1-.1 0-.2-.1.1 0 .1 0 .2zm-1.1 2v3.1h.6v-3.1zm2.2 0v3.1h.7v-3.1zm-1.4.5v.3h1.3v-.3zm0 1.8v.3h1.3v-.3zm0-2.3h1.3l-.7.4zm0 2.7h1.3l-.7.4z"/></g><circle cx="13.2" cy="35.8" fill="#f9cf02" r="3.4"/><g fill="#c94747"><path d="m13.2 39.5c-2 0-3.6-1.6-3.6-3.6s1.6-3.6 3.6-3.6 3.6 1.6 3.6 3.6-1.6 3.6-3.6 3.6m0-6.9c-1.8 0-3.3 1.5-3.3 3.3s1.5 3.3 3.3 3.3 3.3-1.5 3.3-3.3-1.5-3.3-3.3-3.3"/><path d="m13.2 39.5c-1.1 0-1.9-.9-1.9-1.9s.9-1.9 1.9-1.9c.8 0 1.5-.7 1.5-1.5s-.7-1.5-1.5-1.5v-.4c1.1 0 1.9.9 1.9 1.9 0 1.1-.9 1.9-1.9 1.9-.8 0-1.5.7-1.5 1.5s.7 1.5 1.5 1.5z"/><circle cx="13.2" cy="34.1" r=".7"/><circle cx="13.2" cy="37.5" r=".6"/></g></svg>