<svg viewBox="0 0 64 64" xmlns="http://www.w3.org/2000/svg"><path d="m32 62c16.6 0 30-13.4 30-30h-60c0 16.6 13.4 30 30 30z" fill="#f9f9f9"/><path d="m32 2c-16.6 0-30 13.4-30 30h60c0-16.6-13.4-30-30-30z" fill="#ed4c5c"/><g fill="#f9f9f9"><path d="m21.2 17.5-1.2-1h1.5l.5-1.5.5 1.5h1.5l-1.2 1 .4 1.5-1.2-.9-1.2.9zm8 0-1.2-1h1.5l.5-1.5.5 1.5h1.5l-1.2 1 .4 1.5-1.2-.9-1.2.9zm-7 5-1.2-1h1.5l.5-1.5.5 1.5h1.5l-1.2 1 .4 1.5-1.2-.9-1.2.9zm6 0-1.2-1h1.5l.5-1.5.5 1.5h1.5l-1.2 1 .4 1.5-1.2-.9-1.2.9zm-3-8-1.2-1h1.5l.5-1.5.5 1.5h1.5l-1.2 1 .4 1.5-1.2-.9-1.2.9z"/><path d="m24.4 28c-4.8 0-8.6-4.1-8.6-9.1s3.9-9.1 8.6-9.1c.4 0 .7 0 1 .1-1.2-.6-2.5-.9-3.9-.9-5.2 0-9.5 4.5-9.5 10s4.3 10 9.5 10c1.6 0 3.2-.4 4.5-1.2-.5.1-1 .2-1.6.2"/></g></svg>