<svg viewBox="0 0 64 64" xmlns="http://www.w3.org/2000/svg"><path d="m33 32-21.7 21.7c5.4 5.1 12.7 8.3 20.7 8.3 16.6 0 30-13.4 30-30z" fill="#ed4c5c"/><path d="m62 32c0-16.6-13.4-30-30-30-8 0-15.3 3.2-20.7 8.3l21.7 21.7z" fill="#428bc1"/><path d="m11.3 10.3c-5.7 5.5-9.3 13.2-9.3 21.7s3.6 16.2 9.3 21.7l21.7-21.7z" fill="#f9f9f9"/><g fill="#ffce31"><path d="m13 13.6-.8 1.4 1.1 1.1-1.5-.2-.8 1.4-.2-1.5-1.5-.2 1.4-.8-.2-1.5 1.1 1.1zm.2 34.4-1.1 1.2.8 1.3-1.4-.6-1.1 1.2.2-1.6-1.5-.6 1.6-.3.2-1.6.8 1.4zm17.3-16-1.5.5v1.5l-1-1.2-1.5.4 1-1.2-1-1.2 1.5.4 1-1.2v1.5zm-6.8-1.5-.6-.5-6.5 1.4h.1l6.1-1.6-.8-.5-5.2 2 4.3-3.6-.1-.9-4.5 4.6h-.1l4.5-5-.1-.7-.7.1-4 5.2v-.1l3.7-5.3-.9.1-2.7 4.9 1-5.6-.6-.6-.6 6.5v.1l.2-6.8-.5-.5-.5.5.2 6.8v-.1l-.5-6.4-.6.6 1 5.6-2.7-4.9-.9-.1 3.7 5.3v.1l-4.1-5.4-.7-.1-.1.7 4.5 5h-.1l-4.5-4.6-.1.9 4.3 3.6-5.2-2-.7.5 6.1 1.6h.1l-6.6-1.3-.6.4.4.6 6.6.9h-.1l-6.3-.6.5.7 5.6-.1-5.2 2.1-.2.9 5.7-2.8h.1l-5.9 3.2-.2.7.7.2 5.7-3.6v.1l-5.2 3.7.8.2 4.2-3.7-2.9 4.9.4.8 2.6-5.8.1-.1-2.5 6.3.3.7.7-.3 2.1-6.5v.1l-1.7 6.2.8-.4.9-5.6.9 5.6.8.4-1.7-6.2v-.1l2.1 6.5.7.3.3-.7-2.5-6.3.1.1 2.6 5.8.4-.8-2.8-4.9 4.2 3.7.8-.2-5.2-3.7v-.1l5.7 3.6.7-.2-.2-.7-5.9-3.2h.1l5.7 2.8-.3-.9-5.3-1.9 5.6.1.5-.7-6.3.6h-.1l6.6-.9.5-.7m-7.2 1.6"/><circle cx="15.7" cy="32" r="4.5"/></g></svg>