<svg viewBox="0 0 64 64" xmlns="http://www.w3.org/2000/svg"><path d="m32 2c-13.1 0-24.2 8.4-28.3 20h56.6c-4.1-11.6-15.2-20-28.3-20z" fill="#ed4c5c"/><path d="m32 62c13.1 0 24.2-8.3 28.3-20h-56.6c4.1 11.7 15.2 20 28.3 20z" fill="#428bc1"/><path d="m3.7 22c-1.1 3.1-1.7 6.5-1.7 10s.6 6.9 1.7 10h56.6c1.1-3.1 1.7-6.5 1.7-10s-.6-6.9-1.7-10z" fill="#f9f9f9"/><path d="m42.9 25.2 2.6-6-2-3.2-3.3 1.2-2.3-2.7-3.1 1.8-2.8-2.3-2.8 2.3-3.1-1.8-2.3 2.7-3.3-1.2-2 3.3 2.6 6c3.3-1.5 7-2.3 10.9-2.3 3.9-.2 7.6.7 10.9 2.2" fill="#fff"/><path d="m34.7 16.5-2.7-2.2-2.7 2.2.5 6.2c.7-.1 1.5-.1 2.2-.1s1.5 0 2.2.1z" fill="#428bc1"/><path d="m32 50c6.2 0 11.3-5.1 11.3-11.3v-13.4h-22.6v13.4c0 6.2 5.1 11.3 11.3 11.3" fill="#ed4c5c"/><path d="m32 49.8c6.1 0 11.1-5 11.1-11.1v-13.2h-22.2v13.2c0 6.1 5 11.1 11.1 11.1" fill="#fff"/><g fill="#ed4c5c"><path d="m25.6 25.9h-4.3v4.7h4.3zm0 9.4h4.3v-4.7h-4.3zm-4.3 3.4c0 .4 0 .8.1 1.3h4.2v-4.7h-4.3zm12.8-3.4h-4.3v4.7h4.3zm0 9.4h4.3v-4.7h-4.3zm4.3 2.5c.9-.7 1.8-1.6 2.4-2.6h-2.4zm-12.8-2.5h4.3v-4.7h-4.3zm-2.4 0c.7 1 1.5 1.8 2.4 2.6v-2.6z"/><path d="m32.7 49.3c.5 0 .9-.1 1.4-.2v-4.5h-4.3v4.5c.5.1.9.2 1.4.2.5.1 1 .1 1.5 0m9.9-9.3c0-.4.1-.8.1-1.3v-3.4h-4.3v4.7zm-8.5-4.7h4.3v-4.7h-4.3zm0-9.4h-4.3v4.7h4.3z"/><path d="m42.6 30.6v-4.7h-4.3v4.7z"/></g><path d="m23.9 17.4-3.3-1.2-1.9 3 .7 1.6 1.8 4.1c1.3-.6 2.7-1.1 4.2-1.4z" fill="#428bc1"/><path d="m23.7 20.4c.1.2.2.5.2.8 0 .9-.7 1.6-1.6 1.6-.8 0-1.4-.6-1.6-1.3.3.5.8.8 1.4.8.9 0 1.6-.7 1.6-1.6z" fill="#fff"/><path d="m22.2 18.1v.1l-.1.6.5.3v.1h-.1l-.5.2-.1.5v.1l-.1-.1-.4-.3-.6.2v-.1l.1-.5-.4-.4v-.1l.6-.2.1-.5v-.1.1l.4.3.6-.1z" fill="#ffe62e"/><path d="m29.3 16.5-3.1-1.7-2.3 2.6 1.5 6c1.4-.4 2.9-.6 4.4-.7z" fill="#2a5f9e"/><path d="m25 21.9c1.5-.4 3-.6 4.6-.8l-.1-1.6c-1.7.1-3.3.4-4.9.8zm-.7-3c1.7-.4 3.4-.7 5.1-.9l-.1-1.5c-1.8.2-3.6.5-5.4.9z" fill="#ed4c5c"/><path d="m32 19.3c-.2 0-.5.7-.9.2 0 0 .3.4.3.6l-.3-.1c0 2.1 1.9 2 1.9 0l-.3.1c0-.1.3-.6.3-.6-.5.5-.7-.1-1-.2m1.2-2.9c-.2 0-.5.7-.9.2 0 0 .3.4.3.6l-.3-.1c0 2.1 1.9 2 1.9 0l-.3.1c0-.1.3-.6.3-.6-.4.5-.7-.2-1-.2m-2.5 0c-.2 0-.5.7-.9.2 0 0 .3.4.3.6l-.3-.1c0 2.1 1.9 2 1.9 0l-.3.1c0-.1.3-.6.3-.6-.4.5-.7-.2-1-.2" fill="#ffe62e"/><path d="m40.1 17.4-2.3-2.7-3.1 1.8-.5 6.2c1.5.1 3 .4 4.4.7z" fill="#2a5f9e"/><path d="m35.3 17.8h.3c.2.1.2 0 .3-.1.2-.1.8-.2 1.4.1.1.1.7.1.7.1s-.5.2-1 0c.2.1.3.3.5.4.1 0 .8.2.8.2s-.6.3-1 0c-.3-.3-.6-.6-1.1-.5l.3.1c-.1.1-.4.2-.5.1 0 .3 1 1.3 2.2 1 .5-.2.2.2.1.4-.1.1-.5 2.3-1.6 1.8 0 0 .6-.2.6-.6l-.2-.2c-.4 0-.7 1.2-1.2.6 0 0 .6-.3.5-.8h-.4c-.3.1-.2 1.2-.8.9 0 0 .7-1 .3-1-.1.2-.3.4-.3.6.2.2-.5.2-.4 0 0-.1.5-.6.4-1.1-.2-.1 0-1 .1-1.2-.6 0-.2-.2-.1-.6.2 0 .1 0 .1-.2" fill="#ffe62e"/><path d="m42.8 24.9 2.5-5.7-1.9-3-3.3 1.2-1.5 6c1.4.4 2.8.9 4.2 1.5" fill="#428bc1"/><path d="m39.6 19.6c1.7.4 3.3 1 4.8 1.7l-1 2.2c-1.4-.6-2.9-1.1-4.4-1.5z" fill="#fff"/><path d="m43.5 23.1.6-1.5c-1.5-.7-3.1-1.2-4.7-1.6l-.4 1.5c1.6.4 3.1.9 4.5 1.6" fill="#ed4c5c"/><path d="m42 17.4.1.6-.4.4.6.2.1.6.5-.4.6.2-.1-.6.4-.4-.6-.2-.1-.6-.4.4z" fill="#ffe62e"/></svg>