<svg viewBox="0 0 64 64" xmlns="http://www.w3.org/2000/svg"><path d="m45.6 33 16.3 1.1c0-.7.1-1.4.1-2.1 0-5.4-1.4-10.4-3.9-14.8l-14.3 8.1-2.6-3.3 11-12.1c-4.2-3.9-9.6-6.6-15.5-7.5l-2.6 16.2h-4.1l-2.7-16.2c-5.9.9-11.3 3.6-15.6 7.5l11 12.1-2.6 3.2-14.2-8c-2.5 4.4-3.9 9.4-3.9 14.8 0 .7 0 1.4.1 2.1l16.3-1.1.9 4-15.1 6.2c2.2 5.5 6 10.2 10.8 13.5l9.3-13.4 3.7 1.7-4.7 15.7c2.8.9 5.7 1.3 8.7 1.3s5.9-.4 8.7-1.3l-4.7-15.7 3.7-1.8 9.3 13.5c4.8-3.3 8.6-8 10.8-13.5l-15.1-6.2z" fill="#ed4c5c"/><g fill="#ffce31"><path d="m34.1 18.6 2.6-16.2c-1.6-.3-3.1-.4-4.7-.4s-3.1.1-4.7.4l2.6 16.2zm9.7 6.6 14.3-8.1c-1.6-2.7-3.5-5.2-5.8-7.3l-11.1 12.2zm1.8 7.8-.9 4 15.2 6.1c1.1-2.8 1.9-5.9 2.1-9.1zm-9.6 12 4.7 15.7c3-.9 5.8-2.3 8.4-4l-9.3-13.4zm-11.7-1.8-9.3 13.5c2.5 1.8 5.4 3.1 8.4 4l4.6-15.7zm-5.9-10.2-16.3 1.1c.2 3.2.9 6.2 2.1 9.1l15.1-6.2zm4.4-11-11-12.1c-2.3 2.1-4.3 4.6-5.8 7.3l14.3 8.1z"/><circle cx="32" cy="32" r="9"/></g></svg>