<svg viewBox="0 0 64 64" xmlns="http://www.w3.org/2000/svg"><g fill="#fff"><path d="m61.7 28c-.1-1-.3-2-.5-3h-58.4c-.2 1-.4 2-.5 3zm-59.4 8c.1 1 .3 2 .5 3h58.3c.2-1 .4-2 .5-3z"/><path d="m20 4.5c-1 .4-2 1-3 1.5v52c1 .6 2 1.1 3 1.5zm8-2.2v59.5l3 .3v-60.1c-1 0-2 .1-3 .3"/></g><g fill="#428bc1"><path d="m2 32c0 1.4.1 2.7.3 4h59.5c.2-1.3.3-2.6.3-4s-.1-2.7-.3-4h-59.5c-.2 1.3-.3 2.6-.3 4"/><path d="m20 59.5c2.5 1.1 5.2 1.9 8 2.2v-59.4c-2.8.4-5.5 1.1-8 2.2z"/></g><path d="m17 25v-19c-7 4.1-12.2 10.9-14.2 19zm0 14v19c-7-4.1-12.2-10.9-14.2-19zm15-37h-1v23h30.2c-3.2-13.2-15-23-29.2-23zm-1 37v23h1c14.2 0 26-9.8 29.2-23z" fill="#ed4c5c"/></svg>