<svg viewBox="0 0 64 64" xmlns="http://www.w3.org/2000/svg"><path d="m32 2c-13.1 0-24.2 8.4-28.3 20h56.6c-4.1-11.6-15.2-20-28.3-20z" fill="#ed4c5c"/><path d="m32 62c13.1 0 24.2-8.3 28.3-20h-56.6c4.1 11.7 15.2 20 28.3 20z" fill="#f9f9f9"/><path d="m3.7 22c-1.1 3.1-1.7 6.5-1.7 10s.6 6.9 1.7 10h56.6c1.1-3.1 1.7-6.5 1.7-10s-.6-6.9-1.7-10z" fill="#2872a0"/><path d="m15.5 21.7v16.2c0 5.6 4.7 10.1 10.5 10.1s10.5-4.5 10.5-10.1v-16.2z" fill="#ed4c5c"/><path d="m29.8 46.3-.2-.9-.8-1.4.3-.2-.2-.9-.7-1.1.2-.1-.2-.9-.5-1 .8-1.5.5 1.6.4-.6.6.9.2-.6.6.3-.1-1.2 1.4.4-1-1.3h.1l-.8-1.6.2-.6.5 1 .2-.4.8 2.2v-.1l.4.8.2-.4.8 1.6.3-.9 1.2.9s-.1-3-.1-3.9c.2-2.6 1.1-7.9.4-10.3-.3-1.2-2.7-4.1-2.7-4.1s-.1 3.5-.7 4.6c-.2.4-2 1.5-2 1.5l-.7-.1.3-.1-1.3-1.3.5-2.6 1.3-1.9-2 .1-1.5.4.4.6-.9 3.2-.9-3.1.4-.6-1.5-.5-2-.1 1.3 1.9.5 2.6-1.3 1.3.3.1-.8.2s-1.8-1.1-2-1.5c-.6-1-.7-4.6-.7-4.6s-2.4 2.9-2.7 4.1c-.7 2.5.3 7.8.4 10.3.1 1-.1 3.9-.1 3.9l1.2-.9.3.9.8-1.6.2.4.4-.8v.1l.8-2.2.2.4.5-1 .2.6-.8 1.6h.1l-1 1.3 1.4-.4v1.2l.6-.3.2.6.6-.9.4.6.5-1.6.8 1.5-.5 1-.2.9.2.1-.7 1.1-.2.9.3.2-.7 1.5-.2.9z" fill="#fff"/><path d="m20 41.7.2-.4.9-.4.6-.2h.4l.1-.1-.6-.3-.1-.1-.5.2-.4.3.8-1 .7-1.6-1.1.7-1 1.8-.4.2h-1l-.5-.1-.6.3.1.1h.4l.4.2.9-.1-1 .3-.2.4v.6h.1l.1-.3h.5l.9-.8-.7 1.1-.1.5.3.7.2-.1v-.5l.4-.4zm11.9 0-.1-.4-.9-.4-.6-.2h-.4l-.1-.1.6-.3.1-.1.5.2.4.3-.8-1-.7-1.6 1.1.7 1 1.8.4.2h1l.5-.1.6.3-.1.1h-.4l-.4.2-.9-.1 1 .3.2.4v.6h-.1l-.1-.3h-.5l-.9-.8.7 1.1.1.5-.3.7-.2-.1v-.5l-.4-.4zm-10.5-19.5c-1 .1-.9.8 0 1.7.2.2.2.2.3 0 .1-.3.4-.5.6-.3.1.2.1.3.5.2.1.1.3.2.4.3-.1 0-.5.1-1.1.2-.5.1-.8-.1-1.2-.5.1.5 1.3.8 1.2.8.1.2.1.3.2.3.4.1.8-.2 1.2-.1.9.2-.6-2.3-.5-2.4.1-.2-1.3-.6-1.6-.2m8.2 2.8c.1 0 .1 0 .2-.3-.1 0 1.1-.3 1.2-.8-.3.4-.7.6-1.2.5-.6-.1-1-.3-1.1-.2.1-.1.2-.2.4-.3.4.1.4 0 .5-.2.2-.2.5-.1.6.3 0 .2.1.2.3 0 .9-.9 1-1.6 0-1.7-.2-.4-1.6 0-1.5.3 0 .1-1.4 2.6-.5 2.4.3-.2.7 0 1.1 0" fill="#ffce31"/><path d="m21.6 28.6v7.3c0 2.2 2 4 4.4 4s4.4-1.8 4.4-4v-7.3z" fill="#ed4c5c"/><g fill="#fff"><path d="m24.8 27.3h2.5v15h-2.5z"/><path d="m19.1 32.3h13.8v2.5h-13.8zm4.9-1.9-1 1 .3-1-.3-.9zm0 6.3-1 1 .3-1-.3-1zm4-6.3 1 1-.2-1 .2-.9zm0 6.3 1 1-.2-1 .2-1z"/></g><path d="m27 11.7h-2v2h2z" fill="#428bc1"/><path d="m25.1 10.4.2.1.2-.1h.3v1.2h-.8v.4h2v-.4h-.8v-1.2h.3l.2.1.2-.1.2-.2-.2-.2-.2-.2-.2.2h-.3v-.4l.2-.2-.2-.2-.2-.2-.2.2-.2.2.2.2v.4h-.3l-.2-.2-.2.2-.2.2zm7.4 4c-1.3-.7-2.1-.9-2.4-.4 0 0 0 .1-.1.1-1.6-.8-2.8-.9-4-.4-1.2-.5-2.3-.4-4 .4 0-.1 0-.1-.1-.1-.3-.5-1.1-.4-2.4.4-1.3.7-2.5 1.7-2.2 2.1.1.7.5 1.3 1.2 2 .8.4 2.4.5 4.1.4 2.2-.1 4.5-.1 6.7 0 1.7.1 3.3 0 4.1-.4.7-.7 1.1-1.3 1.2-2 .4-.3-.9-1.3-2.1-2.1" fill="#ffce31"/><path d="m27.4 17.2c.8-.7 1.3-1.4 1.7-2.1-.7-.2-1.4-.3-2-.2.1.8.2 1.6.3 2.3m-2.8 0c.1-.8.2-1.6.4-2.4-.6-.1-1.3 0-2 .2.2.8.8 1.5 1.6 2.2m8-1.4c-.1-.1-.3-.3-.6-.4s-.6-.2-.8-.2c-.1.8-.4 1.6-1.1 2.4.3 0 .6-.1.8-.2.8-.4 1.3-.9 1.7-1.3.1-.1.1-.2 0-.3m-11.8-.7c-.2 0-.5.1-.8.2-.5.2-.8.6-.6.7.4.4.9.8 1.7 1.3.2.1.5.1.8.2-.7-.8-1-1.5-1.1-2.4" fill="#ed4c5c"/><path d="m18.6 18.5h14.8v2h-14.8z" fill="#ffce31"/><path d="m18.6 18.9-.4.7.5.5.7-.7zm14.8 0-.8.5.7.7.5-.5zm-7.4-.5-.8.7.8.6.8-.6z" fill="#428bc1"/><path d="m22.3 19.8.7-.7-.8-.5-.7.6zm7.4 0 .8-.6-.7-.6-.8.5z" fill="#ed4c5c"/></svg>