<svg viewBox="0 0 64 64" xmlns="http://www.w3.org/2000/svg"><path d="m32 2c-13.1 0-24.2 8.4-28.3 20h56.6c-4.1-11.6-15.2-20-28.3-20z" fill="#c94747"/><path d="m32 62c13.1 0 24.2-8.3 28.3-20h-56.6c4.1 11.7 15.2 20 28.3 20z" fill="#83bf4f"/><path d="m3.7 22c-1.1 3.1-1.7 6.5-1.7 10s.6 6.9 1.7 10h56.6c1.1-3.1 1.7-6.5 1.7-10s-.6-6.9-1.7-10z" fill="#ffce31"/><path d="m31.3 37.7h1.4v2.9h-1.4z" fill="#ed1c24"/><path d="m30.2 38h1.4v2.9h-1.4zm2.2 0h1.4v2.9h-1.4z" fill="#ffe000"/><path d="m30 38h.9v3.7h-.9zm3.1 0h.9v3.7h-.9zm-3.5-14.6s-.3-.1-.6-.1c.2-.3.3-.9.3-.9s-.5.3-.7.6c-.1-.2-.3-.5-.3-.5s-.2.3-.2.5c0 .3.4.7.4.7s.5.1.8.1c.1-.1.3-.4.3-.4" fill="#699635"/><path d="m29.1 24.1s-.3 0-.6.1c.1-.4 0-1 0-1s-.4.5-.5.8l-.4-.4s-.2.3-.1.6c.1.2.5.5.5.5s.5 0 .8-.1.3-.5.3-.5" fill="#83bf4f"/><path d="m28.9 25-.6.2c0-.4-.2-.9-.2-.9s-.3.5-.3.9c-.2-.1-.5-.2-.5-.2s-.1.4.1.6.7.4.7.4.5-.1.7-.3c.1-.3.1-.7.1-.7" fill="#699635"/><path d="m28.8 25.9s-.3.2-.5.4c-.1-.4-.5-.8-.5-.8s-.1.6-.1.9c-.2-.1-.5-.1-.5-.1s0 .4.2.5c.2.2.7.2.7.2s.5-.2.6-.5c.3-.3.1-.6.1-.6" fill="#83bf4f"/><path d="m29 26.8s-.2.2-.4.5c-.2-.3-.7-.7-.7-.7s0 .6.2.9h-.6s.1.3.4.4.8 0 .8 0 .4-.4.4-.6c.1-.2-.1-.5-.1-.5" fill="#699635"/><path d="m29.5 27.5s-.2.3-.2.5c-.3-.3-.8-.5-.8-.5s.2.6.4.9c-.2 0-.5.2-.5.2s.2.3.5.3.7-.2.7-.2.3-.4.3-.7c-.2-.2-.4-.5-.4-.5" fill="#83bf4f"/><path d="m30.1 28.2s-.1.3-.1.6c-.3-.2-.9-.3-.9-.3s.3.5.6.7c-.2.1-.5.3-.5.3s.3.2.5.2c.3 0 .7-.4.7-.4s.1-.5.1-.8c-.1-.1-.4-.3-.4-.3" fill="#699635"/><path d="m30.8 28.7s0 .3.1.6c-.4-.1-1 0-1 0s.4.4.8.5l-.4.4s.3.2.6.1c.2-.1.5-.5.5-.5s0-.5-.1-.7c-.1-.4-.5-.4-.5-.4" fill="#83bf4f"/><path d="m34.4 23.4s.3-.1.6-.1c-.2-.3-.3-.9-.3-.9s.5.3.7.6c.1-.2.3-.5.3-.5s.2.3.2.5c0 .3-.4.7-.4.7s-.5.1-.8.1c-.1-.1-.3-.4-.3-.4" fill="#699635"/><path d="m34.9 24.1s.3 0 .6.1c-.1-.4 0-1 0-1s.4.4.5.8l.4-.4s.2.3.1.6c-.1.2-.5.5-.5.5s-.5 0-.8-.1-.3-.5-.3-.5" fill="#83bf4f"/><path d="m35.1 25 .6.2c0-.4.2-.9.2-.9s.3.5.3.9c.2-.1.5-.2.5-.2s.1.4-.1.6-.7.4-.7.4-.5-.1-.7-.3c-.1-.3-.1-.7-.1-.7" fill="#699635"/><path d="m35.2 25.9s.3.2.5.4c.1-.4.5-.8.5-.8s.1.6.1.9c.2-.1.5-.1.5-.1s0 .4-.2.5c-.2.2-.7.2-.7.2s-.5-.2-.6-.5c-.3-.3-.1-.6-.1-.6" fill="#83bf4f"/><path d="m35 26.8s.2.2.4.5c.2-.3.7-.7.7-.7s0 .6-.2.9h.6s-.1.3-.4.4c-.2.1-.8 0-.8 0s-.4-.4-.4-.6.1-.5.1-.5" fill="#699635"/><path d="m34.5 27.5s.2.3.2.5c.3-.3.8-.5.8-.5s-.2.6-.4.9c.2 0 .5.2.5.2s-.2.3-.5.3-.7-.2-.7-.2-.3-.4-.3-.7.4-.5.4-.5" fill="#83bf4f"/><path d="m33.9 28.2s.1.3.1.6c.3-.2.9-.3.9-.3s-.3.5-.6.7c.2.1.5.3.5.3s-.3.2-.5.2c-.3 0-.7-.4-.7-.4s-.1-.5-.1-.8c.1-.1.4-.3.4-.3" fill="#699635"/><path d="m33.2 28.7s0 .3-.1.6c.4-.1 1 0 1 0s-.4.4-.8.5l.4.4s-.3.2-.6.1c-.2-.1-.5-.5-.5-.5s0-.5.1-.7c.1-.4.5-.4.5-.4" fill="#83bf4f"/><path d="m35.3 25.6c-1 0-2.2 1.2-3.3 1.2s-2.3-1.2-3.3-1.2-5 1.2-5 1.2c5.5 0 8.3 3 8.3 3s2.8-3 8.3-3c0 0-4-1.2-5-1.2" fill="#594640"/><circle cx="32" cy="26.3" fill="#fff" r=".7"/><path d="m27.2 32.2.6.5.3-.6.1-.3v-2l.2.1c-.2-.2-.4-.4-.7-.6l-.4-.3c-.1.1-.1 2.1-.1 3.2" fill="#ffe000"/><path d="m28.2 31.8.6-1.5-.6-.5c-.1 0-.1 1 0 2" fill="#699635"/><path d="m27.2 29.1.4.3c-.7-.6-1.6-1.3-2-1.7-.1-.1-.1 1.4-.1 3.1l1.7 1.4z" fill="#d52b1e"/><path d="m36.8 32.2-.6.5-.3-.6-.1-.3v-2l-.2.1c.2-.2.4-.4.7-.6l.4-.3c.1.1.1 2.1.1 3.2" fill="#ffe000"/><path d="m35.8 31.8-.6-1.5.6-.5c.1 0 .1 1 0 2" fill="#699635"/><path d="m36.8 29.1-.4.3c.7-.6 1.6-1.3 2-1.7.1-.1.1 1.4.1 3.1l-1.7 1.4zm-9 8.9c-1.3-.7-1.6-2.8-1.5-3.1v-3.7l.4.3c-.7-.6-1.6-1.3-2-1.7-.1-.1 0 4.5 0 6.5 0 1 .7 4.3 4.9 2.6 0 0 2.1-.6 2.7-1.4h-.4l-.2.1c-2.5 1.4-3.9.4-3.9.4" fill="#d52b1e"/><path d="m26.2 34.9c0 .3.2 2.4 1.5 3.1 0 0 1.4 1 3.9-.4-.7.3-1.3.3-1.7.2-1.2-.3-2.4-1.4-2.6-2.6-.2-1.1-.1-3.4-.1-3.4l.2.1c-.2-.2-.4-.4-.7-.6l-.4-.3c0 .2 0 3.6-.1 3.9" fill="#ffe000"/><path d="m27.9 33.4v-.9c-.3-.2.1.1-.6-.5l-.2-.2v.2c0 .3 0 2.3.1 3.3.2 1.1 1.4 2.3 2.6 2.6.4.1 1 0 1.8-.2l.1-.1c-2-.3-3.5-1.9-3.8-4.2" fill="#699635"/><path d="m36.2 38.1c1.3-.7 1.6-2.8 1.5-3.1v-3.7l-.4.3c.7-.6 1.6-1.3 2-1.7.1-.1 0 4.5 0 6.5 0 1-.7 4.3-4.9 2.6 0 0-2.1-.6-2.7-1.4h.4l.2.1c2.5 1.4 3.9.4 3.9.4" fill="#d52b1e"/><path d="m37.8 35c0 .3-.2 2.4-1.5 3.1 0 0-1.4 1-3.9-.4.7.3 1.3.3 1.7.2 1.2-.3 2.4-1.4 2.6-2.6.2-1.1.1-3.4.1-3.4l-.2.1c.2-.2.4-.4.7-.6l.4-.3c0 .2 0 3.6.1 3.9" fill="#ffe000"/><path d="m36.1 33.5v-.9c.3-.2-.1.1.6-.5l.2-.2v.1c0 .3 0 2.3-.1 3.3-.2 1.1-1.4 2.3-2.6 2.6-.4.1-1 0-1.8-.2l-.1-.1c2-.2 3.5-1.8 3.8-4.1" fill="#699635"/><ellipse cx="32" cy="33.3" fill="#00a6de" rx="4.2" ry="4.9"/><path d="m35.5 33.4c0 2.3-6.9 2.3-6.9 0s1.5-4.1 3.5-4.1 3.4 1.9 3.4 4.1" fill="#e8a30e"/><ellipse cx="31.9" cy="31.6" fill="#d52b1e" rx="1.7" ry="1.4"/><path d="m31.8 31.3c-1 0-3.3 2.2-3.3 2.2 0 2.1 1.5 3.8 3.5 3.8s3.5-1.7 3.5-3.8c0 0-2.6-2.2-3.7-2.2" fill="#699635"/><path d="m32.3 35h.9v1.4h-.9z" fill="#e8a30e"/><path d="m33.6 33.4h.5v2.8h-.5z" fill="#fff"/></svg>