<?xml version="1.0" encoding="UTF-8" standalone="no"?>
<!-- Created with Inkscape (http://www.inkscape.org/) -->
<svg
   xmlns:dc="http://purl.org/dc/elements/1.1/"
   xmlns:cc="http://web.resource.org/cc/"
   xmlns:rdf="http://www.w3.org/1999/02/22-rdf-syntax-ns#"
   xmlns:svg="http://www.w3.org/2000/svg"
   xmlns="http://www.w3.org/2000/svg"
   xmlns:xlink="http://www.w3.org/1999/xlink"
   xmlns:sodipodi="http://sodipodi.sourceforge.net/DTD/sodipodi-0.dtd"
   xmlns:inkscape="http://www.inkscape.org/namespaces/inkscape"
   width="346.70999"
   height="79.290001"
   id="svg2"
   sodipodi:version="0.32"
   inkscape:version="0.45"
   sodipodi:docbase="F:\License plates"
   sodipodi:docname="German license plate.svg"
   inkscape:output_extension="org.inkscape.output.svg.inkscape"
   version="1.0"
   sodipodi:modified="true">
  <defs
     id="defs4">
    <g
       id="s">
      <g
         id="c">
        <path
           transform="matrix(0.9510565,0.309017,-0.309017,0.9510565,0,-1)"
           d="M 0,0 L 0,1 L 0.5,1 L 0,0 z "
           id="t" />
        <use
           id="use3302"
           transform="scale(-1,1)"
           xlink:href="#t"
           x="0"
           y="0"
           width="744.09448"
           height="1052.3622" />
      </g>
      <g
         id="a">
        <use
           id="use3305"
           transform="matrix(0.309017,0.9510565,-0.9510565,0.309017,0,0)"
           xlink:href="#c"
           x="0"
           y="0"
           width="744.09448"
           height="1052.3622" />
        <use
           id="use3307"
           transform="matrix(-0.809017,0.5877853,-0.5877853,-0.809017,0,0)"
           xlink:href="#c"
           x="0"
           y="0"
           width="744.09448"
           height="1052.3622" />
      </g>
      <use
         id="use3309"
         transform="scale(-1,1)"
         xlink:href="#a"
         x="0"
         y="0"
         width="744.09448"
         height="1052.3622" />
    </g>
  </defs>
  <sodipodi:namedview
     id="base"
     pagecolor="#ffffff"
     bordercolor="#666666"
     borderopacity="1.0"
     inkscape:pageopacity="0.0"
     inkscape:pageshadow="2"
     inkscape:zoom="2.3297616"
     inkscape:cx="201.73317"
     inkscape:cy="55.898923"
     inkscape:document-units="px"
     inkscape:current-layer="g5585"
     inkscape:window-width="1024"
     inkscape:window-height="742"
     inkscape:window-x="-4"
     inkscape:window-y="-4"
     showgrid="true"
     showguides="true"
     inkscape:guide-bbox="true"
     width="346.71px"
     height="79.29px" />
  <metadata
     id="metadata7">
    <rdf:RDF>
      <cc:Work
         rdf:about="">
        <dc:format>image/svg+xml</dc:format>
        <dc:type
           rdf:resource="http://purl.org/dc/dcmitype/StillImage" />
      </cc:Work>
    </rdf:RDF>
  </metadata>
  <g
     inkscape:label="Capa 1"
     inkscape:groupmode="layer"
     id="layer1"
     transform="translate(-5.5279208,-5.095195)">
    <g
       id="g5585"
       transform="translate(-24.331315,-30.8362)">
      <g
         id="g2189">
        <rect
           ry="5.3568945"
           y="40.97987"
           x="35.403397"
           height="69.192917"
           width="335.62152"
           id="rect3216"
           style="fill:#ffffff;fill-opacity:1;stroke:#000000;stroke-width:3.09279561;stroke-miterlimit:4;stroke-dasharray:none;stroke-opacity:1" />
        <path
           sodipodi:nodetypes="ccccccc"
           id="path3214"
           d="M 67.2,41.199484 L 67.2,110.14239 L 40.65864,110.14239 C 37.53362,110.1306 35.946391,108.58103 35.513856,105.87676 L 35.607877,46.502785 C 35.98679,43.346164 37.586525,41.410365 40.65864,40.946946 L 67.2,41.199484 z "
           style="fill:#003399;fill-opacity:1;fill-rule:evenodd;stroke:#003399;stroke-width:1px;stroke-linecap:butt;stroke-linejoin:miter;stroke-opacity:1" />
        <g
           id="g3313"
           transform="matrix(1.6138444,0,0,1.6138444,51.668497,62.888717)"
           style="fill:#ffcc00">
          <use
             id="use3315"
             y="-6"
             xlink:href="#s"
             x="0"
             width="744.09448"
             height="1052.3622" />
          <use
             id="use3317"
             y="6"
             xlink:href="#s"
             x="0"
             width="744.09448"
             height="1052.3622" />
          <g
             id="l">
            <use
               id="use3320"
               x="-6"
               xlink:href="#s"
               y="0"
               width="744.09448"
               height="1052.3622" />
            <use
               id="use3322"
               transform="matrix(-0.809017,-0.5877853,0.5877853,-0.809017,-3,-5.1961524)"
               xlink:href="#s"
               x="0"
               y="0"
               width="744.09448"
               height="1052.3622" />
            <use
               id="use3324"
               transform="matrix(-0.809017,0.5877853,-0.5877853,-0.809017,-5.1961524,-3)"
               xlink:href="#s"
               x="0"
               y="0"
               width="744.09448"
               height="1052.3622" />
            <use
               id="use3326"
               transform="matrix(0.309017,0.9510565,-0.9510565,0.309017,-5.1961524,3)"
               xlink:href="#s"
               x="0"
               y="0"
               width="744.09448"
               height="1052.3622" />
            <use
               id="use3328"
               transform="matrix(0.309017,0.9510565,-0.9510565,0.309017,-3,5.1961524)"
               xlink:href="#s"
               x="0"
               y="0"
               width="744.09448"
               height="1052.3622" />
          </g>
          <use
             id="use3330"
             transform="scale(-1,1)"
             xlink:href="#l"
             x="0"
             y="0"
             width="744.09448"
             height="1052.3622" />
        </g>
        <path
           id="text3367"
           d="M 52.531678,77.846817 L 52.531678,67.785239 L 59.992071,67.785239 L 59.992071,69.487334 L 54.563211,69.487334 L 54.563211,71.717902 L 59.61459,71.717902 L 59.61459,73.413134 L 54.563211,73.413134 L 54.563211,76.151585 L 60.184243,76.151585 L 60.184243,77.846817 L 52.531678,77.846817 z M 61.405908,74.573029 L 63.382534,74.380857 C 63.501495,75.044311 63.742854,75.531604 64.106611,75.842737 C 64.470362,76.153875 64.961086,76.309442 65.578786,76.309441 C 66.233081,76.309442 66.726093,76.171033 67.057824,75.894212 C 67.389543,75.617395 67.555406,75.293677 67.555413,74.923057 C 67.555406,74.685133 67.485629,74.482666 67.346082,74.315656 C 67.206523,74.148653 66.962876,74.00338 66.615142,73.879837 C 66.37721,73.797482 65.835011,73.651065 64.988543,73.440587 C 63.899566,73.170636 63.135454,72.83891 62.696206,72.44541 C 62.078509,71.891778 61.769661,71.216889 61.769662,70.420741 C 61.769661,69.90829 61.914934,69.429004 62.205481,68.982882 C 62.496025,68.536778 62.914685,68.197046 63.461462,67.963684 C 64.008234,67.730343 64.668253,67.613667 65.44152,67.613657 C 66.704359,67.613667 67.654924,67.890486 68.293216,68.444114 C 68.931494,68.997762 69.26665,69.736708 69.298688,70.660956 L 67.267155,70.750179 C 67.180213,70.233152 66.993761,69.861391 66.707797,69.634894 C 66.421821,69.408414 65.992866,69.29517 65.420931,69.295162 C 64.830684,69.29517 64.368556,69.416422 64.034547,69.658916 C 63.819494,69.814492 63.711969,70.022678 63.711972,70.283475 C 63.711969,70.52141 63.812631,70.72502 64.013957,70.894308 C 64.270183,71.109364 64.892453,71.333564 65.880771,71.56691 C 66.869078,71.800267 67.600017,72.041626 68.073591,72.290986 C 68.54715,72.540358 68.917767,72.881234 69.185443,73.313616 C 69.453103,73.746007 69.586937,74.280199 69.586946,74.916194 C 69.586937,75.492712 69.426794,76.032623 69.106515,76.535929 C 68.786221,77.039238 68.333244,77.413287 67.747585,77.658077 C 67.161911,77.902867 66.432116,78.025262 65.558196,78.025262 C 64.286197,78.025262 63.309324,77.731285 62.627573,77.14333 C 61.945819,76.555377 61.538597,75.69861 61.405908,74.573029 L 61.405908,74.573029 z M 73.574515,77.846817 L 73.574515,69.487334 L 70.588985,69.487334 L 70.588985,67.785239 L 78.584714,67.785239 L 78.584714,69.487334 L 75.606048,69.487334 L 75.606048,77.846817 L 73.574515,77.846817 z "
           style="font-size:14.0560112px;font-style:normal;font-weight:bold;fill:#ffffff;fill-opacity:1;stroke:none;stroke-width:1px;stroke-linecap:butt;stroke-linejoin:miter;stroke-opacity:1;font-family:Bitstream Vera Sans"
           transform="scale(0.8051074,1.2420703)" />
        <path
           id="text2183"
           d="M 102.49431,77.323786 L 102.49431,71.140313 L 104.91393,71.140313 C 107.24391,71.140341 109.08663,70.485028 110.44209,69.174372 C 111.7975,67.863776 112.47522,66.200289 112.47524,64.183906 C 112.47522,62.189997 111.76949,60.509707 110.35807,59.143031 C 108.94661,57.776435 107.26632,57.093118 105.3172,57.093075 C 103.83853,57.093118 102.43828,57.586003 101.11647,58.571732 C 99.794628,59.557543 98.943281,61.036198 98.562424,63.007702 L 91.538805,63.007702 C 91.80765,59.557543 93.252699,56.538622 95.873957,53.95093 C 98.495204,51.363329 101.55333,50.069506 105.04835,50.069456 C 109.41709,50.069506 112.91769,51.508954 115.55017,54.387806 C 118.1826,57.266747 119.49883,60.487303 119.49886,64.049483 C 119.49883,65.931443 119.12916,67.762959 118.38986,69.544036 C 117.65051,71.325173 116.27267,72.865439 114.25635,74.164838 C 116.31748,75.486692 117.79613,77.110972 118.69232,79.037684 C 119.58844,80.964437 120.03652,82.913573 120.03655,84.885099 C 120.03652,89.455502 118.60267,93.09613 115.735,95.806994 C 112.86728,98.517866 109.34988,99.8733 105.18277,99.8733 C 101.86699,99.8733 98.881671,98.803515 96.226818,96.663943 C 93.571954,94.524377 91.919669,91.404638 91.269958,87.304719 L 98.293577,87.304719 C 98.943281,88.985021 99.817032,90.334854 100.91483,91.354222 C 102.01261,92.373605 103.56968,92.883293 105.58604,92.883287 C 107.53516,92.883293 109.26026,92.194375 110.76134,90.816528 C 112.26238,89.438699 113.01291,87.539971 113.01293,85.12034 C 113.01291,82.678332 112.26798,80.768403 110.77814,79.390545 C 109.28827,78.012727 107.51276,77.323809 105.45162,77.323786 L 102.49431,77.323786 z M 146.854,85.389186 L 146.854,64.587176 C 146.85398,62.234805 146.22107,60.397688 144.95527,59.075819 C 143.68943,57.754032 142.02595,57.093118 139.96481,57.093075 C 137.88123,57.093118 136.21214,57.754032 134.95754,59.075819 C 133.70291,60.397688 133.0756,62.234805 133.07561,64.587176 L 133.07561,85.389186 C 133.0756,87.76401 133.70291,89.606728 134.95754,90.917346 C 136.21214,92.22798 137.88123,92.883293 139.96481,92.883287 C 142.02595,92.883293 143.68943,92.22798 144.95527,90.917346 C 146.22107,89.606728 146.85398,87.76401 146.854,85.389186 L 146.854,85.389186 z M 126.05199,85.792456 L 126.05199,64.183906 C 126.05199,59.680764 127.46343,56.202564 130.28633,53.749295 C 133.10921,51.296117 136.33537,50.069506 139.96481,50.069456 C 143.57181,50.069506 146.79237,51.296117 149.62649,53.749295 C 152.46055,56.202564 153.87759,59.680764 153.87762,64.183906 L 153.87762,85.792456 C 153.87759,90.295647 152.46055,93.768246 149.62649,96.210264 C 146.79237,98.652289 143.57181,99.8733 139.96481,99.8733 C 136.33537,99.8733 133.10921,98.652289 130.28633,96.210264 C 127.46343,93.768246 126.05199,90.295647 126.05199,85.792456 L 126.05199,85.792456 z M 160.02749,64.587176 L 160.02749,50.506332 L 187.88672,50.506332 L 187.88672,57.529951 L 171.31905,99.47003 L 163.45528,99.47003 L 180.05657,57.529951 L 167.05111,57.529951 L 167.05111,64.587176 L 160.02749,64.587176 z M 235.23734,57.093075 L 235.23734,71.946853 L 246.46169,71.946853 C 249.23974,71.946881 251.3233,71.173947 252.71237,69.628051 C 254.10138,68.082214 254.7959,66.267501 254.79593,64.183906 C 254.7959,61.697112 253.96696,59.837591 252.3091,58.605338 C 250.92003,57.597204 249.11652,57.093118 246.89856,57.093075 L 235.23734,57.093075 z M 227.81045,99.47003 L 227.81045,50.506332 L 246.96578,50.506332 C 251.15527,50.506381 254.47105,51.581766 256.9131,53.732492 C 258.2797,54.919943 259.4391,56.4098 260.39131,58.202068 C 261.34343,59.994418 261.81951,61.988362 261.81955,64.183906 C 261.81951,67.342886 260.97377,70.137768 259.28231,72.568561 C 257.59078,74.999407 255.26638,76.718904 252.3091,77.727056 L 263.66787,99.47003 L 254.86315,99.47003 L 244.74779,78.567202 L 235.23734,78.567202 L 235.23734,99.47003 L 227.81045,99.47003 z M 278.08478,99.47003 L 278.08478,57.093075 L 264.67605,57.093075 L 264.67605,50.506332 L 298.92039,50.506332 L 298.92039,57.093075 L 285.51167,57.093075 L 285.51167,99.47003 L 278.08478,99.47003 z M 304.1629,99.47003 L 304.1629,50.506332 L 323.15019,50.506332 C 327.92219,50.506381 331.53482,51.732993 333.98808,54.186171 C 336.44126,56.639439 337.66788,59.792783 337.66791,63.646213 C 337.66788,65.662596 337.17499,67.600531 336.18926,69.460022 C 335.20345,71.319572 333.28792,72.887843 330.44266,74.164838 L 330.44266,74.299261 C 333.13109,74.926595 335.13624,76.343639 336.4581,78.550399 C 337.77989,80.757201 338.44081,83.104006 338.44085,85.590821 C 338.44081,89.825166 337.09098,93.196948 334.39135,95.706177 C 331.69164,98.215414 328.50469,99.47003 324.83049,99.47003 L 304.1629,99.47003 z M 323.01577,77.727056 L 311.58979,77.727056 L 311.58979,92.480017 L 323.01577,92.480017 C 325.77142,92.480024 327.79337,91.735095 329.08162,90.245229 C 330.36982,88.755381 331.01393,87.047086 331.01396,85.12034 C 331.01393,83.193621 330.36982,81.479726 329.08162,79.978647 C 327.79337,78.477608 325.77142,77.727078 323.01577,77.727056 L 323.01577,77.727056 z M 322.34365,57.093075 L 311.58979,57.093075 L 311.58979,71.140313 L 322.34365,71.140313 C 325.00969,71.140341 326.99243,70.457024 328.29189,69.090357 C 329.59128,67.723752 330.24099,66.065866 330.24102,64.116694 C 330.24099,62.234805 329.59128,60.593722 328.29189,59.19344 C 326.99243,57.793238 325.00969,57.093118 322.34365,57.093075 L 322.34365,57.093075 z "
           style="font-size:68.82474518px;font-style:normal;font-weight:normal;fill:#000000;fill-opacity:1;stroke:none;stroke-width:1px;stroke-linecap:butt;stroke-linejoin:miter;stroke-opacity:1;font-family:Bitstream Vera Sans" />
        <rect
           ry="5.3568945"
           y="40.980003"
           x="35.403545"
           height="69.192917"
           width="335.62152"
           id="rect2221"
           style="fill:none;fill-opacity:1;stroke:#000000;stroke-width:3.09279561;stroke-miterlimit:4;stroke-dasharray:none;stroke-opacity:1" />
      </g>
    </g>
  </g>
</svg>
