<svg width="1000" height="221" xmlns="http://www.w3.org/2000/svg" xml:space="preserve" enable-background="new 0 0 1000 221" version="1.1">

 <g>
  <title>Layer 1</title>
  <g id="svg_1">
   <rect id="svg_2" height="221" width="1000" fill="#FFCA11" x="0"/>
   <g id="svg_3">
    <rect id="svg_4" height="62.7" width="85.42" fill="#FFFFFF" y="18.115" x="18.385"/>
    <path id="svg_5" d="m11.77,11.5l0,195l95.774,0l0,-195l-95.774,0zm83.407,61.405l-68.452,0l0,-44.724l68.452,0l0,44.724l0,0z" fill="#005ca1"/>
    <g id="svg_6">
     <path id="svg_7" d="m22.039,150.918l4.162,0l0,4.506l10.339,0l0,9.617l-4.446,5.324l-5.454,0l5.737,-6.747l0,-4.032l-10.338,0l0,-8.668z" fill="#FFFFFF"/>
     <path id="svg_8" d="m43.389,155.424l4.162,6.049l1.86,-1.603l0,-4.446l4.161,0l0,6.463l-3.592,3.153l3.592,5.324l-5.015,0l-4.032,-5.894l-1.86,1.576l0,4.316l-4.162,0l0,-6.462l3.593,-3.022l-3.748,-5.455l5.041,0.001l0,0z" fill="#FFFFFF"/>
     <path id="svg_9" d="m56.081,155.424l13.44,0l0,14.94l-4.161,0l0,-10.779l-9.28,0l0.001,-4.161l0,0z" fill="#FFFFFF"/>
     <path id="svg_10" d="m71.589,155.424l4.162,0l0,10.778l3.023,0l0,-10.778l4.162,0l0,10.778l1.731,0l1.292,-1.292l0,-9.486l4.163,0l0,10.778l-4.163,4.162l-14.37,0l0,-14.94z" fill="#FFFFFF"/>
     <path id="svg_11" d="m92.5,155.424l4.161,0l0,6.462l-4.161,0l0,-6.462z" fill="#FFFFFF"/>
    </g>
    <g id="svg_12">
     <path id="svg_13" d="m36.512,175.982c0.167,3.729 0.292,7.006 0.292,10.615c0,0.711 0.439,1.586 1.046,1.933c0.459,0.258 1.129,0.407 2.05,0.423l0.23,0l0,1.934l-0.397,0c-1.506,0 -2.614,-0.348 -3.284,-1.133l-0.083,0c-0.147,0.77 -0.356,1.557 -0.733,2.249c-0.648,0.756 -1.485,1.285 -2.406,1.708c-1.339,0.633 -2.866,0.938 -4.351,0.938c-1.82,0 -3.327,-0.453 -4.353,-1.301c-0.963,-0.801 -1.485,-1.947 -1.485,-3.412c0,-1.27 0.564,-2.537 1.401,-3.805l0.753,0.211c-0.522,0.86 -0.879,1.751 -0.879,2.627c0,0.891 0.334,1.662 1.067,2.342c0.898,0.845 2.134,1.224 3.619,1.224c1.402,0 2.572,-0.287 3.62,-0.709c1.024,-0.408 1.861,-0.877 2.279,-1.437c0.042,-0.166 0.146,-0.316 0.146,-0.996c0,-2.354 -0.167,-6.268 -0.628,-12.156c0.628,-0.498 1.256,-0.951 1.924,-1.328l0.172,0.073z" fill="#FFFFFF"/>
     <path id="svg_14" d="m40.59,188.954c1.611,0 3.285,-0.47 3.598,-1.328l0.607,-1.632l1.442,-0.755l0.126,0.105c-0.293,0.771 -0.461,1.419 -0.461,1.75c0,0.528 0.188,0.968 0.69,1.253c0.67,0.395 1.485,0.604 2.595,0.604l0.377,0l0,1.934l-0.48,0c-2.051,0 -3.599,-0.407 -4.311,-1.541l-0.083,0c-0.71,1.013 -2.363,1.541 -4.163,1.541l-0.397,0c-1.15,0 -1.465,-0.604 -1.465,-1.014c0,-0.361 0.335,-0.92 1.465,-0.92l0.46,0.003l0,0zm2.365,7.959c-0.857,-0.59 -1.611,-1.074 -2.448,-1.57c0.543,-0.544 1.129,-1.044 1.653,-1.436c0.856,0.483 1.568,0.981 2.385,1.614c-0.587,0.606 -1.005,0.999 -1.59,1.392zm4.037,-0.196c-0.857,-0.59 -1.611,-1.072 -2.448,-1.57c0.545,-0.543 1.131,-1.043 1.653,-1.436c0.857,0.484 1.569,0.982 2.386,1.616c-0.586,0.603 -1.004,0.997 -1.591,1.39z" fill="#FFFFFF"/>
     <path id="svg_15" d="m54.816,182.566c0.962,1.224 2.092,3.109 2.092,4.605c0,1.131 -0.628,2.008 -1.464,2.809c-0.941,0.68 -2.427,0.905 -5.628,0.905l-0.251,0c-1.149,0 -1.464,-0.604 -1.464,-1.011c0,-0.361 0.335,-0.922 1.464,-0.922l0.355,0c1.779,0 3.201,-0.046 4.122,-0.287c0.731,-0.197 1.191,-0.408 1.191,-0.664c0,-0.709 -1.004,-2.189 -2.092,-3.729c0.501,-0.65 1.025,-1.225 1.568,-1.707l0.107,0l0,0.001zm1.904,-3.246c-0.251,0.378 -0.521,0.725 -0.816,1.027c-2.092,0.238 -3.911,0.633 -5.438,1.131l-0.042,-0.045l0.502,-0.636c0.188,-0.166 0.607,-0.407 0.962,-0.498l0,-0.045c-0.984,-0.213 -1.632,-0.666 -1.632,-1.313c0,-0.407 0.376,-0.892 0.983,-1.328c0.815,-0.529 1.674,-0.861 2.532,-0.861c0.836,0 1.317,0.348 1.317,0.739c0,0.393 -0.335,0.694 -0.669,0.981l-0.042,0c-0.229,-0.332 -0.438,-0.543 -0.669,-0.59c-0.147,-0.029 -0.398,-0.045 -0.648,-0.045c-0.732,0 -1.464,0.303 -1.464,0.528c0,0.724 1.757,0.967 2.991,0.967c0.712,0 1.422,-0.03 2.134,-0.06l0,0.045l-0.001,0l0,0.003z" fill="#FFFFFF"/>
     <path id="svg_16" d="m61.093,191.145c0.21,-0.951 0.231,-2.023 0.231,-3.021l0,-1.479c0,-2.763 -0.42,-6.778 -0.754,-9.392c0.585,-0.546 1.402,-1.179 2.05,-1.603l0.188,0.047c0.439,3.292 0.543,7.111 0.543,10.631c0,0.921 -0.041,1.826 -0.146,2.49c-0.062,0.832 -0.627,1.466 -1.84,2.432l-0.272,-0.105z" fill="#FFFFFF"/>
     <path id="svg_17" d="m83.833,188.518c0.731,-0.395 0.837,-0.832 1.484,-2.401l1.255,-0.528l0.127,0.061c-0.167,0.483 -0.271,1.059 -0.271,1.479c0,1.147 1.172,1.737 2.175,1.737c0.585,0 1.108,-0.227 1.108,-0.68c0,-0.591 -0.251,-1.557 -0.523,-2.447c0.586,-0.498 1.213,-0.95 1.883,-1.357l0.126,0.045c0.251,1.135 0.336,2.055 0.336,2.688c0,0.679 -0.378,1.54 -0.754,2.067c-0.796,0.951 -1.882,1.661 -3.096,1.661c-0.899,0 -1.862,-0.483 -2.616,-1.254l-0.167,0c-0.753,0.604 -1.799,1.3 -3.306,1.3c-2.029,0 -3.473,-1.147 -3.452,-2.886c-2.05,0.47 -3.536,0.802 -4.854,1.269c0.167,0.379 0.251,0.771 0.251,1.119c0,0.633 -0.042,1.269 -0.084,1.902c-0.063,1.07 -0.544,1.932 -1.611,2.869c-1.799,1.357 -3.264,1.842 -4.622,1.842c-1.465,0 -3.16,-0.498 -5.063,-1.465l0.314,-0.423c0.878,0.288 1.715,0.393 2.552,0.393c1.987,0 3.745,-0.663 5.397,-1.675c1.338,-0.997 2.07,-1.736 2.07,-2.462c0,-0.499 -0.71,-1.163 -1.527,-1.812c0.126,-0.545 0.335,-1.164 0.628,-1.828c2.427,-0.726 5.042,-1.346 7.804,-1.781l0.041,0.105c-0.104,0.303 -0.125,0.604 -0.125,0.904c0,1.028 1.254,1.995 2.657,1.995c0.608,-0.001 1.299,-0.152 1.863,-0.437z" fill="#FFFFFF"/>
     <path id="svg_18" d="m100.507,194.57c-0.251,0.379 -0.522,0.727 -0.816,1.027c-2.091,0.24 -3.913,0.635 -5.438,1.133l-0.042,-0.047l0.502,-0.634c0.188,-0.166 0.606,-0.407 0.962,-0.498l0,-0.046c-0.983,-0.212 -1.632,-0.665 -1.632,-1.312c0,-0.408 0.378,-0.891 0.984,-1.329c0.815,-0.528 1.674,-0.861 2.531,-0.861c0.838,0 1.318,0.349 1.318,0.74c0,0.391 -0.335,0.694 -0.669,0.981l-0.042,0c-0.231,-0.332 -0.439,-0.543 -0.669,-0.591c-0.146,-0.028 -0.398,-0.044 -0.648,-0.044c-0.733,0 -1.465,0.303 -1.465,0.527c0,0.725 1.758,0.967 2.992,0.967c0.71,0 1.422,-0.029 2.133,-0.061l-0.001,0.048l0,0zm-4.227,-3.425c0.212,-0.951 0.231,-2.023 0.231,-3.021l0,-1.479c0,-2.763 -0.418,-6.778 -0.753,-9.392c0.586,-0.546 1.402,-1.179 2.05,-1.603l0.188,0.047c0.439,3.292 0.545,7.111 0.545,10.631c0,0.921 -0.042,1.826 -0.147,2.49c-0.062,0.832 -0.627,1.466 -1.84,2.432l-0.274,-0.105z" fill="#FFFFFF"/>
    </g>
    <g id="svg_19">
     <path id="svg_20" d="m41.771,144.881l0,-67.02l9.333,0l0,67.02l-9.333,0z" fill="#FFFFFF"/>
     <path id="svg_21" d="m60.25,144.881l0,-66.471l9.334,0l0,55.18l23.209,0l0,11.292l-32.543,-0.001l0,0z" fill="#FFFFFF"/>
    </g>
    <rect id="svg_22" height="4.142" width="56.021" fill="#005ca1" y="34.659" x="33.894"/>
    <rect id="svg_23" height="4.142" width="56.021" fill="#005ca1" y="62.561" x="33.894"/>
    <path id="svg_24" d="m67.934,50.519l3.024,-5.238l-6.047,0l-3.073,-5.321l-3.072,5.321l-6.048,0l3.024,5.239l-3.024,5.237l6.047,0l3.073,5.321l3.072,-5.321l6.048,0l-3.024,-5.238zm0.783,-3.945l-1.53,2.65l-1.528,-2.65l3.058,0zm-2.277,3.945l-2.276,3.943l-4.65,0l-2.277,-3.943l2.277,-3.944l4.65,0l2.276,3.944zm-4.602,-7.972l1.579,2.733l-3.156,0l1.577,-2.733zm-6.878,4.027l3.059,0l-1.528,2.65l-1.531,-2.65zm0,7.888l1.53,-2.649l1.528,2.649l-3.058,0zm6.878,4.026l-1.578,-2.732l3.155,0l-1.577,2.732zm5.35,-6.676l1.528,2.649l-3.061,0l1.533,-2.649z" fill="#005ca1"/>
   </g>
   <path id="svg_25" d="m972.375,213.684l-947.648,0c-10.296,0 -18.673,-8.377 -18.673,-18.673l0,-172.32c0,-10.296 8.377,-18.673 18.673,-18.673l947.648,0c10.297,0 18.674,8.377 18.674,18.673l0,172.319c0,10.297 -8.377,18.674 -18.674,18.674zm-947.648,-200.666c-5.334,0 -9.673,4.339 -9.673,9.673l0,172.319c0,5.334 4.339,9.674 9.673,9.674l947.648,0c5.334,0 9.674,-4.34 9.674,-9.674l0,-172.319c0,-5.334 -4.34,-9.673 -9.674,-9.673l-947.648,0z" fill="#231F20"/>
   <g id="svg_26">
    <polygon id="svg_27" points="424.719,176.251 424.719,172.529 427.201,172.529 427.201,167.226 425.994,167.226     425.994,163.692 440.356,163.692 440.356,176.251 436.823,176.251 436.823,167.226 430.544,167.226 430.544,176.251   " fill="#231F20"/>
    <polygon id="svg_28" points="432.428,175.077 432.428,171.349 431.913,171.349 431.913,168.398 435.548,168.398     435.548,175.077   " fill="#231F20"/>
    <path id="svg_29" d="m422.299,176.908c-2.692,-1.438 -3.411,-3.661 -2.163,-6.672c5.018,-7.636 10.334,-15.711 15.352,-23.347c-1.228,-1.193 -3.187,-1.281 -4.407,-0.115c-4.583,7.073 -8.72,14.43 -13.298,21.495c-1.229,2.659 0.127,7.46 4.516,8.639l0,0z" fill="#231F20"/>
    <path id="svg_30" d="m435.84,147.595c-0.522,0.719 -1.051,1.438 -1.573,2.163c-0.461,1.112 -0.326,2.225 0.393,3.337c3.926,5.689 7.853,11.378 11.779,17.074c1.491,3.112 0.182,4.896 -2.157,6.672c3.886,-0.868 6.429,-4.658 4.319,-8.828c-4.251,-6.809 -8.51,-13.61 -12.761,-20.418l0,0z" fill="#231F20"/>
   </g>
   <g id="svg_31">
    <path id="svg_32" d="m193.666,185.512c-0.581,0 -0.871,-0.439 -0.871,-1.317l0,-130.347c-2.225,2.488 -4.449,4.993 -6.673,7.516c-2.225,2.523 -4.45,4.992 -6.673,7.406c-0.339,0.367 -0.653,0.422 -0.943,0.165c-0.29,-0.255 -0.435,-0.675 -0.435,-1.262l0,-23.81c0,-0.146 0.036,-0.329 0.109,-0.548c0.072,-0.22 0.156,-0.401 0.253,-0.549l14.942,-16.348l15.16,0c0.58,0 0.87,0.439 0.87,1.317l0,156.459c0,0.878 -0.29,1.317 -0.87,1.317l-14.869,0l0,0.001z"/>
    <path id="svg_33" d="m246.702,185.182c-0.58,0 -0.871,-0.438 -0.871,-1.316l0,-21.395l40.619,-76.914l0,0.11c1.499,-2.853 2.466,-5.467 2.901,-7.845c0.436,-2.376 0.653,-4.699 0.653,-6.967c0,-5.047 -1.209,-9.801 -3.626,-14.264c-2.418,-4.389 -5.683,-6.583 -9.792,-6.583c-3.772,0 -7.036,1.939 -9.792,5.815c-1.354,1.903 -2.382,4.152 -3.083,6.748c-0.702,2.597 -1.149,5.541 -1.342,8.832c0,0.367 -0.085,0.659 -0.254,0.878c-0.17,0.219 -0.375,0.329 -0.617,0.329l-14.797,0c-0.58,0 -0.871,-0.439 -0.871,-1.316c0.097,-13.019 3.021,-23.955 8.777,-32.806c5.85,-8.997 12.813,-13.496 20.89,-13.496c8.752,0 16.126,4.536 22.123,13.605l-0.073,0c5.948,8.997 8.922,19.823 8.922,32.477c0,5.486 -0.533,10.571 -1.596,15.251c-1.064,4.682 -2.66,9.035 -4.787,13.057l0,-0.11c-2.756,5.267 -5.465,10.423 -8.124,15.471c-2.66,5.047 -5.32,10.077 -7.979,15.086c-2.66,5.012 -5.32,10.022 -7.979,15.032c-2.66,5.011 -5.368,10.149 -8.124,15.415l37.72,0c0.581,0 0.871,0.439 0.871,1.316l0,22.273c0,0.878 -0.29,1.316 -0.871,1.316l-58.898,0l0,0.001z"/>
    <path id="svg_34" d="m361.321,114.523c-0.58,0 -0.87,-0.439 -0.87,-1.317l0,-19.64c0,-0.878 0.29,-1.317 0.87,-1.317l5.078,0c4.689,0 8.389,-1.975 11.098,-5.925c2.659,-3.802 3.989,-8.813 3.989,-15.031c0,-5.851 -1.378,-10.862 -4.134,-15.032s-6.118,-6.254 -10.083,-6.254c-2.901,0 -5.683,1.5 -8.341,4.499c-2.66,2.926 -4.352,7.351 -5.077,13.276c-0.049,0.293 -0.158,0.549 -0.327,0.768c-0.17,0.219 -0.326,0.329 -0.471,0.329l-14.87,0c-0.243,0 -0.448,-0.146 -0.617,-0.439c-0.17,-0.292 -0.23,-0.621 -0.181,-0.987c0.483,-11.191 3.626,-21.102 9.429,-29.734c5.706,-8.484 12.331,-12.728 19.875,-12.728c4.69,0 8.933,1.207 12.729,3.621c3.796,2.414 7.145,5.963 10.046,10.643c2.756,4.608 4.871,9.6 6.347,14.977c1.474,5.376 2.212,10.917 2.212,16.623c0,6.218 -0.798,12.289 -2.394,18.213c-0.774,2.633 -1.838,5.121 -3.191,7.461c-1.354,2.342 -2.95,4.536 -4.787,6.583c3.868,4.169 6.746,9.181 8.631,15.032c1.934,6.292 2.901,12.691 2.901,19.2c0,14.851 -3.119,26.811 -9.357,35.879c-6.142,8.852 -13.757,13.275 -22.848,13.275c-3.626,0 -7.048,-0.877 -10.264,-2.633c-3.216,-1.756 -6.299,-4.389 -9.248,-7.9c-2.901,-3.582 -5.235,-7.898 -7,-12.946c-1.766,-5.047 -2.986,-10.972 -3.663,-17.774c-0.098,-0.949 0.192,-1.426 0.87,-1.426l14.797,0c0.338,0 0.604,0.293 0.798,0.877c0.628,2.562 1.366,4.865 2.212,6.912c0.846,2.049 1.85,3.823 3.01,5.322c1.161,1.5 2.502,2.652 4.025,3.455c1.523,0.807 3.3,1.207 5.332,1.207c3.819,0 7.253,-2.084 10.3,-6.254c2.998,-4.021 4.497,-9.765 4.497,-17.226s-1.5,-13.202 -4.497,-17.226c-3.046,-4.242 -6.577,-6.363 -10.59,-6.363l-6.236,0z"/>
    <path id="svg_35" d="m465.106,162.031c-0.58,0 -0.871,-0.439 -0.871,-1.316l0,-21.396l34.671,-112.133c0.096,-0.146 0.218,-0.31 0.363,-0.494c0.145,-0.182 0.29,-0.274 0.435,-0.274l16.538,0c0.291,0 0.52,0.184 0.689,0.549c0.169,0.367 0.182,0.806 0.036,1.316l-34.381,110.049l24.733,0l0,-43.778c0,-0.804 0.291,-1.207 0.871,-1.207l14.797,0c0.58,0 0.87,0.403 0.87,1.207l0,43.778l7.471,0c0.532,0 0.798,0.438 0.798,1.316l0,21.066c0,0.877 -0.266,1.316 -0.798,1.316l-7.471,0l0,21.834c0,0.878 -0.29,1.316 -0.87,1.316l-14.797,0c-0.58,0 -0.871,-0.438 -0.871,-1.316l0,-21.834l-42.213,0l0,0.001z"/>
    <path id="svg_36" d="m551.945,113.426c-0.532,0 -0.798,-0.401 -0.798,-1.207l0,-84.484c0,-0.878 0.266,-1.317 0.798,-1.317l54.981,0c0.58,0 0.87,0.439 0.87,1.317l0,22.383c0,0.877 -0.29,1.316 -0.87,1.316l-40.185,0l0,31.489c4.69,-4.973 9.913,-7.461 15.668,-7.461c2.031,0 3.977,0.312 5.839,0.933c1.861,0.623 3.614,1.519 5.259,2.688c1.596,1.171 3.083,2.469 4.461,3.895s2.55,2.907 3.518,4.443c1.402,2.342 2.635,4.847 3.699,7.516c1.063,2.671 1.934,5.395 2.611,8.174c1.402,5.706 2.104,15.032 2.104,27.978c0,5.268 -0.134,9.875 -0.399,13.825s-0.688,7.279 -1.269,9.984l0.072,-0.11c-1.016,5.048 -2.684,9.875 -5.005,14.483c-2.273,4.243 -5.32,8.157 -9.14,11.74c-4.014,3.658 -8.656,5.485 -13.926,5.485c-6.818,0 -13.396,-3.182 -19.729,-9.545c-6.48,-6.584 -10.252,-17.298 -11.315,-32.148c-0.049,-0.365 0.023,-0.693 0.218,-0.986c0.192,-0.292 0.41,-0.439 0.652,-0.439l14.797,0c0.483,0 0.773,0.329 0.871,0.987c1.691,11.485 6.334,17.226 13.926,17.226c6.866,0 10.808,-3.438 11.823,-10.312c1.257,-7.607 1.886,-14.922 1.886,-21.944c0,-4.169 -0.242,-8.026 -0.725,-11.575c-0.484,-3.547 -1.186,-6.711 -2.104,-9.491c-1.741,-5.193 -5.513,-7.79 -11.315,-7.79c-5.32,0 -9.502,4.098 -12.549,12.289c-0.193,0.438 -0.435,0.658 -0.726,0.658l-13.998,0z"/>
    <path id="svg_37" d="m629.999,121.699c-0.239,0 -0.358,-0.439 -0.358,-1.317l0,-22.383c0,-0.877 0.119,-1.316 0.358,-1.316l19.657,0c0.26,0 0.391,0.439 0.391,1.316l0,22.383c0,0.878 -0.131,1.317 -0.391,1.317l-19.657,0z"/>
    <path id="svg_38" d="m423.999,121.699c-0.239,0 -0.358,-0.439 -0.358,-1.317l0,-22.383c0,-0.877 0.119,-1.316 0.358,-1.316l19.657,0c0.26,0 0.391,0.439 0.391,1.316l0,22.383c0,0.878 -0.131,1.317 -0.391,1.317l-19.657,0z"/>
    <path id="svg_39" d="m674.909,71.403c0.047,-7.313 0.87,-13.842 2.466,-19.585c1.596,-5.741 3.844,-10.66 6.745,-14.757c2.757,-3.803 5.851,-6.748 9.285,-8.833c3.433,-2.085 7.035,-3.127 10.808,-3.127c6.865,0 13.079,3.11 18.641,9.326c5.223,6.292 8.632,15.36 10.228,27.21c0.097,0.438 0.048,0.806 -0.146,1.097c-0.193,0.293 -0.435,0.438 -0.725,0.438l-14.87,0c-0.388,0 -0.652,-0.255 -0.798,-0.768c-2.176,-8.046 -6.311,-12.179 -12.403,-12.398c-8.753,0.367 -13.128,7.974 -13.128,22.822l0,12.947c3.143,-1.389 6.273,-2.486 9.393,-3.292c3.119,-0.804 6.08,-1.169 8.886,-1.097c6.77,0 12.572,3.584 17.408,10.752c4.642,7.389 6.938,18.762 6.891,34.123l0,14.264c-0.146,14.995 -3.096,26.406 -8.85,34.232c-5.416,7.754 -12.258,11.812 -20.526,12.179c-8.028,-0.367 -14.725,-4.389 -20.093,-12.069c-6.093,-8.046 -9.164,-19.456 -9.211,-34.232l0,-69.232l-0.001,0zm16.103,67.916c0.047,14.995 4.448,22.565 13.201,22.712c8.559,-0.072 13.007,-7.643 13.346,-22.712l0,-12.837c-0.388,-14.849 -4.836,-22.419 -13.346,-22.712c-8.753,0.367 -13.154,7.937 -13.201,22.712l0,12.837z"/>
    <path id="svg_40" d="m755.45,73.927c-0.58,0 -0.87,-0.439 -0.87,-1.317l0,-44.875c0,-0.878 0.29,-1.317 0.87,-1.317l58.753,0c0.531,0 0.798,0.439 0.798,1.317l0,22.492l-34.962,134.078c-0.193,0.586 -0.46,0.877 -0.798,0.877l-16.61,0c-0.339,0 -0.58,-0.182 -0.725,-0.549c-0.146,-0.365 -0.17,-0.768 -0.073,-1.207l34.6,-131.992l-25.388,0l0,21.176c0,0.878 -0.266,1.317 -0.798,1.317l-14.797,0z"/>
    <path id="svg_41" d="m829.247,138.332c0,-7.533 0.979,-14.227 2.938,-20.079c1.958,-5.851 4.847,-10.898 8.668,-15.141c-2.95,-4.169 -5.32,-8.777 -7.108,-13.825c-1.79,-5.047 -2.685,-10.972 -2.685,-17.774c0,-12.947 2.901,-23.919 8.704,-32.916c5.948,-9.069 13.201,-13.605 21.761,-13.605c8.606,0 15.836,4.536 21.688,13.605c5.899,9.145 8.85,20.117 8.85,32.916c0,3.365 -0.243,6.511 -0.726,9.436c-0.484,2.926 -1.161,5.688 -2.031,8.284c-0.87,2.597 -1.911,5.047 -3.119,7.351c-1.209,2.304 -2.515,4.481 -3.917,6.528c7.736,8.413 11.605,20.152 11.605,35.22c0,7.021 -0.81,13.459 -2.43,19.311c-1.62,5.853 -4.025,11.045 -7.217,15.58c-3.144,4.243 -6.626,7.516 -10.445,9.82c-3.82,2.304 -7.906,3.455 -12.258,3.455c-8.85,0 -16.418,-4.424 -22.703,-13.275c-6.383,-9.069 -9.575,-20.7 -9.575,-34.891zm16.465,-0.22c0,3.365 0.423,6.474 1.27,9.326c0.846,2.853 1.994,5.341 3.445,7.461c3.239,4.462 6.938,6.692 11.098,6.692c4.158,0 7.857,-2.23 11.098,-6.692c1.547,-2.194 2.731,-4.699 3.554,-7.516c0.822,-2.815 1.233,-5.906 1.233,-9.271c0,-6.803 -1.596,-12.398 -4.787,-16.787c-3.144,-4.534 -6.843,-6.802 -11.098,-6.802c-4.159,0 -7.858,2.268 -11.098,6.802c-3.145,4.389 -4.715,9.985 -4.715,16.787zm1.886,-67.038c0,7.022 1.402,12.289 4.207,15.8c2.949,3.584 6.189,5.376 9.72,5.376c3.529,0 6.745,-1.792 9.646,-5.376c2.901,-3.583 4.353,-8.85 4.353,-15.8c0,-6.802 -1.451,-11.995 -4.353,-15.58c-2.756,-3.657 -5.973,-5.486 -9.646,-5.486c-3.579,0 -6.818,1.829 -9.72,5.486c-2.805,3.511 -4.207,8.705 -4.207,15.58z"/>
   </g>
  </g>
 </g>
</svg>