<?xml version="1.0" encoding="UTF-8" standalone="no"?>
<!-- Created with Inkscape (http://www.inkscape.org/) -->

<svg
   xmlns:dc="http://purl.org/dc/elements/1.1/"
   xmlns:cc="http://creativecommons.org/ns#"
   xmlns:rdf="http://www.w3.org/1999/02/22-rdf-syntax-ns#"
   xmlns:svg="http://www.w3.org/2000/svg"
   xmlns="http://www.w3.org/2000/svg"
   xmlns:xlink="http://www.w3.org/1999/xlink"
   xmlns:sodipodi="http://sodipodi.sourceforge.net/DTD/sodipodi-0.dtd"
   xmlns:inkscape="http://www.inkscape.org/namespaces/inkscape"
   width="346.70999"
   height="79.290001"
   id="svg2"
   sodipodi:version="0.32"
   inkscape:version="0.92.5 (2060ec1f9f, 2020-04-08)"
   sodipodi:docname="PolishLicensePlates2019.svg"
   inkscape:output_extension="org.inkscape.output.svg.inkscape"
   version="1.0"
   sodipodi:modified="true">
  <defs
     id="defs4">
    <g
       id="s">
      <g
         id="c">
        <path
           transform="matrix(0.9510565,0.309017,-0.309017,0.9510565,0,-1)"
           d="M 0,0 L 0,1 L 0.5,1 L 0,0 z "
           id="t" />
        <use
           id="use3302"
           transform="scale(-1,1)"
           xlink:href="#t"
           x="0"
           y="0"
           width="744.09448"
           height="1052.3622" />
      </g>
      <g
         id="a">
        <use
           id="use3305"
           transform="matrix(0.309017,0.9510565,-0.9510565,0.309017,0,0)"
           xlink:href="#c"
           x="0"
           y="0"
           width="744.09448"
           height="1052.3622" />
        <use
           id="use3307"
           transform="matrix(-0.809017,0.5877853,-0.5877853,-0.809017,0,0)"
           xlink:href="#c"
           x="0"
           y="0"
           width="744.09448"
           height="1052.3622" />
      </g>
      <use
         id="use3309"
         transform="scale(-1,1)"
         xlink:href="#a"
         x="0"
         y="0"
         width="744.09448"
         height="1052.3622" />
    </g>
    <linearGradient
       id="linearGradient14251">
      <stop
         offset="0"
         style="stop-color:#c3bdc9;stop-opacity:1"
         id="stop14253" />
      <stop
         offset="1"
         style="stop-color:#c3bdc9;stop-opacity:0"
         id="stop14255" />
    </linearGradient>
    <linearGradient
       id="linearGradient10876">
      <stop
         offset="0"
         style="stop-color:#f6d155;stop-opacity:1"
         id="stop10878" />
      <stop
         offset="1"
         style="stop-color:#dfa12f;stop-opacity:1"
         id="stop10886" />
    </linearGradient>
    <linearGradient
       gradientTransform="translate(-13.787418,-14.81124)"
       gradientUnits="userSpaceOnUse"
       xlink:href="#linearGradient14251"
       id="linearGradient4666"
       y2="1603.801"
       x2="1815.9109"
       y1="1135.0117"
       x1="2428.7358" />
    <linearGradient
       gradientTransform="translate(-13.787418,-14.81124)"
       gradientUnits="userSpaceOnUse"
       xlink:href="#linearGradient14251"
       id="linearGradient4680"
       y2="1400.3666"
       x2="871.34882"
       y1="1930.344"
       x1="1895.5574" />
    <linearGradient
       gradientTransform="translate(-13.787418,-14.81124)"
       gradientUnits="userSpaceOnUse"
       xlink:href="#linearGradient14251"
       id="linearGradient4683"
       y2="1533.9921"
       x2="1253.6213"
       y1="1266.3861"
       x1="915.41553" />
    <linearGradient
       gradientTransform="matrix(0.05749066,0,0,0.05749066,14.031738,46.287267)"
       gradientUnits="userSpaceOnUse"
       xlink:href="#linearGradient14251"
       id="linearGradient3968"
       y2="1533.9921"
       x2="1253.6213"
       y1="1266.3861"
       x1="915.41553" />
    <linearGradient
       gradientTransform="matrix(0.05749066,0,0,0.05749066,14.031738,46.287267)"
       gradientUnits="userSpaceOnUse"
       xlink:href="#linearGradient14251"
       id="linearGradient3970"
       y2="1400.3666"
       x2="871.34882"
       y1="1930.344"
       x1="1895.5574" />
    <linearGradient
       gradientTransform="matrix(0.05749066,0,0,0.05749066,14.031738,46.287267)"
       gradientUnits="userSpaceOnUse"
       xlink:href="#linearGradient14251"
       id="linearGradient3972"
       y2="1603.801"
       x2="1815.9109"
       y1="1135.0117"
       x1="2428.7358" />
    <linearGradient
       gradientTransform="matrix(1.0000015,0,0,1.0000015,-13.787424,-14.807493)"
       gradientUnits="userSpaceOnUse"
       xlink:href="#linearGradient14251"
       id="linearGradient4750"
       y2="1603.801"
       x2="1815.9109"
       y1="1135.0117"
       x1="2428.7358" />
    <linearGradient
       gradientTransform="matrix(1.0000015,0,0,1.0000015,-13.787424,-14.807493)"
       gradientUnits="userSpaceOnUse"
       xlink:href="#linearGradient14251"
       id="linearGradient4764"
       y2="1400.3666"
       x2="871.34882"
       y1="1930.344"
       x1="1895.5574" />
    <linearGradient
       gradientTransform="matrix(1.0000015,0,0,1.0000015,-13.787424,-14.807493)"
       gradientUnits="userSpaceOnUse"
       xlink:href="#linearGradient14251"
       id="linearGradient4767"
       y2="1533.9921"
       x2="1253.6213"
       y1="1266.3861"
       x1="915.41553" />
  </defs>
  <sodipodi:namedview
     id="base"
     pagecolor="#ffffff"
     bordercolor="#666666"
     borderopacity="1.0"
     inkscape:pageopacity="0.0"
     inkscape:pageshadow="2"
     inkscape:zoom="1.1648808"
     inkscape:cx="286.46027"
     inkscape:cy="-134.45512"
     inkscape:document-units="px"
     inkscape:current-layer="layer1"
     inkscape:window-width="1920"
     inkscape:window-height="991"
     inkscape:window-x="-9"
     inkscape:window-y="-9"
     showgrid="true"
     showguides="true"
     inkscape:guide-bbox="true"
     width="346.71px"
     height="79.29px"
     inkscape:snap-bbox="true"
     inkscape:bbox-paths="true"
     inkscape:bbox-nodes="true"
     inkscape:snap-bbox-edge-midpoints="true"
     inkscape:snap-bbox-midpoints="true"
     inkscape:object-paths="true"
     inkscape:snap-intersection-paths="true"
     inkscape:object-nodes="true"
     inkscape:snap-smooth-nodes="true"
     inkscape:snap-midpoints="true"
     inkscape:snap-object-midpoints="true"
     inkscape:snap-center="true"
     inkscape:snap-text-baseline="true"
     inkscape:snap-page="true"
     inkscape:snap-global="false"
     inkscape:window-maximized="1" />
  <metadata
     id="metadata7">
    <rdf:RDF>
      <cc:Work
         rdf:about="">
        <dc:format>image/svg+xml</dc:format>
        <dc:type
           rdf:resource="http://purl.org/dc/dcmitype/StillImage" />
        <dc:title />
      </cc:Work>
    </rdf:RDF>
  </metadata>
  <g
     inkscape:label="Capa 1"
     inkscape:groupmode="layer"
     id="layer1"
     transform="translate(-5.5279208,-5.095195)">
    <path
       inkscape:connector-curvature="0"
       style="fill:#f9f9f9;fill-opacity:1;fill-rule:evenodd;stroke:none;stroke-width:1px;stroke-linecap:butt;stroke-linejoin:miter;stroke-opacity:1"
       d="m 42.69453,10.336557 v 68.942906 l 298.45761,0 c 3.12501,-0.01179 4.71224,-1.56136 5.14478,-4.26563 l -0.094,-59.373975 c -0.37892,-3.156621 -1.97865,-5.09242 -5.05076,-5.555839 z"
       id="path3214-4"
       sodipodi:nodetypes="ccccccc" />
    <path
       style="fill:#003399;fill-opacity:1;fill-rule:evenodd;stroke:#003399;stroke-width:1px;stroke-linecap:butt;stroke-linejoin:miter;stroke-opacity:1"
       d="M 42.868685,10.363284 L 42.868685,79.30619 L 16.327325,79.30619 C 13.202305,79.2944 11.615076,77.74483 11.182541,75.04056 L 11.276562,15.666585 C 11.655475,12.509964 13.25521,10.574165 16.327325,10.110746 L 42.868685,10.363284 z "
       id="path3214"
       sodipodi:nodetypes="ccccccc" />
    <g
       style="fill:#ffcc00"
       transform="matrix(1.6138444,0,0,1.6138444,27.945867,32.052517)"
       id="g3313">
      <use
         height="1052.3622"
         width="744.09448"
         x="0"
         xlink:href="#s"
         y="-6"
         id="use3315" />
      <use
         height="1052.3622"
         width="744.09448"
         x="0"
         xlink:href="#s"
         y="6"
         id="use3317" />
      <g
         id="l">
        <use
           height="1052.3622"
           width="744.09448"
           y="0"
           xlink:href="#s"
           x="-6"
           id="use3320" />
        <use
           height="1052.3622"
           width="744.09448"
           y="0"
           x="0"
           xlink:href="#s"
           transform="matrix(-0.809017,-0.5877853,0.5877853,-0.809017,-3,-5.1961524)"
           id="use3322" />
        <use
           height="1052.3622"
           width="744.09448"
           y="0"
           x="0"
           xlink:href="#s"
           transform="matrix(-0.809017,0.5877853,-0.5877853,-0.809017,-5.1961524,-3)"
           id="use3324" />
        <use
           height="1052.3622"
           width="744.09448"
           y="0"
           x="0"
           xlink:href="#s"
           transform="matrix(0.309017,0.9510565,-0.9510565,0.309017,-5.1961524,3)"
           id="use3326" />
        <use
           height="1052.3622"
           width="744.09448"
           y="0"
           x="0"
           xlink:href="#s"
           transform="matrix(0.309017,0.9510565,-0.9510565,0.309017,-3,5.1961524)"
           id="use3328" />
      </g>
      <use
         height="1052.3622"
         width="744.09448"
         y="0"
         x="0"
         xlink:href="#l"
         transform="scale(-1,1)"
         id="use3330" />
    </g>
    <rect
       style="fill:none;fill-opacity:1;stroke:#000000;stroke-width:3.09279561;stroke-miterlimit:4;stroke-dasharray:none;stroke-opacity:1"
       id="rect3216"
       width="335.62152"
       height="69.192917"
       x="11.072082"
       y="10.14367"
       ry="5.3568945" />
    <g
       id="g5522"
       transform="matrix(0.1712007,0,0,0.1712007,28.328653,-54.90141)">
      <rect
         rx="10.84693"
         ry="9.8512506"
         y="519.38391"
         x="688.73718"
         height="115.69246"
         width="69.332703"
         id="rect2288"
         style="fill:#73777a;fill-opacity:1;stroke:#757578;stroke-width:1.03870726;stroke-miterlimit:4;stroke-dasharray:none;stroke-opacity:1" />
      <path
         sodipodi:nodetypes="ccccsscccsscccssccccccsscccsscccssccc"
         d="m 758.17087,561.8437 -3.1e-4,31.18659 c -0.26929,0 -1.83513,0 -2.7899,0 -1.75063,-0.38807 -2.43526,-2.66185 -4.53358,-2.00873 -1.93486,1.24527 -2.27239,2.35747 -4.75172,2.35747 -1.51952,0 -2.41338,-0.52953 -3.03675,-1.77625 -0.73052,-1.46106 -1.01416,-2.09242 -3.13863,-2.09242 -3.03034,0.36048 -4.94114,2.37303 -8.02096,2.32491 -2.189,-0.41001 -3.34444,-1.79432 -4.0686,-4.0686 -0.67717,-1.12862 -1.58367,-1.39494 -3.02238,-1.39494 -1.43871,0 -1.17682,3.5e-4 -2.61553,3.5e-4 -1.43871,0 -2.34521,0.26631 -3.02239,1.39494 -0.72415,2.27428 -1.8796,3.65859 -4.0686,4.06861 -3.07982,0.0481 -4.99062,-1.96445 -8.02095,-2.32492 -2.12447,0 -2.40811,0.63136 -3.13864,2.09243 -0.62336,1.2467 -1.51722,1.77625 -3.03675,1.77625 -2.47933,0 -2.81685,-1.11221 -4.75172,-2.35748 -2.09831,-0.65312 -2.78295,1.62065 -4.53358,2.00873 -0.95477,0 -2.70555,0 -2.97484,0 l 3e-4,-31.18729 c 0.2693,0 2.02008,0 2.97485,0 1.75063,0.38808 2.43526,2.66185 4.53358,2.00873 1.93486,-1.24527 2.27239,-2.35748 4.75172,-2.35748 1.51952,0 2.41339,0.52955 3.03675,1.77625 0.73052,1.46107 1.01416,2.09243 3.13863,2.09243 3.03034,-0.36047 4.94114,-2.37303 8.02096,-2.32492 2.189,0.41002 3.34445,1.79433 4.0686,4.06861 0.67717,1.12863 1.58368,1.39494 3.02238,1.39494 1.43871,0 1.17682,3.5e-4 2.61553,3.5e-4 1.43871,0 2.34521,-0.26632 3.02239,-1.39494 0.72415,-2.27428 1.8796,-3.65859 4.0686,-4.0686 3.07982,-0.0481 4.99062,1.96443 8.02096,2.32491 2.12447,0 2.4081,-0.63136 3.13863,-2.09242 0.62336,-1.24672 1.51723,-1.77625 3.03675,-1.77625 2.47933,0 2.81686,1.1122 4.75172,2.35747 2.09832,0.65312 2.78295,-1.62066 4.53358,-2.00873 0.95477,0 2.5206,0 2.7899,0 z"
         style="fill:#c8cbc0;fill-opacity:1;fill-rule:evenodd;stroke:#73777a;stroke-width:0.76600832px;stroke-linecap:butt;stroke-linejoin:miter;stroke-opacity:1"
         id="path3263"
         inkscape:connector-curvature="0" />
      <g
         transform="matrix(0.7660083,0,0,0.7660083,395.14398,182.68066)"
         id="g4319">
        <g
           id="g4271"
           style="stroke:#73777a;stroke-opacity:1">
          <g
             id="g4253"
             style="stroke:#73777a;stroke-opacity:1">
            <path
               style="fill:none;fill-rule:evenodd;stroke:#73777a;stroke-width:1px;stroke-linecap:butt;stroke-linejoin:miter;stroke-opacity:1"
               d="m 438.42923,506.69425 c 1.0496,1.70924 1.25778,3.54864 7.57077,3.59575 l 4,0 c 2.30622,-0.0883 6.82783,-5.24692 12,-10 l 3.53654,3.89269 c -1.69103,-1.50503 -3.38205,-3.64218 -5.07308,-2.42923"
               id="path4246"
               transform="translate(5.5279208,5.095195)"
               sodipodi:nodetypes="cccccc"
               inkscape:connector-curvature="0" />
            <path
               style="fill:none;fill-rule:evenodd;stroke:#73777a;stroke-width:1px;stroke-linecap:butt;stroke-linejoin:miter;stroke-opacity:1"
               d="m 426.14043,497.8922 c 2.41544,-0.0888 6.85089,4.52581 10.14355,6.76974"
               id="path4248"
               transform="translate(5.5279208,5.095195)"
               sodipodi:nodetypes="cc"
               inkscape:connector-curvature="0" />
          </g>
          <path
             sodipodi:nodetypes="cccc"
             transform="translate(5.5279208,5.095195)"
             id="path4250"
             d="m 435,504.29 5,-4 c 3.27852,-1.76355 5.56978,-0.59735 7,3 0.80789,3.13684 -0.49617,6.45579 -3.53653,6.89269"
             style="fill:none;fill-rule:evenodd;stroke:#73777a;stroke-width:1px;stroke-linecap:butt;stroke-linejoin:miter;stroke-opacity:1"
             inkscape:connector-curvature="0" />
        </g>
        <path
           style="fill:none;fill-rule:evenodd;stroke:#73777a;stroke-width:1px;stroke-linecap:butt;stroke-linejoin:miter;stroke-opacity:1"
           d="m 431.66835,502.98739 c 2.41544,-0.0888 6.85089,4.52581 10.14355,6.76975"
           id="path4267"
           sodipodi:nodetypes="cc"
           inkscape:connector-curvature="0" />
        <path
           style="fill:none;fill-rule:evenodd;stroke:#73777a;stroke-width:1px;stroke-linecap:butt;stroke-linejoin:miter;stroke-opacity:1"
           d="m 416.62745,509.3852 -5,-4 c -3.27852,-1.76355 -5.56978,-0.59735 -7,3 -0.80789,3.13684 0.49617,6.45579 3.53653,6.89269"
           id="path4269"
           sodipodi:nodetypes="cccc"
           inkscape:connector-curvature="0" />
        <path
           id="path4265"
           style="fill:none;fill-rule:evenodd;stroke:#73777a;stroke-width:1px;stroke-linecap:butt;stroke-linejoin:miter;stroke-opacity:1"
           d="m 391.001,506.84866 c -1.69103,-1.21296 -3.38205,0.92419 -5.07308,2.42922 l 3.53654,-3.89268 c 5.17217,4.75307 9.69378,9.91168 12,10 l 4,0 c 6.31299,-0.0471 6.52117,-1.88651 7.57077,-3.59575 2.02962,-3.48323 4.91769,-2.36138 6.51808,-0.42924 2.96808,3.19333 4.04405,-0.48919 5.91115,-1.97501 1.8671,-1.48582 4.19636,-1.48582 6.06346,0 1.8671,1.48582 2.94307,5.16834 5.91115,1.97501 1.60039,-1.93214 4.48846,-3.05399 6.51808,0.42924 1.0496,1.70924 1.25778,3.54863 7.57077,3.59575 l 4,0 c 2.30622,-0.0883 6.82783,-5.24693 12,-10 l 3.53654,3.89268 c -1.69103,-1.50503 -3.38205,-3.64218 -5.07308,-2.42922"
           sodipodi:nodetypes="cccccccccccccccc"
           inkscape:connector-curvature="0" />
        <path
           style="fill:none;fill-rule:evenodd;stroke:#73777a;stroke-width:1px;stroke-linecap:butt;stroke-linejoin:miter;stroke-opacity:1"
           d="m 425.42747,502.98745 c -2.41544,-0.0888 -6.85089,4.52581 -10.14355,6.76975"
           id="path4309"
           sodipodi:nodetypes="cc"
           inkscape:connector-curvature="0" />
      </g>
      <g
         transform="matrix(0.7660083,0,0,-0.7660083,395.14398,972.4124)"
         id="g4330">
        <g
           id="g4332"
           style="stroke:#73777a;stroke-opacity:1">
          <g
             id="g4334"
             style="stroke:#73777a;stroke-opacity:1">
            <path
               style="fill:none;fill-rule:evenodd;stroke:#73777a;stroke-width:1px;stroke-linecap:butt;stroke-linejoin:miter;stroke-opacity:1"
               d="m 438.42923,506.69425 c 1.0496,1.70924 1.25778,3.54864 7.57077,3.59575 l 4,0 c 2.30622,-0.0883 6.82783,-5.24692 12,-10 l 3.53654,3.89269 c -1.69103,-1.50503 -3.38205,-3.64218 -5.07308,-2.42923"
               id="path4336"
               transform="translate(5.5279208,5.095195)"
               sodipodi:nodetypes="cccccc"
               inkscape:connector-curvature="0" />
            <path
               style="fill:none;fill-rule:evenodd;stroke:#73777a;stroke-width:1px;stroke-linecap:butt;stroke-linejoin:miter;stroke-opacity:1"
               d="m 426.14043,497.8922 c 2.41544,-0.0888 6.85089,4.52581 10.14355,6.76974"
               id="path4338"
               transform="translate(5.5279208,5.095195)"
               sodipodi:nodetypes="cc"
               inkscape:connector-curvature="0" />
          </g>
          <path
             sodipodi:nodetypes="cccc"
             transform="translate(5.5279208,5.095195)"
             id="path4340"
             d="m 435,504.29 5,-4 c 3.27852,-1.76355 5.56978,-0.59735 7,3 0.80789,3.13684 -0.49617,6.45579 -3.53653,6.89269"
             style="fill:none;fill-rule:evenodd;stroke:#73777a;stroke-width:1px;stroke-linecap:butt;stroke-linejoin:miter;stroke-opacity:1"
             inkscape:connector-curvature="0" />
        </g>
        <path
           style="fill:none;fill-rule:evenodd;stroke:#73777a;stroke-width:1px;stroke-linecap:butt;stroke-linejoin:miter;stroke-opacity:1"
           d="m 431.66835,502.98739 c 2.41544,-0.0888 6.85089,4.52581 10.14355,6.76975"
           id="path4342"
           sodipodi:nodetypes="cc"
           inkscape:connector-curvature="0" />
        <path
           style="fill:none;fill-rule:evenodd;stroke:#73777a;stroke-width:1px;stroke-linecap:butt;stroke-linejoin:miter;stroke-opacity:1"
           d="m 416.62745,509.3852 -5,-4 c -3.27852,-1.76355 -5.56978,-0.59735 -7,3 -0.80789,3.13684 0.49617,6.45579 3.53653,6.89269"
           id="path4344"
           sodipodi:nodetypes="cccc"
           inkscape:connector-curvature="0" />
        <path
           id="path4346"
           style="fill:none;fill-rule:evenodd;stroke:#73777a;stroke-width:1px;stroke-linecap:butt;stroke-linejoin:miter;stroke-opacity:1"
           d="m 391.001,506.84866 c -1.69103,-1.21296 -3.38205,0.92419 -5.07308,2.42922 l 3.53654,-3.89268 c 5.17217,4.75307 9.69378,9.91168 12,10 l 4,0 c 6.31299,-0.0471 6.52117,-1.88651 7.57077,-3.59575 2.02962,-3.48323 4.91769,-2.36138 6.51808,-0.42924 2.96808,3.19333 4.04405,-0.48919 5.91115,-1.97501 1.8671,-1.48582 4.19636,-1.48582 6.06346,0 1.8671,1.48582 2.94307,5.16834 5.91115,1.97501 1.60039,-1.93214 4.48846,-3.05399 6.51808,0.42924 1.0496,1.70924 1.25778,3.54863 7.57077,3.59575 l 4,0 c 2.30622,-0.0883 6.82783,-5.24693 12,-10 l 3.53654,3.89268 c -1.69103,-1.50503 -3.38205,-3.64218 -5.07308,-2.42922"
           sodipodi:nodetypes="cccccccccccccccc"
           inkscape:connector-curvature="0" />
        <path
           style="fill:none;fill-rule:evenodd;stroke:#73777a;stroke-width:1px;stroke-linecap:butt;stroke-linejoin:miter;stroke-opacity:1"
           d="m 425.42747,502.98745 c -2.41544,-0.0888 -6.85089,4.52581 -10.14355,6.76975"
           id="path4348"
           sodipodi:nodetypes="cc"
           inkscape:connector-curvature="0" />
      </g>
      <path
         id="text4354"
         d="m 708.37986,587.36061 -8.99179,0 0,-3.37346 c 10e-6,-0.68695 0.091,-1.23795 0.27295,-1.65299 0.18196,-0.41503 0.46206,-0.74011 0.84029,-0.97524 0.37824,-0.23511 0.77386,-0.35267 1.18684,-0.35267 0.38438,0 0.74626,0.10427 1.08564,0.3128 0.3394,0.20856 0.61336,0.52341 0.8219,0.94458 0.15947,-0.54384 0.4314,-0.96194 0.81576,-1.25432 0.38437,-0.29236 0.83826,-0.43854 1.36165,-0.43855 0.42117,1e-5 0.81269,0.0889 1.17458,0.26681 0.36188,0.17788 0.64095,0.39767 0.83722,0.65936 0.19628,0.2617 0.34451,0.58985 0.44469,0.98443 0.10018,0.3946 0.15027,0.87813 0.15027,1.45059 l 0,3.42866 z m -5.21352,-1.18991 0,-1.94434 c 10e-6,-0.52748 -0.0348,-0.90572 -0.10427,-1.13471 -0.0899,-0.30258 -0.2392,-0.53055 -0.44775,-0.68389 -0.20853,-0.15333 -0.47023,-0.23 -0.78509,-0.23 -0.2985,0 -0.56122,0.0716 -0.78816,0.21467 -0.22694,0.14312 -0.38233,0.34757 -0.46616,0.61335 -0.0838,0.2658 -0.12572,0.72173 -0.12573,1.36778 l 0,1.79714 2.71716,0 z m 4.15242,0 0,-2.23875 c 0,-0.38436 -0.0143,-0.65424 -0.0429,-0.80963 -0.0491,-0.27396 -0.13085,-0.50295 -0.24534,-0.68696 -0.11449,-0.184 -0.28112,-0.33529 -0.49988,-0.45388 -0.21877,-0.11858 -0.47127,-0.17787 -0.7575,-0.17787 -0.3353,0 -0.62664,0.0859 -0.87403,0.25761 -0.24739,0.17174 -0.42117,0.40992 -0.52136,0.71456 -0.10017,0.30463 -0.15026,0.74318 -0.15026,1.31564 l 0,2.07928 3.09131,0 z m -6.75305,-6.87572 -1.0611,0 0,-5.82074 0.8587,0 c 0.60927,0.57247 1.4189,1.13983 2.42888,1.70206 1.01,0.56225 2.04861,0.99671 3.11585,1.30338 0.75239,0.22081 1.57632,0.36189 2.47182,0.42322 l 0,1.1347 c -0.7074,-0.0123 -1.56201,-0.15129 -2.56383,-0.41708 -1.00181,-0.26578 -1.96784,-0.64709 -2.8981,-1.1439 -0.93025,-0.49682 -1.71432,-1.02533 -2.35222,-1.58553 l 0,4.40389 z m 0,-6.99225 -1.0611,0 0,-5.82074 0.8587,0 c 0.60927,0.57247 1.4189,1.13982 2.42888,1.70206 1.01,0.56225 2.04861,0.9967 3.11585,1.30338 0.75239,0.22081 1.57632,0.36188 2.47182,0.42322 l 0,1.1347 c -0.7074,-0.0123 -1.56201,-0.15129 -2.56383,-0.41708 -1.00181,-0.26579 -1.96784,-0.64708 -2.8981,-1.14391 -0.93025,-0.49681 -1.71432,-1.02532 -2.35222,-1.58552 l 0,4.40389 z"
         style="font-style:normal;font-weight:normal;font-size:16.3986702px;font-family:'Book Antiqua';writing-mode:lr-tb;fill:#4d4d4d;fill-opacity:1;stroke:none;stroke-width:1px;stroke-linecap:butt;stroke-linejoin:miter;stroke-opacity:1"
         inkscape:connector-curvature="0" />
      <path
         sodipodi:nodetypes="ccccsscccsscccssccccccsscccsscccssccc"
         d="m 758.17118,529.05494 -2.8e-4,24.39623 c -0.2693,0 -1.83513,0 -2.7899,0 -1.75063,-0.38807 -2.43526,-2.66185 -4.53358,-2.00873 -1.93486,1.24527 -2.27239,2.35747 -4.75172,2.35747 -1.51952,0 -2.41339,-0.52953 -3.03675,-1.77625 -0.73053,-1.46106 -1.01416,-2.09242 -3.13863,-2.09242 -3.03034,0.36048 -4.94114,2.37303 -8.02096,2.32491 -2.189,-0.41001 -3.34445,-1.79433 -4.0686,-4.0686 -0.67718,-1.12863 -1.58368,-1.39494 -3.02239,-1.39494 -1.43871,0 -1.17682,3.5e-4 -2.61552,3.5e-4 -1.43871,0 -2.34522,0.26631 -3.02239,1.39494 -0.72415,2.27428 -1.8796,3.65859 -4.0686,4.06861 -3.07982,0.0481 -4.99062,-1.96445 -8.02096,-2.32492 -2.12447,0 -2.4081,0.63135 -3.13863,2.09242 -0.62336,1.24671 -1.51723,1.77625 -3.03675,1.77625 -2.47933,0 -2.81686,-1.1122 -4.75172,-2.35747 -2.09832,-0.65312 -2.78295,1.62065 -4.53358,2.00873 -0.95477,0 -2.70555,0 -2.97485,0 l 2.7e-4,-24.57233 c 0.24728,-3.8969 2.35116,-5.87517 3.05709,-6.53276 1.75062,0.38808 2.35306,2.57965 4.45138,1.92653 1.93486,-1.24527 2.27239,-2.35748 4.75172,-2.35748 1.51952,0 2.41338,0.52954 3.03674,1.77625 0.73053,1.46107 1.01417,2.09242 3.13864,2.09242 3.03034,-0.36046 4.94114,-2.37302 8.02096,-2.32491 2.189,0.41002 3.34444,1.79433 4.0686,4.06861 0.67717,1.12863 1.58367,1.39494 3.02238,1.39494 1.43871,0 1.17682,3.5e-4 2.61553,3.5e-4 1.43871,0 2.34521,-0.26632 3.02239,-1.39495 0.72415,-2.27427 1.8796,-3.65858 4.06859,-4.0686 3.07983,-0.0481 4.99063,1.96444 8.02096,2.32492 2.12447,0 2.40811,-0.63136 3.13864,-2.09242 0.62336,-1.24672 1.51722,-1.77626 3.03675,-1.77626 2.47933,0 2.81685,1.11221 4.75171,2.35748 2.09832,0.65312 2.53636,-1.41516 4.28699,-1.80324 1.94102,1.60386 2.88934,4.03746 3.03647,6.58487 z"
         style="fill:#c8cbc0;fill-opacity:1;fill-rule:evenodd;stroke:#73777a;stroke-width:0.76600832px;stroke-linecap:butt;stroke-linejoin:miter;stroke-opacity:1"
         id="path4385"
         inkscape:connector-curvature="0" />
      <g
         transform="matrix(0.7660083,0,0,0.7660083,395.14432,143.10154)"
         id="g4387">
        <g
           id="g4389"
           style="stroke:#73777a;stroke-opacity:1">
          <g
             id="g4391"
             style="stroke:#73777a;stroke-opacity:1">
            <path
               style="fill:none;fill-rule:evenodd;stroke:#73777a;stroke-width:1px;stroke-linecap:butt;stroke-linejoin:miter;stroke-opacity:1"
               d="m 438.42923,506.69425 c 1.0496,1.70924 1.25778,3.54864 7.57077,3.59575 l 4,0 c 2.30622,-0.0883 6.82783,-5.24692 12,-10 l 3.53654,3.89269 c -1.69103,-1.50503 -3.38205,-3.64218 -5.07308,-2.42923"
               id="path4393"
               transform="translate(5.5279208,5.095195)"
               sodipodi:nodetypes="cccccc"
               inkscape:connector-curvature="0" />
            <path
               style="fill:none;fill-rule:evenodd;stroke:#73777a;stroke-width:1px;stroke-linecap:butt;stroke-linejoin:miter;stroke-opacity:1"
               d="m 426.14043,497.8922 c 2.41544,-0.0888 6.85089,4.52581 10.14355,6.76974"
               id="path4395"
               transform="translate(5.5279208,5.095195)"
               sodipodi:nodetypes="cc"
               inkscape:connector-curvature="0" />
          </g>
          <path
             sodipodi:nodetypes="cccc"
             transform="translate(5.5279208,5.095195)"
             id="path4397"
             d="m 435,504.29 5,-4 c 3.27852,-1.76355 5.56978,-0.59735 7,3 0.80789,3.13684 -0.49617,6.45579 -3.53653,6.89269"
             style="fill:none;fill-rule:evenodd;stroke:#73777a;stroke-width:1px;stroke-linecap:butt;stroke-linejoin:miter;stroke-opacity:1"
             inkscape:connector-curvature="0" />
        </g>
        <path
           style="fill:none;fill-rule:evenodd;stroke:#73777a;stroke-width:1px;stroke-linecap:butt;stroke-linejoin:miter;stroke-opacity:1"
           d="m 431.66835,502.98739 c 2.41544,-0.0888 6.85089,4.52581 10.14355,6.76975"
           id="path4399"
           sodipodi:nodetypes="cc"
           inkscape:connector-curvature="0" />
        <path
           style="fill:none;fill-rule:evenodd;stroke:#73777a;stroke-width:1px;stroke-linecap:butt;stroke-linejoin:miter;stroke-opacity:1"
           d="m 416.62745,509.3852 -5,-4 c -3.27852,-1.76355 -5.56978,-0.59735 -7,3 -0.80789,3.13684 0.49617,6.45579 3.53653,6.89269"
           id="path4401"
           sodipodi:nodetypes="cccc"
           inkscape:connector-curvature="0" />
        <path
           id="path4403"
           style="fill:none;fill-rule:evenodd;stroke:#73777a;stroke-width:1px;stroke-linecap:butt;stroke-linejoin:miter;stroke-opacity:1"
           d="m 391.001,506.84866 c -1.69103,-1.21296 -3.38205,0.92419 -5.07308,2.42922 l 3.53654,-3.89268 c 5.17217,4.75307 9.69378,9.91168 12,10 l 4,0 c 6.31299,-0.0471 6.52117,-1.88651 7.57077,-3.59575 2.02962,-3.48323 4.91769,-2.36138 6.51808,-0.42924 2.96808,3.19333 4.04405,-0.48919 5.91115,-1.97501 1.8671,-1.48582 4.19636,-1.48582 6.06346,0 1.8671,1.48582 2.94307,5.16834 5.91115,1.97501 1.60039,-1.93214 4.48846,-3.05399 6.51808,0.42924 1.0496,1.70924 1.25778,3.54863 7.57077,3.59575 l 4,0 c 2.30622,-0.0883 6.82783,-5.24693 12,-10 l 3.53654,3.89268 c -1.69103,-1.50503 -3.38205,-3.64218 -5.07308,-2.42922"
           sodipodi:nodetypes="cccccccccccccccc"
           inkscape:connector-curvature="0" />
        <path
           style="fill:none;fill-rule:evenodd;stroke:#73777a;stroke-width:1px;stroke-linecap:butt;stroke-linejoin:miter;stroke-opacity:1"
           d="m 425.42747,502.98745 c -2.41544,-0.0888 -6.85089,4.52581 -10.14355,6.76975"
           id="path4405"
           sodipodi:nodetypes="cc"
           inkscape:connector-curvature="0" />
      </g>
      <g
         transform="matrix(0.7660083,0,0,-0.7660083,395.14432,932.83328)"
         id="g4407">
        <g
           id="g4409"
           style="stroke:#73777a;stroke-opacity:1">
          <g
             id="g4411"
             style="stroke:#73777a;stroke-opacity:1">
            <path
               style="fill:none;fill-rule:evenodd;stroke:#73777a;stroke-width:1px;stroke-linecap:butt;stroke-linejoin:miter;stroke-opacity:1"
               d="m 438.42923,506.69425 c 1.0496,1.70924 1.25778,3.54864 7.57077,3.59575 l 4,0 c 2.30622,-0.0883 6.82783,-5.24692 12,-10 l 3.53654,3.89269 c -1.69103,-1.50503 -3.38205,-3.64218 -5.07308,-2.42923"
               id="path4413"
               transform="translate(5.5279208,5.095195)"
               sodipodi:nodetypes="cccccc"
               inkscape:connector-curvature="0" />
            <path
               style="fill:none;fill-rule:evenodd;stroke:#73777a;stroke-width:1px;stroke-linecap:butt;stroke-linejoin:miter;stroke-opacity:1"
               d="m 426.14043,497.8922 c 2.41544,-0.0888 6.85089,4.52581 10.14355,6.76974"
               id="path4415"
               transform="translate(5.5279208,5.095195)"
               sodipodi:nodetypes="cc"
               inkscape:connector-curvature="0" />
          </g>
          <path
             sodipodi:nodetypes="cccc"
             transform="translate(5.5279208,5.095195)"
             id="path4417"
             d="m 435,504.29 5,-4 c 3.27852,-1.76355 5.56978,-0.59735 7,3 0.80789,3.13684 -0.49617,6.45579 -3.53653,6.89269"
             style="fill:none;fill-rule:evenodd;stroke:#73777a;stroke-width:1px;stroke-linecap:butt;stroke-linejoin:miter;stroke-opacity:1"
             inkscape:connector-curvature="0" />
        </g>
        <path
           style="fill:none;fill-rule:evenodd;stroke:#73777a;stroke-width:1px;stroke-linecap:butt;stroke-linejoin:miter;stroke-opacity:1"
           d="m 431.66835,502.98739 c 2.41544,-0.0888 6.85089,4.52581 10.14355,6.76975"
           id="path4419"
           sodipodi:nodetypes="cc"
           inkscape:connector-curvature="0" />
        <path
           style="fill:none;fill-rule:evenodd;stroke:#73777a;stroke-width:1px;stroke-linecap:butt;stroke-linejoin:miter;stroke-opacity:1"
           d="m 416.62745,509.3852 -5,-4 c -3.27852,-1.76355 -5.56978,-0.59735 -7,3 -0.80789,3.13684 0.49617,6.45579 3.53653,6.89269"
           id="path4421"
           sodipodi:nodetypes="cccc"
           inkscape:connector-curvature="0" />
        <path
           id="path4423"
           style="fill:none;fill-rule:evenodd;stroke:#73777a;stroke-width:1px;stroke-linecap:butt;stroke-linejoin:miter;stroke-opacity:1"
           d="m 391.001,506.84866 c -1.69103,-1.21296 -3.38205,0.92419 -5.07308,2.42922 l 3.53654,-3.89268 c 5.17217,4.75307 9.69378,9.91168 12,10 l 4,0 c 6.31299,-0.0471 6.52117,-1.88651 7.57077,-3.59575 2.02962,-3.48323 4.91769,-2.36138 6.51808,-0.42924 2.96808,3.19333 4.04405,-0.48919 5.91115,-1.97501 1.8671,-1.48582 4.19636,-1.48582 6.06346,0 1.8671,1.48582 2.94307,5.16834 5.91115,1.97501 1.60039,-1.93214 4.48846,-3.05399 6.51808,0.42924 1.0496,1.70924 1.25778,3.54863 7.57077,3.59575 l 4,0 c 2.30622,-0.0883 6.82783,-5.24693 12,-10 l 3.53654,3.89268 c -1.69103,-1.50503 -3.38205,-3.64218 -5.07308,-2.42922"
           sodipodi:nodetypes="cccccccccccccccc"
           inkscape:connector-curvature="0" />
        <path
           style="fill:none;fill-rule:evenodd;stroke:#73777a;stroke-width:1px;stroke-linecap:butt;stroke-linejoin:miter;stroke-opacity:1"
           d="m 425.42747,502.98745 c -2.41544,-0.0888 -6.85089,4.52581 -10.14355,6.76975"
           id="path4425"
           sodipodi:nodetypes="cc"
           inkscape:connector-curvature="0" />
      </g>
      <path
         sodipodi:nodetypes="ccccsscccsscccssccccccsscccsscccssccc"
         d="m 758.17121,601.74951 -2.8e-4,22.29271 c 0.16919,3.61906 -1.01006,6.30742 -3.54553,8.5742 -1.75063,-0.38808 -1.67966,-2.34217 -3.77798,-1.68905 -1.93486,1.24526 -2.27239,2.35747 -4.75172,2.35747 -1.51952,0 -2.41339,-0.52954 -3.03675,-1.77625 -0.73053,-1.46106 -1.01416,-2.09243 -3.13863,-2.09243 -3.03034,0.36048 -4.94114,2.37304 -8.02096,2.32492 -2.189,-0.41001 -3.34445,-1.79433 -4.0686,-4.0686 -0.67718,-1.12863 -1.58368,-1.39494 -3.02239,-1.39494 -1.43871,0 -1.17682,3.5e-4 -2.61552,3.5e-4 -1.43871,0 -2.34522,0.26631 -3.02239,1.39494 -0.72415,2.27427 -1.8796,3.65858 -4.0686,4.0686 -3.07982,0.0481 -4.99062,-1.96445 -8.02096,-2.32491 -2.12447,0 -2.4081,0.63136 -3.13863,2.09242 -0.62336,1.24671 -1.51723,1.77626 -3.03675,1.77626 -2.47933,0 -2.81686,-1.11221 -4.75172,-2.35749 -2.09832,-0.65311 -1.99829,1.44628 -3.74892,1.83436 -3.19768,-2.60906 -3.80908,-6.00279 -3.75948,-7.8272 l 2.8e-4,-23.18571 c 0.2693,0 2.02008,0 2.97485,0 1.75062,0.38808 2.43526,2.66185 4.53358,2.00872 1.93486,-1.24526 2.27239,-2.35747 4.75172,-2.35747 1.51952,0 2.41338,0.52954 3.03674,1.77625 0.73053,1.46107 1.01417,2.09242 3.13864,2.09242 3.03034,-0.36047 4.94114,-2.37303 8.02096,-2.32492 2.189,0.41002 3.34444,1.79433 4.0686,4.06862 0.67717,1.12863 1.58367,1.39494 3.02238,1.39494 1.43871,0 1.17682,3.5e-4 2.61553,3.5e-4 1.43871,0 2.34521,-0.26632 3.02239,-1.39495 0.72415,-2.27427 1.8796,-3.65858 4.06859,-4.0686 3.07983,-0.0481 4.99063,1.96443 8.02096,2.32492 2.12447,0 2.40811,-0.63136 3.13864,-2.09242 0.62336,-1.24673 1.51722,-1.77626 3.03675,-1.77626 2.47933,0 2.81685,1.11221 4.75171,2.35748 2.09832,0.65312 2.78296,-1.62066 4.53359,-2.00873 0.95476,0 2.5206,0 2.7899,0 z"
         style="fill:#c8cbc0;fill-opacity:1;fill-rule:evenodd;stroke:#73777a;stroke-width:0.76600832px;stroke-linecap:butt;stroke-linejoin:miter;stroke-opacity:1"
         id="path4431"
         inkscape:connector-curvature="0" />
      <g
         transform="matrix(0.7660083,0,0,0.7660083,395.14432,222.58647)"
         id="g4433">
        <g
           id="g4435"
           style="stroke:#73777a;stroke-opacity:1">
          <g
             id="g4437"
             style="stroke:#73777a;stroke-opacity:1">
            <path
               style="fill:none;fill-rule:evenodd;stroke:#73777a;stroke-width:1px;stroke-linecap:butt;stroke-linejoin:miter;stroke-opacity:1"
               d="m 438.42923,506.69425 c 1.0496,1.70924 1.25778,3.54864 7.57077,3.59575 l 4,0 c 2.30622,-0.0883 6.82783,-5.24692 12,-10 l 3.53654,3.89269 c -1.69103,-1.50503 -3.38205,-3.64218 -5.07308,-2.42923"
               id="path4439"
               transform="translate(5.5279208,5.095195)"
               sodipodi:nodetypes="cccccc"
               inkscape:connector-curvature="0" />
            <path
               style="fill:none;fill-rule:evenodd;stroke:#73777a;stroke-width:1px;stroke-linecap:butt;stroke-linejoin:miter;stroke-opacity:1"
               d="m 426.14043,497.8922 c 2.41544,-0.0888 6.85089,4.52581 10.14355,6.76974"
               id="path4441"
               transform="translate(5.5279208,5.095195)"
               sodipodi:nodetypes="cc"
               inkscape:connector-curvature="0" />
          </g>
          <path
             sodipodi:nodetypes="cccc"
             transform="translate(5.5279208,5.095195)"
             id="path4443"
             d="m 435,504.29 5,-4 c 3.27852,-1.76355 5.56978,-0.59735 7,3 0.80789,3.13684 -0.49617,6.45579 -3.53653,6.89269"
             style="fill:none;fill-rule:evenodd;stroke:#73777a;stroke-width:1px;stroke-linecap:butt;stroke-linejoin:miter;stroke-opacity:1"
             inkscape:connector-curvature="0" />
        </g>
        <path
           style="fill:none;fill-rule:evenodd;stroke:#73777a;stroke-width:1px;stroke-linecap:butt;stroke-linejoin:miter;stroke-opacity:1"
           d="m 431.66835,502.98739 c 2.41544,-0.0888 6.85089,4.52581 10.14355,6.76975"
           id="path4445"
           sodipodi:nodetypes="cc"
           inkscape:connector-curvature="0" />
        <path
           style="fill:none;fill-rule:evenodd;stroke:#73777a;stroke-width:1px;stroke-linecap:butt;stroke-linejoin:miter;stroke-opacity:1"
           d="m 416.62745,509.3852 -5,-4 c -3.27852,-1.76355 -5.56978,-0.59735 -7,3 -0.80789,3.13684 0.49617,6.45579 3.53653,6.89269"
           id="path4447"
           sodipodi:nodetypes="cccc"
           inkscape:connector-curvature="0" />
        <path
           id="path4449"
           style="fill:none;fill-rule:evenodd;stroke:#73777a;stroke-width:1px;stroke-linecap:butt;stroke-linejoin:miter;stroke-opacity:1"
           d="m 391.001,506.84866 c -1.69103,-1.21296 -3.38205,0.92419 -5.07308,2.42922 l 3.53654,-3.89268 c 5.17217,4.75307 9.69378,9.91168 12,10 l 4,0 c 6.31299,-0.0471 6.52117,-1.88651 7.57077,-3.59575 2.02962,-3.48323 4.91769,-2.36138 6.51808,-0.42924 2.96808,3.19333 4.04405,-0.48919 5.91115,-1.97501 1.8671,-1.48582 4.19636,-1.48582 6.06346,0 1.8671,1.48582 2.94307,5.16834 5.91115,1.97501 1.60039,-1.93214 4.48846,-3.05399 6.51808,0.42924 1.0496,1.70924 1.25778,3.54863 7.57077,3.59575 l 4,0 c 2.30622,-0.0883 6.82783,-5.24693 12,-10 l 3.53654,3.89268 c -1.69103,-1.50503 -3.38205,-3.64218 -5.07308,-2.42922"
           sodipodi:nodetypes="cccccccccccccccc"
           inkscape:connector-curvature="0" />
        <path
           style="fill:none;fill-rule:evenodd;stroke:#73777a;stroke-width:1px;stroke-linecap:butt;stroke-linejoin:miter;stroke-opacity:1"
           d="m 425.42747,502.98745 c -2.41544,-0.0888 -6.85089,4.52581 -10.14355,6.76975"
           id="path4451"
           sodipodi:nodetypes="cc"
           inkscape:connector-curvature="0" />
      </g>
      <g
         transform="matrix(0.7660083,0,0,-0.7660083,395.14432,1012.3182)"
         id="g4453">
        <g
           id="g4455"
           style="stroke:#73777a;stroke-opacity:1">
          <g
             id="g4457"
             style="stroke:#73777a;stroke-opacity:1">
            <path
               style="fill:none;fill-rule:evenodd;stroke:#73777a;stroke-width:1px;stroke-linecap:butt;stroke-linejoin:miter;stroke-opacity:1"
               d="m 438.42923,506.69425 c 1.0496,1.70924 1.25778,3.54864 7.57077,3.59575 l 4,0 c 2.30622,-0.0883 6.82783,-5.24692 12,-10 l 3.53654,3.89269 c -1.69103,-1.50503 -3.38205,-3.64218 -5.07308,-2.42923"
               id="path4459"
               transform="translate(5.5279208,5.095195)"
               sodipodi:nodetypes="cccccc"
               inkscape:connector-curvature="0" />
            <path
               style="fill:none;fill-rule:evenodd;stroke:#73777a;stroke-width:1px;stroke-linecap:butt;stroke-linejoin:miter;stroke-opacity:1"
               d="m 426.14043,497.8922 c 2.41544,-0.0888 6.85089,4.52581 10.14355,6.76974"
               id="path4461"
               transform="translate(5.5279208,5.095195)"
               sodipodi:nodetypes="cc"
               inkscape:connector-curvature="0" />
          </g>
          <path
             sodipodi:nodetypes="cccc"
             transform="translate(5.5279208,5.095195)"
             id="path4463"
             d="m 435,504.29 5,-4 c 3.27852,-1.76355 5.56978,-0.59735 7,3 0.80789,3.13684 -0.49617,6.45579 -3.53653,6.89269"
             style="fill:none;fill-rule:evenodd;stroke:#73777a;stroke-width:1px;stroke-linecap:butt;stroke-linejoin:miter;stroke-opacity:1"
             inkscape:connector-curvature="0" />
        </g>
        <path
           style="fill:none;fill-rule:evenodd;stroke:#73777a;stroke-width:1px;stroke-linecap:butt;stroke-linejoin:miter;stroke-opacity:1"
           d="m 431.66835,502.98739 c 2.41544,-0.0888 6.85089,4.52581 10.14355,6.76975"
           id="path4465"
           sodipodi:nodetypes="cc"
           inkscape:connector-curvature="0" />
        <path
           style="fill:none;fill-rule:evenodd;stroke:#73777a;stroke-width:1px;stroke-linecap:butt;stroke-linejoin:miter;stroke-opacity:1"
           d="m 416.62745,509.3852 -5,-4 c -3.27852,-1.76355 -5.56978,-0.59735 -7,3 -0.80789,3.13684 0.49617,6.45579 3.53653,6.89269"
           id="path4467"
           sodipodi:nodetypes="cccc"
           inkscape:connector-curvature="0" />
        <path
           id="path4469"
           style="fill:none;fill-rule:evenodd;stroke:#73777a;stroke-width:1px;stroke-linecap:butt;stroke-linejoin:miter;stroke-opacity:1"
           d="m 391.001,506.84866 c -1.69103,-1.21296 -3.38205,0.92419 -5.07308,2.42922 l 3.53654,-3.89268 c 5.17217,4.75307 9.69378,9.91168 12,10 l 4,0 c 6.31299,-0.0471 6.52117,-1.88651 7.57077,-3.59575 2.02962,-3.48323 4.91769,-2.36138 6.51808,-0.42924 2.96808,3.19333 4.04405,-0.48919 5.91115,-1.97501 1.8671,-1.48582 4.19636,-1.48582 6.06346,0 1.8671,1.48582 2.94307,5.16834 5.91115,1.97501 1.60039,-1.93214 4.48846,-3.05399 6.51808,0.42924 1.0496,1.70924 1.25778,3.54863 7.57077,3.59575 l 4,0 c 2.30622,-0.0883 6.82783,-5.24693 12,-10 l 3.53654,3.89268 c -1.69103,-1.50503 -3.38205,-3.64218 -5.07308,-2.42922"
           sodipodi:nodetypes="cccccccccccccccc"
           inkscape:connector-curvature="0" />
        <path
           style="fill:none;fill-rule:evenodd;stroke:#73777a;stroke-width:1px;stroke-linecap:butt;stroke-linejoin:miter;stroke-opacity:1"
           d="m 425.42747,502.98745 c -2.41544,-0.0888 -6.85089,4.52581 -10.14355,6.76975"
           id="path4471"
           sodipodi:nodetypes="cc"
           inkscape:connector-curvature="0" />
      </g>
      <path
         id="text3259"
         d="m 708.41647,544.03782 -2.15288,0 0,3.90094 -1.01204,0 -5.82687,-4.10334 0,-0.90164 5.82687,0 0,-1.21444 1.01204,0 0,1.21444 2.15288,0 0,1.10404 z m -3.16492,0 -4.05427,0 4.05427,2.8153 0,-2.8153 z m 1.08564,-3.61879 -0.0981,-1.06111 c 0.49886,-0.09 0.86074,-0.2617 1.08563,-0.51522 0.2249,-0.25351 0.33735,-0.57859 0.33735,-0.97523 0,-0.33939 -0.0777,-0.63687 -0.23308,-0.89243 -0.15538,-0.25557 -0.36289,-0.46513 -0.62255,-0.6287 -0.25965,-0.16355 -0.61028,-0.30053 -1.0519,-0.41094 -0.44162,-0.1104 -0.89141,-0.16561 -1.34939,-0.16561 -0.0491,0 -0.12266,0.002 -0.2208,0.006 0.35166,0.22082 0.63687,0.52238 0.85562,0.9047 0.21877,0.38233 0.32815,0.79634 0.32815,1.24205 0,0.7442 -0.26987,1.37392 -0.80963,1.88913 -0.53974,0.51522 -1.25124,0.77283 -2.13447,0.77283 -0.91185,0 -1.64583,-0.26885 -2.20195,-0.80656 -0.5561,-0.53771 -0.83415,-1.21137 -0.83417,-2.02101 2e-5,-0.58473 0.15744,-1.11937 0.47229,-1.60392 0.31486,-0.48455 0.76364,-0.85256 1.34632,-1.10404 0.58269,-0.25147 1.42605,-0.37721 2.53008,-0.37721 1.14903,0 2.06395,0.12472 2.74477,0.37414 0.68083,0.24943 1.19911,0.62052 1.55485,1.11324 0.35575,0.49273 0.53363,1.07031 0.53363,1.73273 0,0.70331 -0.19526,1.27783 -0.58576,1.72353 -0.3905,0.4457 -0.93946,0.71354 -1.64686,0.8035 l 0,0 z m -3.9684,-4.52043 c -0.6338,0 -1.13675,0.16867 -1.50886,0.50601 -0.37209,0.33735 -0.55815,0.74319 -0.55815,1.21751 0,0.49069 0.20037,0.91799 0.60108,1.28192 0.40074,0.36392 0.92005,0.54589 1.55793,0.54589 0.57247,0 1.03759,-0.17277 1.39538,-0.51829 0.35779,-0.34553 0.53669,-0.7718 0.53669,-1.27885 0,-0.51112 -0.1789,-0.93127 -0.53669,-1.26045 -0.35779,-0.32916 -0.85358,-0.49374 -1.48738,-0.49374 l 0,0 z m 3.9684,-2.47183 -0.0981,-1.0611 c 0.49886,-0.09 0.86074,-0.2617 1.08563,-0.51522 0.2249,-0.25352 0.33735,-0.5786 0.33735,-0.97524 0,-0.33938 -0.0777,-0.63686 -0.23308,-0.89243 -0.15538,-0.25556 -0.36289,-0.46512 -0.62255,-0.62869 -0.25965,-0.16355 -0.61028,-0.30054 -1.0519,-0.41095 -0.44162,-0.1104 -0.89141,-0.16559 -1.34939,-0.1656 -0.0491,10e-6 -0.12266,0.002 -0.2208,0.006 0.35166,0.22081 0.63687,0.52238 0.85562,0.90471 0.21877,0.38232 0.32815,0.79634 0.32815,1.24204 0,0.7442 -0.26987,1.37391 -0.80963,1.88913 -0.53974,0.51522 -1.25124,0.77283 -2.13447,0.77283 -0.91185,0 -1.64583,-0.26886 -2.20195,-0.80657 -0.5561,-0.5377 -0.83415,-1.21137 -0.83417,-2.021 2e-5,-0.58473 0.15744,-1.11937 0.47229,-1.60392 0.31486,-0.48455 0.76364,-0.85256 1.34632,-1.10404 0.58269,-0.25148 1.42605,-0.37721 2.53008,-0.37722 1.14903,1e-5 2.06395,0.12472 2.74477,0.37415 0.68083,0.24944 1.19911,0.62052 1.55485,1.11324 0.35575,0.49273 0.53363,1.07031 0.53363,1.73273 0,0.70332 -0.19526,1.27782 -0.58576,1.72352 -0.3905,0.44571 -0.93946,0.71354 -1.64686,0.8035 l 0,0 z m -3.9684,-4.52043 c -0.6338,10e-6 -1.13675,0.16868 -1.50886,0.50602 -0.37209,0.33735 -0.55815,0.74319 -0.55815,1.21751 0,0.49069 0.20037,0.91799 0.60108,1.28191 0.40074,0.36393 0.92005,0.54589 1.55793,0.54589 0.57247,0 1.03759,-0.17276 1.39538,-0.51829 0.35779,-0.34551 0.53669,-0.7718 0.53669,-1.27884 0,-0.51113 -0.1789,-0.93128 -0.53669,-1.26044 -0.35779,-0.32917 -0.85358,-0.49375 -1.48738,-0.49376 l 0,0 z"
         style="font-style:normal;font-weight:normal;font-size:16.3986702px;font-family:'Book Antiqua';writing-mode:lr-tb;fill:#4d4d4d;fill-opacity:1;stroke:none;stroke-width:1px;stroke-linecap:butt;stroke-linejoin:miter;stroke-opacity:1"
         inkscape:connector-curvature="0" />
      <path
         id="text4350"
         d="m 708.41647,628.28767 -8.99179,-3.45319 0,-1.28191 8.99179,-3.68013 0,1.35552 -2.7233,1.04883 0,3.75988 2.7233,0.9875 0,1.2635 z m -3.6924,-2.59449 0,-3.04838 -2.49022,0.93844 c -0.75647,0.28623 -1.37801,0.49886 -1.8646,0.63789 0.57655,0.1145 1.14902,0.27601 1.71739,0.48455 l 2.63743,0.9875 z m 1.33712,-6.33596 -0.0982,-1.15924 c 0.56429,-0.0859 0.98853,-0.28521 1.27272,-0.59802 0.28419,-0.31281 0.42628,-0.69002 0.42628,-1.13164 0,-0.53157 -0.20036,-0.98137 -0.60108,-1.34939 -0.40073,-0.368 -0.9323,-0.55201 -1.59473,-0.55201 -0.62971,0 -1.12653,0.17685 -1.49046,0.53055 -0.36391,0.3537 -0.54588,0.81679 -0.54588,1.38925 0,0.35575 0.0808,0.67673 0.24228,0.96297 0.16152,0.28623 0.37108,0.51113 0.62868,0.67468 l -0.13494,1.03658 -4.61856,-0.87097 0,-4.47135 1.05497,0 0,3.58812 2.41662,0.48455 c -0.37618,-0.53974 -0.56428,-1.10608 -0.56428,-1.69899 0,-0.78509 0.27192,-1.44752 0.81576,-1.98727 0.54384,-0.53975 1.24307,-0.80963 2.09767,-0.80963 0.81372,0 1.51704,0.23717 2.10994,0.71149 0.72786,0.57656 1.09178,1.3637 1.09178,2.36142 0,0.81781 -0.22899,1.48534 -0.68696,2.0026 -0.45797,0.51727 -1.06519,0.8127 -1.82166,0.8863 l 0,0 z m -4.43456,-12.72099 0.0859,1.09791 c -0.43343,0.0981 -0.74829,0.23717 -0.94456,0.41708 -0.31485,0.2985 -0.47228,0.66651 -0.47229,1.10404 1e-5,0.35166 0.0981,0.66038 0.29441,0.92617 0.25353,0.34757 0.62359,0.62153 1.11017,0.82189 0.48661,0.20037 1.1797,0.30464 2.07928,0.31281 -0.40481,-0.26578 -0.70535,-0.59086 -0.90163,-0.97524 -0.19627,-0.38436 -0.29441,-0.78713 -0.29441,-1.2083 0,-0.73602 0.2709,-1.36267 0.8127,-1.87993 0.5418,-0.51727 1.24204,-0.77589 2.10074,-0.7759 0.56429,10e-6 1.0887,0.12166 1.57326,0.36495 0.48454,0.2433 0.85563,0.57757 1.11324,1.00283 0.2576,0.42527 0.38641,0.90777 0.38641,1.44752 0,0.92004 -0.33837,1.67037 -1.01511,2.25102 -0.67673,0.58064 -1.79201,0.87096 -3.34585,0.87095 -1.73783,10e-6 -3.00135,-0.32098 -3.79053,-0.96296 -0.68695,-0.5602 -1.03043,-1.31462 -1.03045,-2.26328 2e-5,-0.7074 0.19833,-1.28702 0.59496,-1.73886 0.39665,-0.45184 0.94457,-0.72274 1.6438,-0.8127 l 0,0 z m 3.8764,4.50816 c 0.38028,0 0.7442,-0.0808 1.09177,-0.24227 0.34757,-0.16151 0.61233,-0.38743 0.7943,-0.67776 0.18196,-0.29032 0.27294,-0.59495 0.27294,-0.9139 0,-0.46615 -0.18809,-0.86687 -0.56428,-1.20217 -0.3762,-0.3353 -0.88733,-0.50295 -1.53339,-0.50296 -0.62153,10e-6 -1.1112,0.16561 -1.46899,0.49682 -0.35779,0.33122 -0.53668,0.7483 -0.53668,1.25124 0,0.49887 0.17889,0.92209 0.53668,1.26965 0.35779,0.34757 0.82701,0.52135 1.40765,0.52135 l 0,0 z"
         style="font-style:normal;font-weight:normal;font-size:16.3986702px;font-family:'Book Antiqua';writing-mode:lr-tb;fill:#4d4d4d;fill-opacity:1;stroke:none;stroke-width:1px;stroke-linecap:butt;stroke-linejoin:miter;stroke-opacity:1"
         inkscape:connector-curvature="0" />
      <path
         sodipodi:nodetypes="cc"
         id="path4545"
         d="m 688.35176,559.69853 70.10973,0"
         style="fill:none;fill-rule:evenodd;stroke:#c8cbc0;stroke-width:1.22561336;stroke-linecap:butt;stroke-linejoin:miter;stroke-miterlimit:4;stroke-dasharray:none;stroke-opacity:1"
         inkscape:connector-curvature="0" />
      <path
         sodipodi:nodetypes="cc"
         id="path5516"
         d="m 688.35199,556.32809 70.10973,0"
         style="fill:none;fill-rule:evenodd;stroke:#c8cbc0;stroke-width:1.22561336;stroke-linecap:butt;stroke-linejoin:miter;stroke-miterlimit:4;stroke-dasharray:none;stroke-opacity:1"
         inkscape:connector-curvature="0" />
      <path
         sodipodi:nodetypes="cc"
         id="path5518"
         d="m 688.35199,599.13232 70.10973,0"
         style="fill:none;fill-rule:evenodd;stroke:#c8cbc0;stroke-width:1.22561336;stroke-linecap:butt;stroke-linejoin:miter;stroke-miterlimit:4;stroke-dasharray:none;stroke-opacity:1"
         inkscape:connector-curvature="0" />
      <path
         sodipodi:nodetypes="cc"
         id="path5520"
         d="m 688.35222,595.76189 70.10973,0"
         style="fill:none;fill-rule:evenodd;stroke:#c8cbc0;stroke-width:1.22561336;stroke-linecap:butt;stroke-linejoin:miter;stroke-miterlimit:4;stroke-dasharray:none;stroke-opacity:1"
         inkscape:connector-curvature="0" />
    </g>
    <g
       style="font-style:normal;font-weight:normal;font-size:62.20926285px;line-height:125%;font-family:sans-serif;letter-spacing:0px;word-spacing:0px;fill:#000000;fill-opacity:1;stroke:none;stroke-width:1px;stroke-linecap:butt;stroke-linejoin:miter;stroke-opacity:1"
       id="text4236"
       transform="matrix(1.1216614,0,0,1.1216614,-5.8670121,-5.0446321)">
      <path
         d="m 66.786846,20.995614 5.194231,0 q 7.168645,0 11.876866,6.075123 1.063146,1.518781 1.063146,1.883288 0,0.546761 -1.458029,1.032771 -2.976811,1.579532 -3.402069,1.579532 -0.243005,0 -1.45803,-1.73141 -2.794557,-3.007186 -6.65226,-3.007186 l -5.163855,0 q -4.374089,0 -6.65226,4.161459 -0.698639,1.549157 -0.698639,3.219816 0,3.766576 3.432445,6.135874 1.761786,1.123898 3.918454,1.123898 l 5.163855,0 q 6.773763,0 10.965598,5.832119 2.247795,3.341317 2.247795,7.381274 0,5.832119 -4.738596,10.054329 -3.766576,3.037562 -8.474797,3.037562 l -5.224606,0 q -7.13827,0 -11.876866,-6.075123 -1.032771,-1.549157 -1.032771,-1.883288 0,-0.546762 1.45803,-1.032771 2.946434,-1.579532 3.371693,-1.579532 0.243005,0 1.488405,1.73141 2.764181,2.97681 6.65226,2.97681 l 5.163855,0 q 4.343713,0 6.65226,-4.131084 0.698639,-1.549156 0.698639,-3.219815 0,-3.796952 -3.432444,-6.135875 -1.761786,-1.123897 -3.918455,-1.123897 l -5.163855,0 q -6.773762,0 -10.995973,-5.832119 -2.21742,-3.341318 -2.21742,-7.381275 0,-5.832118 4.738596,-10.054329 3.766577,-3.037561 8.474797,-3.037561 z"
         style="font-style:normal;font-variant:normal;font-weight:normal;font-stretch:normal;font-family:'arklas Tablica samochodowa';-inkscape-font-specification:'arklas Tablica samochodowa'"
         id="path4285"
         inkscape:connector-curvature="0" />
      <path
         d="m 108.34069,20.995614 1.21503,0 q 7.74578,0 12.697,6.43963 2.09592,2.976811 2.52118,5.771367 0,0.577137 -2.39967,0.820142 -2.33893,0.516386 -2.88569,0.516386 -0.39488,0 -0.97202,-2.035167 -0.66826,-1.640283 -2.88568,-3.614698 -2.70343,-2.065542 -5.95362,-2.065542 l -1.27578,0 q -5.95362,0 -8.657048,5.801743 -0.577137,1.640283 -0.577137,3.46282 l 0,16.585087 q 0,5.953621 5.771365,8.65705 1.67066,0.577137 3.46282,0.577137 l 1.39728,0 q 5.95362,0 8.65705,-5.771367 0.57714,-1.670659 0.57714,-3.46282 l 0,-0.69864 q -0.0607,-0.577136 -0.57714,-0.577136 l -8.20141,0 q -0.57714,-0.09113 -0.57714,-0.577137 l 0,-4.677845 q 0.0911,-0.607512 0.57714,-0.607512 l 14.03353,0 q 0.60751,0.09113 0.60751,0.607512 l 0,6.591509 q 0,7.62428 -6.50038,12.454003 -3.94883,2.581927 -8.53555,2.581927 l -1.51878,0 q -7.62428,0 -12.454002,-6.500382 -2.581927,-3.918454 -2.581927,-8.535548 l 0,-16.706589 q 0,-7.62428 6.500382,-12.454003 3.918457,-2.581927 8.535547,-2.581927 z"
         style="font-style:normal;font-variant:normal;font-weight:normal;font-stretch:normal;font-family:'arklas Tablica samochodowa';-inkscape-font-specification:'arklas Tablica samochodowa'"
         id="path4287"
         inkscape:connector-curvature="0" />
      <path
         d="m 175.35456,20.995614 4.92085,0 q 0.57713,0.06075 0.57713,0.577136 l 0,45.624176 q -0.0911,0.577137 -0.57713,0.577137 l -4.67785,0 q -0.60751,-0.09113 -0.60751,-0.577137 l 0,-10.540339 q -0.0608,-0.577136 -0.57714,-0.577136 l -18.13424,0 q -0.57714,-0.09113 -0.57714,-0.577137 l 0,-5.042352 q 0,-0.303757 1.70104,-2.794557 15.9472,-24.209367 17.58748,-26.548289 l 0.36451,-0.121502 z M 163.17394,49.63982 q 0.0911,0.577137 0.60751,0.577137 l 10.63146,0 q 0.57714,-0.06075 0.57714,-0.577137 l 0,-16.068701 q -0.0608,-0.577137 -0.57714,-0.577137 -0.48601,0 -1.27577,1.518781 -9.90245,14.853676 -9.9632,15.066306 l 0,0.06075 z"
         style="font-style:normal;font-variant:normal;font-weight:normal;font-stretch:normal;font-family:'arklas Tablica samochodowa';-inkscape-font-specification:'arklas Tablica samochodowa'"
         id="path4289"
         inkscape:connector-curvature="0" />
      <path
         d="m 200.47519,20.995614 q 6.31813,0 10.41884,5.497986 1.6099,2.551552 1.91366,4.799348 l 0.18225,0.880892 0.0608,0.03038 0,6.044748 q 0,4.70822 -3.58433,8.991182 l -10.87447,15.491565 -3.55395,4.981601 -0.30375,0.06075 -5.71062,0 q -0.60751,-0.09113 -0.60751,-0.577137 0.21263,-0.577136 2.64268,-3.857703 l 8.29254,-11.937617 0,-0.121503 q 0,-0.577136 -0.82014,-0.577136 -1.57953,-0.182254 -4.00958,-1.397279 -4.00958,-2.065542 -5.86249,-6.804138 -0.7594,-2.004791 -0.7594,-4.252586 l 0,-4.677845 q 0,-6.318128 5.43724,-10.358085 3.28057,-2.21742 7.13827,-2.21742 z m -6.71301,12.636256 0,4.556343 q 0,4.191835 4.07033,6.257377 1.27578,0.516385 2.70343,0.516385 3.58432,0 5.77137,-3.371693 0.88089,-1.609908 0.88089,-3.402069 l 0,-4.556343 q 0,-4.222211 -4.07033,-6.257377 -1.30615,-0.546761 -2.70343,-0.546761 -3.6147,0 -5.80174,3.402069 -0.85052,1.579532 -0.85052,3.402069 z"
         style="font-style:normal;font-variant:normal;font-weight:normal;font-stretch:normal;font-family:'arklas Tablica samochodowa';-inkscape-font-specification:'arklas Tablica samochodowa'"
         id="path4291"
         inkscape:connector-curvature="0" />
      <path
         d="m 229.65287,20.995614 4.89047,0 q 0.60751,0.06075 0.60751,0.577136 l 0,45.624176 q -0.0911,0.577137 -0.60751,0.577137 l -4.67785,0 q -0.57713,-0.09113 -0.57713,-0.577137 l 0,-33.04867 q -0.0911,-0.577137 -0.57714,-0.577137 -0.57714,0 -1.76178,2.278171 -1.15428,1.852913 -1.45803,1.974415 l -0.24301,0.06075 q -0.27338,0 -4.37409,-2.673054 -0.15188,-0.121502 -0.1215,-0.364507 0,-0.334132 3.21982,-5.254982 4.92084,-8.11029 5.31573,-8.474797 l 0.36451,-0.121502 z"
         style="font-style:normal;font-variant:normal;font-weight:normal;font-stretch:normal;font-family:'arklas Tablica samochodowa';-inkscape-font-specification:'arklas Tablica samochodowa'"
         id="path4293"
         inkscape:connector-curvature="0" />
      <path
         d="m 257.76085,20.995614 q 6.62189,0 10.87447,6.014372 1.94404,3.310942 1.94404,6.895265 0,4.768971 -3.52357,8.900055 l -13.66903,18.316497 -0.0607,0.212629 q 0.0607,0.577137 0.57714,0.577137 l 16.09908,0 q 0.57713,0.09113 0.57713,0.607512 l 0,4.677845 q -0.0911,0.577137 -0.57713,0.577137 l -23.99674,0 q -0.57714,-0.09113 -0.57714,-0.577137 l 0,-5.042352 q 0,-0.364507 2.73381,-3.857703 l 15.64344,-20.9288 q 0.91127,-1.640283 0.91127,-3.584323 0,-4.161459 -4.25259,-6.409255 -1.45803,-0.546761 -2.82493,-0.546761 -3.97921,0 -6.16625,3.888079 -0.42526,1.032771 -0.85052,0.97202 -4.70822,-1.336528 -4.95122,-1.579533 l -0.12151,-0.334131 q 1.67066,-4.708221 5.49799,-6.925641 3.06794,-1.852912 6.71301,-1.852912 z"
         style="font-style:normal;font-variant:normal;font-weight:normal;font-stretch:normal;font-family:'arklas Tablica samochodowa';-inkscape-font-specification:'arklas Tablica samochodowa'"
         id="path4295"
         inkscape:connector-curvature="0" />
      <path
         d="m 279.57054,20.995614 21.0503,0 q 0.57714,0.06075 0.57714,0.577136 l 0,4.677845 q -0.0911,0.577137 -0.57714,0.577137 l -15.21818,0 q -0.57714,0.09113 -0.57714,0.607512 l 0,9.446817 q 0.0911,0.607512 0.51639,0.607512 l 2.18704,-0.121502 q 7.50278,0 12.51476,6.591509 2.6123,4.039957 2.6123,8.65705 0,7.533153 -6.59151,12.514754 -4.03996,2.642679 -8.65705,2.642679 -5.31573,0 -9.53794,-3.46282 L 277.748,63.977111 q 0,-0.273381 2.09592,-2.642679 1.18465,-1.458029 1.51878,-1.458029 l 2.1263,1.184649 q 1.94404,0.850517 3.9792,0.850517 4.6171,0 7.65466,-3.94883 1.70103,-2.490801 1.70103,-5.40686 0,-4.617094 -3.9792,-7.654655 -2.4908,-1.701035 -5.37649,-1.701035 -2.24779,0 -4.52596,1.123898 -0.42526,0 -1.67066,-1.701034 -2.30855,-2.521177 -2.30855,-2.855308 l 0,-18.194995 q 0.0911,-0.577136 0.60751,-0.577136 z"
         style="font-style:normal;font-variant:normal;font-weight:normal;font-stretch:normal;font-family:'arklas Tablica samochodowa';-inkscape-font-specification:'arklas Tablica samochodowa'"
         id="path4297"
         inkscape:connector-curvature="0" />
    </g>
    <g
       aria-label="PL"
       style="font-style:normal;font-weight:normal;line-height:0%;font-family:sans-serif;letter-spacing:0px;word-spacing:0px;fill:#ffffff;fill-opacity:1;stroke:#ffffff;stroke-width:0.433;stroke-linecap:butt;stroke-linejoin:miter;stroke-miterlimit:4;stroke-dasharray:none;stroke-opacity:1"
       id="text4236-2">
      <path
         d="m 18.259632,54.531163 h 4.956799 q 1.886291,0 3.053591,1.624071 0.625944,0.930457 0.625944,2.055464 0,1.624071 -1.319557,2.799831 -1.048879,0.84587 -2.359978,0.84587 h -3.32427 q -0.160715,0.02538 -0.160715,0.160715 v 5.379734 q -0.02538,0.160716 -0.169174,0.160716 h -1.30264 q -0.160716,-0.02538 -0.160716,-0.160716 v -12.70497 q 0.02538,-0.160715 0.160716,-0.160715 z m 1.471814,1.793245 v 3.738746 q 0.01692,0.169174 0.160715,0.169174 h 3.32427 q 1.209594,0 1.852456,-1.158842 0.19455,-0.431394 0.19455,-0.896623 0,-1.048879 -0.955833,-1.708657 -0.490605,-0.312972 -1.091173,-0.312972 h -3.32427 q -0.160715,0.02538 -0.160715,0.169174 z"
         style="font-style:normal;font-variant:normal;font-weight:normal;font-stretch:normal;font-size:17.32342148px;line-height:1.25;font-family:'arklas Tablica samochodowa';-inkscape-font-specification:'arklas Tablica samochodowa';fill:#ffffff;fill-opacity:1;stroke:#ffffff;stroke-width:0.433;stroke-miterlimit:4;stroke-dasharray:none;stroke-opacity:1"
         id="path1012" />
      <path
         d="m 30.059521,54.531163 h 1.30264 q 0.169174,0.01692 0.169174,0.160715 v 11.072441 q 0.01692,0.160715 0.160715,0.160715 h 5.371276 q 0.160715,0.02538 0.160715,0.169174 v 1.30264 q -0.01692,0.160716 -0.160715,0.160716 h -7.003805 q -0.160716,-0.02538 -0.160716,-0.160716 v -12.70497 q 0.02538,-0.160715 0.160716,-0.160715 z"
         style="font-style:normal;font-variant:normal;font-weight:normal;font-stretch:normal;font-size:17.32342148px;line-height:1.25;font-family:'arklas Tablica samochodowa';-inkscape-font-specification:'arklas Tablica samochodowa';fill:#ffffff;fill-opacity:1;stroke:#ffffff;stroke-width:0.433;stroke-miterlimit:4;stroke-dasharray:none;stroke-opacity:1"
         id="path1014" />
    </g>
    <path
       sodipodi:nodetypes="ccccccccccccccccccccccccccccccccccccccccccccccccccccccccccccccccccccccccccccccccccccccccccccccccccccccccccccccccccscssscccccccscscsccccccccccccccccccccccccccscccccccccccccccccccccccccccccccccccccccccccsccccccccccccccccccccccccccccccccccccccccccccccccccccccccccccccccccccccsccccccccccccccccccccccccccccccccccccccccccccccccccccccccccccccccccccccccccccccccccccccccccccccscccccccccccccccccccccccccccccccccccccccccccccccccccccccccccccccccccccccccccccccccccccccccccccssscccccccccccccccccccccccccccsccscccccccccccccccccccccccccccccccccscccccccccccccccccccccccccccccccccccccccccccccccccccccccccccccccccc"
       inkscape:connector-curvature="0"
       style="color:#000000;font-style:normal;font-variant:normal;font-weight:normal;font-stretch:normal;font-size:medium;line-height:normal;font-family:Sans;-inkscape-font-specification:Sans;text-indent:0;text-align:start;text-decoration:none;text-decoration-line:none;letter-spacing:normal;word-spacing:normal;text-transform:none;writing-mode:lr-tb;direction:ltr;baseline-shift:baseline;text-anchor:start;display:inline;overflow:visible;visibility:visible;fill:none;fill-opacity:1;stroke:#73777a;stroke-width:0.09;stroke-linecap:round;stroke-linejoin:round;stroke-miterlimit:4;stroke-dasharray:none;stroke-opacity:1;marker:none;enable-background:accumulate"
       d="m 152.3564,18.542 c 0,0 0,0 -0.01,0 v 0 c -0.01,0 -0.011,0.01 -0.014,0.015 -0.018,0.052 -0.068,0.075 -0.1147,0.1106 -0.023,0.018 -0.044,0.042 -0.054,0.074 -0.01,0.024 0,0.057 0.01,0.091 -0.035,-0.01 -0.07,-0.014 -0.095,0 -0.014,0.01 -0.022,0.02 -0.03,0.032 -0.017,-0.02 -0.037,-0.034 -0.061,-0.038 -0.032,-0.01 -0.062,0.011 -0.091,0.04 -0.012,-0.024 -0.023,-0.051 -0.042,-0.064 -0.028,-0.019 -0.059,-0.027 -0.091,-0.033 -0.062,-0.01 -0.1201,-0.011 -0.161,-0.048 -0.021,-0.019 -0.051,0.01 -0.038,0.03 0,0 0,0.01 0.01,0.01 0.1471,0.253 0.2628,0.6034 0.3017,0.7203 -0.034,0.012 -0.067,0.038 -0.095,0.077 -0.028,0.04 -0.046,0.094 -0.055,0.1528 -0.062,0 -0.1486,0.016 -0.2172,0.074 -0.075,0.064 -0.1175,0.1824 -0.066,0.3702 0.01,0.018 0.03,0.023 0.042,0.01 0.024,-0.031 0.099,-0.071 0.1772,-0.082 0.064,-0.01 0.1235,0.01 0.171,0.042 -0.079,0.036 -0.1607,0.078 -0.2355,0.097 -0.088,0.022 -0.1646,0.016 -0.2334,-0.057 -0.014,-0.015 -0.038,-0.01 -0.042,0.012 -0.012,0.058 0.01,0.1121 0.04,0.155 0.034,0.043 0.084,0.076 0.1409,0.092 0,10e-5 0,10e-5 0,10e-5 0.1574,0.03 0.3075,-0.04 0.4446,-0.1067 0,0.012 0,0.023 0,0.036 0,0.029 0.01,0.058 0.022,0.081 0.01,0.01 0.019,0.013 0.03,0.01 0.061,-0.025 0.095,-0.029 0.1348,-0.038 0.075,0.033 0.1197,0.084 0.1389,0.1449 0.019,0.064 0.013,0.1399 -0.014,0.2133 -0.054,0.1465 -0.1912,0.2809 -0.3522,0.2997 -0.017,0 -0.026,0.021 -0.018,0.036 0.029,0.054 0.084,0.091 0.1247,0.1147 -0.088,0.1462 -0.1457,0.2281 -0.3802,0.326 -0.01,0 -0.012,0.01 -0.014,0.014 -0.01,0.029 0.01,0.055 0.02,0.078 0.012,0.016 0.028,0.029 0.044,0.042 -0.1028,0.1097 -0.1429,0.2537 -0.1529,0.4688 -0.1626,-0.018 -0.3308,-0.06 -0.4426,-0.1328 -0.056,-0.036 -0.097,-0.081 -0.1187,-0.1328 -0.019,-0.047 -0.023,-0.104 -0.01,-0.171 0.1514,0.035 0.3525,-0.045 0.4346,-0.2535 0.086,-0.2203 0.036,-0.5731 -0.342,-1.0684 -0.1495,-0.1955 -0.4315,-0.4464 -0.7626,-0.6479 -0.3312,-0.2015 -0.7122,-0.3534 -1.0584,-0.348 h -0.01 c -0.01,0 -0.01,0.01 -0.012,0.01 -0.012,0.012 -0.01,0.017 -0.01,0.022 0,0.01 0,0.01 0,0.016 0,0.012 0.01,0.026 0.01,0.044 0.011,0.036 0.029,0.086 0.057,0.1448 0.043,0.092 0.1149,0.2101 0.2073,0.3301 -0.2463,-0.1443 -0.438,-0.2428 -0.6379,-0.2294 -0.014,0 -0.025,0.012 -0.024,0.026 0.01,0.1634 0.122,0.3904 0.2596,0.5835 -0.1087,-0.078 -0.2276,-0.1696 -0.3099,-0.3099 -0.01,-0.014 -0.03,-0.016 -0.04,0 -0.044,0.062 -0.05,0.1663 -0.02,0.2837 0.025,0.099 0.084,0.2075 0.1691,0.3079 -0.1276,-0.033 -0.3172,-0.08 -0.5252,-0.03 -0.01,0 -0.01,0 -0.012,0.01 -0.01,0.01 -0.01,0.012 -0.01,0.02 0.012,0.1077 0.1017,0.2224 0.2193,0.334 0.051,0.049 0.1171,0.089 0.1771,0.1348 -0.086,-0.022 -0.1772,-0.044 -0.2556,-0.081 -0.053,-0.025 -0.099,-0.051 -0.1328,-0.076 -0.034,-0.025 -0.051,-0.051 -0.054,-0.064 -0.01,-0.026 -0.045,-0.023 -0.048,0.01 v 0.01 c -0.01,0.048 -0.027,0.1237 0.01,0.2194 0.03,0.09 0.1171,0.1962 0.2877,0.3158 -0.1986,0.035 -0.3887,0.099 -0.5373,0.2133 -0.01,0.01 -0.012,0.021 -0.01,0.033 0.092,0.1317 0.2668,0.2078 0.4487,0.2555 0.06,0.016 0.1059,0.016 0.165,0.026 -0.092,0.01 -0.1797,0.016 -0.2676,0.016 -0.076,0 -0.1464,0 -0.2012,-0.014 -0.053,-0.01 -0.088,-0.029 -0.1046,-0.05 v 0 c -0.01,-0.014 -0.027,-0.017 -0.038,-0.01 0,0 -0.01,0.01 -0.01,0.01 0,0 0,0 0,0 0,0 0,0.01 0,0.01 0,0.01 0,0.01 0,0.012 0,0 0,0.01 0,0.01 -1e-4,0 -1e-4,0 -1e-4,0 0,0.058 0,0.1097 0.016,0.1529 0.017,0.048 0.051,0.089 0.1026,0.1187 0.092,0.054 0.2573,0.083 0.511,0.1127 -0.3063,0.1532 -0.5178,0.331 -0.6418,0.5855 0,0 0,0 -0.01,0.01 -0.01,0.019 0.01,0.039 0.028,0.034 v 10e-5 c 0.13,0.077 0.3039,0.097 0.5131,0.072 0.1181,-0.014 0.2483,-0.041 0.3863,-0.079 -0.1134,0.061 -0.2265,0.1234 -0.3341,0.1791 -0.215,0.1114 -0.4084,0.1885 -0.5392,0.1509 -0.02,-0.01 -0.037,0.013 -0.03,0.033 -10e-5,0 0,0 -10e-5,0 0,0 0,0 0,0 0,0 0,0 0,0 0,0 0,0 0,0.01 0.051,0.1097 0.1217,0.2301 0.2756,0.2636 0.1453,0.032 0.3658,-0.025 0.6982,-0.2032 -0.2479,0.3859 -0.4221,0.8165 -0.4084,1.2897 v 0.01 c -1e-4,0 0,0 -1e-4,0 v 0.01 c 0,10e-5 0,10e-5 0,10e-5 v 0.01 c 0,0 0,0 0,0 v 0.01 c 0,10e-5 0,10e-5 0,10e-5 0,0 0,0 0,0 0,0 0,0 0,0 -1e-4,0 0,0 -1e-4,0 0,0 0,0 0,0 v 0 c 0,0 0,0 0,0 0,0 0,0 0.01,0 h 0.01 c 0,0 0,0 0,0 0,0 0,0 0,0 0,0 0.01,0 0.01,0 0,0 0,0 0.01,0 0.2118,-0.026 0.4459,-0.2042 0.668,-0.4327 0.089,-0.091 0.1721,-0.1928 0.2535,-0.2937 -0.083,0.1448 -0.1598,0.2736 -0.2455,0.4185 -0.078,0.1321 -0.1533,0.2537 -0.2213,0.342 -0.034,0.044 -0.066,0.08 -0.095,0.1047 -0.029,0.025 -0.055,0.038 -0.07,0.04 -0.01,0 -0.01,0 -0.012,0.01 -0.012,0.01 -0.01,0.029 0,0.038 0.1011,0.077 0.2231,0.072 0.3299,0.034 0.1069,-0.038 0.2006,-0.1052 0.2556,-0.163 0.086,-0.09 0.1907,-0.2369 0.3038,-0.4024 0,0.038 -0.01,0.065 -0.01,0.1207 0,0.095 0,0.2099 0.01,0.328 0.01,0.1181 0.017,0.2392 0.034,0.344 0.018,0.1049 0.042,0.1937 0.078,0.2516 0.01,0.01 0.021,0.014 0.032,0.01 0.1356,-0.084 0.2809,-0.2666 0.4105,-0.5291 0.069,-0.1397 0.132,-0.3055 0.1871,-0.489 -0.01,0.035 -0.014,0.091 -0.018,0.1228 -0.025,0.1685 -0.051,0.285 -0.082,0.328 -0.013,0.019 0.01,0.044 0.026,0.038 0.1708,-0.047 0.2673,-0.1879 0.33,-0.344 0.057,-0.1403 0.088,-0.2882 0.1228,-0.4085 0.012,0.018 0.017,0.031 0.042,0.052 0.01,0.01 0.013,0.01 0.02,0.01 0.038,-0.01 0.08,-0.039 0.1248,-0.085 0.045,-0.046 0.091,-0.1066 0.1367,-0.1831 0.088,-0.1471 0.1637,-0.3504 0.1872,-0.5815 0.01,0 0.011,0.01 0.018,0.01 0.1323,0.049 0.2987,0.068 0.4748,0 0,0 0.01,-0.01 0.01,-0.01 h 0.01 c 0,0 0,0 0,0 h 0.01 c 0.01,0.058 0.022,0.1169 0.038,0.1751 -0.077,-0.012 -0.1424,-0.016 -0.1973,-0.014 -0.061,0 -0.1104,0.016 -0.1549,0.044 -0.089,0.057 -0.147,0.1698 -0.2314,0.3581 -0.09,0.2019 -0.2352,0.4314 -0.3984,0.489 -0.017,0.01 -0.022,0.027 -0.01,0.04 0.015,0.017 0.044,0.021 0.07,0.028 0,0 0,0 0,0 0,0 0,0 0,0 -0.029,0.061 -0.09,0.156 -0.1589,0.1992 -0.016,0.01 -0.016,0.033 -1e-4,0.042 0.019,0.01 0.039,0.01 0.061,0.012 0,0 0,0 0.01,0 0,0 0.01,0.01 0.01,0.01 h 0.01 c -0.01,0.01 -0.01,0.01 -0.012,0.016 -0.018,0.018 -0.044,0.036 -0.068,0.054 -0.025,0.017 -0.05,0.032 -0.072,0.044 -0.023,0.012 -0.043,0.021 -0.05,0.022 -0.01,0 -0.01,0 -0.012,0.01 -0.01,0.01 -0.011,0.022 -0.01,0.032 0.01,0.016 0.027,0.027 0.044,0.038 0.01,0.01 0.014,0.01 0.02,0.01 -0.044,0.042 -0.1065,0.098 -0.2133,0.1468 -0.017,0.01 -0.02,0.031 -0.01,0.042 0.028,0.02 0.07,0.034 0.1247,0.046 0.044,0.01 0.095,0.014 0.1489,0.016 l -0.2153,0.2796 c -0.01,0.012 -0.01,0.028 0.01,0.036 l 0.01,0.01 -0.2093,0.1992 c -0.016,0.015 -0.01,0.041 0.016,0.042 h 0.01 l -0.1932,0.1549 c 0,0 0,0.01 -0.01,0.01 0,0 0,0 0,0 0,0 0,0 0,0.01 0,0 -1e-4,0 0,0 -0.01,0.013 0,0.031 0.012,0.036 l -0.1449,0.1187 c -0.033,0.027 -0.084,0.057 -0.1247,0.048 l -0.3723,-0.081 c -0.014,-0.042 -0.04,-0.077 -0.076,-0.099 -0.042,-0.024 -0.094,-0.034 -0.1449,-0.032 -0.097,0.01 -0.1932,0.062 -0.2294,0.167 0,0.01 -0.01,0.01 -0.01,0.014 -0.059,0.049 -0.092,0.1259 -0.093,0.2071 0,0.087 0.034,0.1795 0.1046,0.2435 0.014,0.012 0.036,0.01 0.04,-0.012 0.028,-0.092 0.043,-0.1169 0.087,-0.1569 0.069,0.017 0.1266,0.021 0.169,0.01 0.041,-0.013 0.07,-0.036 0.097,-0.057 0.029,0.019 0.065,0.037 0.1107,0.05 0.027,0.01 0.055,0.01 0.082,0.01 -0.066,0.046 -0.139,0.092 -0.2133,0.1248 -0.036,-0.011 -0.077,-0.018 -0.1186,-0.01 -0.049,0.01 -0.096,0.035 -0.1268,0.082 -0.026,0.04 -0.041,0.1 -0.04,0.1589 0,0.05 0.018,0.097 0.05,0.1308 0,0 0,0 0,0 0,0 0,0.01 0.01,0.01 -1e-4,0 -1e-4,0 -1e-4,0 -0.01,0.1334 0.1169,0.2498 0.2776,0.2454 0.018,0 0.029,-0.021 0.02,-0.036 -0.025,-0.046 -0.027,-0.087 -0.022,-0.1187 0.01,-0.032 0.02,-0.057 0.024,-0.061 0.036,-0.019 0.061,-0.045 0.076,-0.076 0.014,-0.029 0.018,-0.064 0.022,-0.1045 0.089,-0.024 0.1842,-0.057 0.2777,-0.1248 -0.014,0.053 -0.027,0.1054 -0.03,0.1489 -0.031,0.01 -0.062,0.013 -0.093,0.032 -0.037,0.023 -0.071,0.059 -0.084,0.1066 -0.022,0.08 -0.02,0.1671 0.018,0.2294 0.012,0.019 0.033,0.03 0.052,0.042 0,0 0,0 -1e-4,0 0.012,0.086 0.076,0.1412 0.1489,0.1629 0.073,0.022 0.1578,0.013 0.2254,-0.028 0.014,-0.01 0.016,-0.03 0,-0.04 -0.024,-0.018 -0.037,-0.035 -0.048,-0.059 -0.011,-0.022 -0.019,-0.053 -0.026,-0.099 0.031,-0.028 0.055,-0.061 0.062,-0.1006 0.01,-0.043 0,-0.091 -0.012,-0.1429 0.09,-0.094 0.1072,-0.2001 0.1489,-0.3079 0.017,0.01 0.03,0.024 0.05,0.028 0.027,0.01 0.053,0.01 0.078,0 0.025,0.076 0.063,0.1137 0.1148,0.1428 -0.01,0.055 -0.01,0.1198 -0.06,0.1671 -0.014,0.013 -0.01,0.037 0.01,0.042 0.045,0.01 0.1208,0 0.1912,-0.036 0.068,-0.038 0.1259,-0.1125 0.1248,-0.2233 0.06,-0.049 0.089,-0.1276 0.07,-0.1993 -0.01,-0.039 -0.036,-0.076 -0.074,-0.099 -0.038,-0.023 -0.09,-0.034 -0.153,-0.026 v -10e-5 c -0.058,0 -0.096,-0.012 -0.1126,-0.028 -0.01,-0.01 -0.014,-0.015 -0.014,-0.024 0,-0.01 0,-0.019 0.01,-0.033 0,0 0,0 0,0 0.015,-0.023 0.044,-0.057 0.1087,-0.1348 0,1e-4 0,0 0,1e-4 0.066,-0.083 0.2175,-0.26 0.3642,-0.4226 0.073,-0.081 0.1456,-0.1581 0.2052,-0.2193 0.053,-0.054 0.09,-0.088 0.1126,-0.1046 0.056,0.071 0.1441,0.1802 0.3139,0.2152 0.015,0.01 0.029,-0.01 0.03,-0.022 0,-0.014 -0.01,-0.017 -0.01,-0.022 0,-0.01 -0.01,-0.01 -0.01,-0.016 -0.01,-0.012 -0.016,-0.027 -0.024,-0.046 -0.014,-0.031 -0.023,-0.083 -0.028,-0.1388 0.018,0.01 0.037,0.022 0.059,0.024 0.016,0 0.029,-0.012 0.026,-0.028 -0.01,-0.062 -0.026,-0.1626 0.01,-0.3078 0.028,-0.1279 0.1099,-0.2939 0.2616,-0.4869 -0.013,0.324 -0.079,0.6249 -0.2133,0.8953 -0.01,0.018 0.01,0.04 0.026,0.036 0.082,-0.016 0.1247,-0.036 0.171,-0.066 -0.031,0.1226 -0.077,0.2302 -0.1389,0.2897 -0.036,0.035 -0.076,0.055 -0.1167,0.06 -0.04,0.01 -0.084,-0.01 -0.1308,-0.036 -0.013,-0.01 -0.031,0 -0.036,0.012 -0.052,0.1403 -0.01,0.268 0.088,0.338 0.078,0.057 0.1872,0.064 0.2978,0.026 0,0 0.01,0.01 0.01,0.01 -0.085,0.1667 -0.2344,0.2606 -0.3641,0.2736 -0.072,0.01 -0.1354,-0.01 -0.1751,-0.046 -0.04,-0.036 -0.061,-0.09 -0.044,-0.175 0.01,-0.017 -0.011,-0.033 -0.028,-0.03 -0.1031,0.016 -0.1775,0.058 -0.2254,0.1146 -0.048,0.057 -0.067,0.1254 -0.066,0.1952 0,0.1227 0.067,0.2439 0.169,0.3059 -0.2128,0.087 -0.3018,0.2791 -0.2756,0.4587 0.028,0.193 0.1811,0.3702 0.4165,0.3884 0.2557,0.02 0.5295,-0.1579 0.6981,-0.3884 0,0.264 0.029,0.4489 0.075,0.5734 0.05,0.1367 0.119,0.2134 0.179,0.2857 0.01,0.012 0.029,0.012 0.038,0 0.06,-0.072 0.1286,-0.149 0.1811,-0.2857 0.048,-0.125 0.077,-0.31 0.079,-0.5754 0.1552,0.2127 0.3993,0.3818 0.6379,0.3923 0.2515,0.011 0.4288,-0.165 0.4727,-0.3642 0.041,-0.1865 -0.042,-0.3926 -0.2716,-0.4848 0.1026,-0.062 0.1697,-0.1827 0.171,-0.3059 0,-0.07 -0.021,-0.1388 -0.068,-0.1952 -0.048,-0.057 -0.1223,-0.099 -0.2254,-0.1146 -0.016,0 -0.03,0.014 -0.026,0.03 0.017,0.085 -0.01,0.1394 -0.044,0.1751 -0.04,0.036 -0.1026,0.053 -0.175,0.046 -0.1332,-0.014 -0.2889,-0.1109 -0.3723,-0.2857 0.1152,0.043 0.2289,0.038 0.3099,-0.022 0.095,-0.07 0.1422,-0.1977 0.091,-0.3381 -0.01,-0.016 -0.025,-0.022 -0.038,-0.012 -0.047,0.032 -0.09,0.041 -0.1308,0.036 -0.041,-0.01 -0.082,-0.025 -0.1187,-0.061 -0.062,-0.06 -0.1113,-0.1671 -0.1429,-0.2897 0.046,0.031 0.09,0.051 0.171,0.066 0.021,0.01 0.036,-0.018 0.026,-0.036 -0.1342,-0.2702 -0.1936,-0.5676 -0.2052,-0.8914 0.1501,0.1919 0.2318,0.3583 0.2596,0.4849 0.032,0.1444 0.012,0.2448 0.01,0.3079 0,0.016 0.012,0.029 0.028,0.026 0.021,0 0.038,-0.017 0.057,-0.024 -0.01,0.056 -0.012,0.1082 -0.026,0.1389 -0.01,0.019 -0.017,0.034 -0.024,0.046 0,0.01 -0.01,0.011 -0.01,0.016 0,0.01 -0.01,0.01 -0.01,0.022 0,0.014 0.014,0.024 0.028,0.022 0.1659,-0.035 0.2557,-0.1408 0.3118,-0.2113 0.2476,0.2022 0.4927,0.533 0.7365,0.8209 0,0 0,0 -10e-5,0 0.014,0.018 0.019,0.033 0.02,0.042 0,0.01 0,0.016 -0.01,0.024 -0.016,0.016 -0.059,0.034 -0.1147,0.048 h -0.01 c -0.075,-0.01 -0.133,0.01 -0.1731,0.04 -0.041,0.032 -0.061,0.08 -0.066,0.1287 -0.01,0.091 0.03,0.1858 0.1026,0.2294 0.019,0.095 0.079,0.1544 0.1429,0.1851 0.057,0.027 0.1106,0.027 0.1529,0.022 0.01,0 0.016,0.01 0.022,0.01 0.019,-0.01 0.025,-0.029 0.01,-0.042 -0.057,-0.047 -0.054,-0.1134 -0.059,-0.169 0.05,-0.029 0.09,-0.066 0.1147,-0.1409 0.025,0 0.05,0 0.076,0 0.02,-0.01 0.035,-0.016 0.052,-0.026 0.041,0.1071 0.059,0.2122 0.1488,0.3058 -0.014,0.052 -0.022,0.1 -0.014,0.1429 0.01,0.04 0.034,0.073 0.064,0.1006 -0.01,0.045 -0.015,0.076 -0.026,0.099 -0.012,0.023 -0.025,0.04 -0.048,0.058 -0.014,0.01 -0.012,0.031 0,0.04 0.067,0.041 0.1523,0.049 0.2253,0.028 0.073,-0.021 0.1343,-0.077 0.1468,-0.1629 1e-4,0 1e-4,0 1e-4,0 0.019,-0.012 0.041,-0.024 0.052,-0.042 0.038,-0.062 0.042,-0.1494 0.02,-0.2294 -0.014,-0.048 -0.048,-0.083 -0.084,-0.1067 -0.031,-0.019 -0.062,-0.028 -0.093,-0.033 -0.01,-0.041 -0.021,-0.095 -0.037,-0.1489 0.095,0.068 0.1925,0.1006 0.2817,0.1248 0.01,0.04 0.01,0.075 0.022,0.1046 0.016,0.032 0.043,0.057 0.078,0.076 0.01,0.01 0.019,0.028 0.024,0.061 0.01,0.032 0,0.073 -0.024,0.1187 -0.01,0.017 0.01,0.036 0.022,0.036 0.1597,0.01 0.2779,-0.1109 0.2757,-0.2434 0,0 0,-0.01 0.01,-0.01 0,0 0,0 0,0 v 0 c 1e-4,0 1e-4,0 1e-4,0 0.032,-0.034 0.048,-0.08 0.049,-0.1307 0,-0.059 -0.012,-0.1193 -0.038,-0.1589 -0.031,-0.048 -0.08,-0.073 -0.1287,-0.082 -0.042,-0.01 -0.083,0 -0.1187,0.01 -0.073,-0.032 -0.1367,-0.079 -0.1992,-0.1248 0.072,-0.01 0.1378,-0.029 0.1811,-0.059 0.027,0.02 0.053,0.043 0.094,0.057 0.043,0.013 0.1003,0.01 0.1711,-0.01 0.044,0.04 0.059,0.064 0.086,0.1569 0.01,0.018 0.027,0.025 0.04,0.012 0.071,-0.064 0.1029,-0.156 0.1026,-0.2434 0,-0.081 -0.033,-0.1582 -0.093,-0.2073 0,-0.01 -0.01,-0.01 -0.01,-0.012 0,0 0,0 0,0 -0.036,-0.105 -0.1328,-0.1623 -0.2294,-0.167 -0.051,0 -0.1011,0.01 -0.1428,0.033 -0.037,0.021 -0.062,0.057 -0.077,0.098 l -0.3722,0.081 c -0.041,0.01 -0.092,-0.022 -0.1248,-0.048 l -0.1448,-0.1227 c 0.01,-0.01 0.01,-0.01 0.01,-0.016 0,0 0,0 0,0 v -0.01 c 1e-4,0 0,0 1e-4,0 v -0.01 c 0,-0.01 -0.01,-0.01 -0.01,-0.014 l -0.1932,-0.155 h 0.01 c 0.021,0 0.029,-0.028 0.014,-0.042 l -0.2092,-0.1991 0.01,-0.01 c 0.012,-0.01 0.015,-0.025 0.01,-0.036 l -0.2153,-0.2776 c 0.065,0 0.1266,-0.01 0.1771,-0.018 0.054,-0.012 0.097,-0.026 0.1248,-0.046 0.015,-0.011 0.013,-0.034 -0.01,-0.042 -0.1054,-0.048 -0.1675,-0.1026 -0.2113,-0.1449 0,0 0,0 10e-5,0 v 0 c 0.01,0 0.011,0 0.016,-0.01 0.018,-0.011 0.034,-0.023 0.044,-0.038 0.01,-0.015 0,-0.035 -0.016,-0.038 -0.01,0 -0.028,-0.01 -0.05,-0.02 -0.023,-0.012 -0.05,-0.029 -0.074,-0.046 -0.025,-0.018 -0.048,-0.037 -0.067,-0.054 -0.01,-0.01 -0.01,-0.012 -0.014,-0.018 0.027,0 0.055,0 0.08,-0.016 0.016,-0.01 0.016,-0.033 1e-4,-0.042 -0.07,-0.044 -0.1309,-0.1402 -0.159,-0.2012 0.027,-0.01 0.058,-0.011 0.073,-0.028 0.012,-0.014 0.01,-0.036 -0.012,-0.04 -0.1631,-0.057 -0.3058,-0.2874 -0.3963,-0.489 -0.084,-0.1885 -0.1427,-0.3006 -0.2315,-0.3581 -0.085,-0.055 -0.1935,-0.053 -0.3581,-0.028 0.019,-0.058 0.038,-0.1012 0.055,-0.173 v 0 c 0.1762,0.066 0.3426,0.048 0.4749,0 0.01,0 0.011,-0.01 0.018,-0.01 0.023,0.2319 0.099,0.434 0.1872,0.5814 0.046,0.076 0.094,0.1376 0.1388,0.1831 0.045,0.046 0.085,0.076 0.1227,0.084 0.01,0 0.016,0 0.022,-0.01 0.026,-0.022 0.031,-0.036 0.042,-0.054 0.035,0.1205 0.064,0.2697 0.1207,0.4105 0.063,0.156 0.1594,0.2972 0.33,0.344 0.022,0.01 0.04,-0.019 0.026,-0.038 -0.032,-0.043 -0.058,-0.1595 -0.082,-0.328 -0.01,-0.038 -0.016,-0.1039 -0.022,-0.1469 0.057,0.1926 0.1194,0.3678 0.1911,0.5131 0.1295,0.2625 0.275,0.4449 0.4105,0.5292 0.012,0.01 0.027,0.01 0.034,-0.01 0.037,-0.058 0.061,-0.1467 0.079,-0.2515 0.018,-0.1049 0.029,-0.2259 0.034,-0.3441 0.01,-0.118 0.01,-0.2332 0.01,-0.328 0,-0.055 -0.01,-0.079 -0.01,-0.1166 0.1124,0.1639 0.217,0.3086 0.3019,0.3984 0,0 0,0 0,0 0.055,0.058 0.1487,0.1254 0.2555,0.163 0.1069,0.038 0.2288,0.043 0.33,-0.034 0.018,-0.014 0.01,-0.042 -0.012,-0.044 -0.016,0 -0.04,-0.016 -0.069,-0.04 -0.029,-0.025 -0.061,-0.061 -0.094,-0.1046 -0.068,-0.088 -0.1453,-0.21 -0.2234,-0.3421 -0.085,-0.1444 -0.1625,-0.2721 -0.2454,-0.4165 0.081,0.1006 0.1648,0.2026 0.2535,0.2938 0.2248,0.2313 0.4621,0.4124 0.676,0.4346 0,0 0.01,0 0.01,0 0,0 0.01,0 0.01,0 0,0 0.01,0 0.01,0 v 0 c 0,0 0.01,-0.01 0.01,-0.01 0,0 0,-0.01 0,-0.01 0,0 0,0 0,-0.01 0.016,-0.4757 -0.1615,-0.9081 -0.4105,-1.2958 0.3326,0.1788 0.5529,0.2349 0.6982,0.2032 0.1529,-0.033 0.2227,-0.1526 0.2737,-0.2616 0,0 0,0 0.01,-0.01 0,0 0,0 0,-0.01 0.01,-0.019 -0.01,-0.039 -0.028,-0.034 -0.1306,0.038 -0.3261,-0.04 -0.5412,-0.1509 -0.1184,-0.061 -0.2413,-0.1292 -0.3662,-0.1951 0.1505,0.042 0.2948,0.076 0.4225,0.091 0.2056,0.024 0.3757,0.01 0.5051,-0.07 0,0 0,0 0,10e-5 0.018,0.01 0.037,-0.01 0.034,-0.026 0,0 0,0 0,0 0,0 0,0 0,0 v 0 c 0,0 0,0 0,0 0,-0.01 -0.01,-0.012 -0.01,-0.016 0,0 0,0 0,0 -0.1248,-0.2453 -0.333,-0.4195 -0.6318,-0.5694 0.2537,-0.03 0.4186,-0.059 0.5111,-0.1127 0.051,-0.03 0.083,-0.07 0.1006,-0.1187 0.016,-0.044 0.017,-0.096 0.016,-0.1549 1e-4,0 0,0 1e-4,0 0,0 0,0 0,-0.01 v -0.01 h 1e-4 v -0.01 c 0,-10e-5 0,0 0,-10e-5 0,0 0,0 0,0 0,0 0,-0.01 -0.01,-0.01 -0.011,-0.011 -0.03,-0.01 -0.038,0.01 v 0 c -0.016,0.022 -0.053,0.042 -0.1066,0.052 -0.055,0.011 -0.1248,0.015 -0.2012,0.014 -0.088,0 -0.1761,-0.01 -0.2675,-0.014 0.06,-0.011 0.1065,-0.012 0.1669,-0.028 0.1819,-0.048 0.3549,-0.1239 0.4467,-0.2555 0.01,-0.011 0.01,-0.024 -0.01,-0.032 -0.1484,-0.1145 -0.3406,-0.178 -0.5392,-0.2133 0.1705,-0.1198 0.2579,-0.2257 0.2876,-0.3159 0.033,-0.099 0.01,-0.1782 0.01,-0.2254 0,-0.014 -0.01,-0.026 -0.023,-0.027 -0.014,0 -0.026,0.01 -0.027,0.023 0,0.014 -0.021,0.039 -0.055,0.064 -0.034,0.025 -0.08,0.052 -0.1328,0.076 -0.079,0.036 -0.1691,0.059 -0.2555,0.081 0.06,-0.046 0.1275,-0.086 0.1791,-0.1348 0.1177,-0.1117 0.2057,-0.2242 0.2173,-0.332 0,-0.014 -0.01,-0.026 -0.02,-0.028 -0.2072,-0.049 -0.3955,0 -0.523,0.03 0.084,-0.1003 0.1419,-0.2088 0.1669,-0.3079 0.03,-0.1175 0.025,-0.2213 -0.018,-0.2837 -0.01,-0.016 -0.034,-0.014 -0.042,0 -0.082,0.1389 -0.1981,0.2299 -0.3058,0.3079 0.1366,-0.1926 0.2454,-0.4188 0.2554,-0.5815 0,-0.014 -0.01,-0.026 -0.024,-0.026 -0.2001,-0.014 -0.3914,0.085 -0.6378,0.2293 0.092,-0.1199 0.1644,-0.2374 0.2072,-0.3298 0.027,-0.059 0.046,-0.1086 0.057,-0.1449 0.01,-0.018 0.01,-0.033 0.012,-0.044 v -0.016 c 0,-0.01 0.01,-0.01 -0.01,-0.022 -0.01,-0.01 -0.01,-0.01 -0.016,-0.01 -0.3461,-0.01 -0.7271,0.1485 -1.0583,0.35 -0.3312,0.2015 -0.6133,0.4504 -0.7626,0.6459 -0.3782,0.4952 -0.4286,0.8481 -0.342,1.0684 0.082,0.2088 0.2832,0.2877 0.4346,0.2535 0.019,0.067 0.016,0.1255 -0.01,0.173 -0.021,0.052 -0.062,0.094 -0.1188,0.1308 -0.1108,0.072 -0.2773,0.1129 -0.4386,0.1308 0,-0.021 0,-0.044 10e-5,-0.068 0,-0.089 -0.021,-0.1989 -0.069,-0.3078 0.01,0 0.012,-0.01 0.016,-0.012 0,0 0,0 0,0 0.023,-0.01 0.05,-0.019 0.066,-0.034 0.027,-0.025 0.043,-0.06 0.044,-0.098 0,-0.01 0,-0.012 -0.01,-0.016 -0.1474,-0.1548 -0.1511,-0.2545 -0.1731,-0.3782 0.041,-0.01 0.078,-0.029 0.097,-0.057 0.01,-0.01 0.01,-0.024 -0.01,-0.032 -0.033,-0.025 -0.053,-0.067 -0.062,-0.1247 -0.01,-0.058 -0.01,-0.1307 0,-0.2093 0.016,-0.1571 0.053,-0.3394 0.062,-0.4989 0.01,-0.1389 -0.029,-0.2528 -0.1087,-0.3602 0,0 0,-0.01 0.01,-0.01 0,0 0,0 0,-0.01 0.031,-0.017 0.065,-0.03 0.085,-0.057 0.027,-0.036 0.037,-0.084 0.038,-0.1409 0,-0.015 -0.011,-0.027 -0.026,-0.026 -0.07,0 -0.1425,-0.01 -0.2092,-0.01 0.013,-0.011 0.03,-0.015 0.04,-0.03 0.023,-0.037 0.031,-0.086 0.012,-0.1409 0,-0.012 -0.014,-0.02 -0.026,-0.018 v 0 c -0.029,0.01 -0.077,0.01 -0.1568,0.01 0.1075,-0.298 0.1631,-0.419 0.348,-0.7606 0,0 0,-0.01 0.01,-0.01 0.01,-0.01 0.01,-0.018 0,-0.026 -0.01,-0.011 -0.026,-0.012 -0.036,0 -0.045,0.044 -0.1132,0.057 -0.1791,0.074 -0.033,0.01 -0.066,0.017 -0.095,0.034 -0.019,0.012 -0.03,0.034 -0.042,0.056 -0.018,-0.021 -0.035,-0.043 -0.064,-0.048 -0.02,-0.01 -0.042,0 -0.062,0.012 -0.01,0.01 -0.013,0.016 -0.02,0.022 -0.01,-0.022 -0.021,-0.042 -0.04,-0.057 -0.024,-0.018 -0.057,-0.02 -0.091,-0.014 0.01,-0.016 0.016,-0.034 0.012,-0.048 -0.01,-0.029 -0.027,-0.051 -0.048,-0.071 -0.042,-0.039 -0.094,-0.072 -0.1146,-0.1207 -0.01,-0.01 -0.013,-0.016 -0.023,-0.016 z m -0.4143,8.1705 v 0 c -0.089,0.2457 -0.2477,0.3595 -0.3722,0.3683 -0.068,0.01 -0.1249,-0.02 -0.1589,-0.066 -0.031,-0.042 -0.038,-0.108 -0.018,-0.1931 0.1866,0.053 0.3921,-0.01 0.5492,-0.1087 z m 0.8491,0.01 c 0.1089,0.069 0.2374,0.1184 0.3684,0.1228 0.053,0 0.1188,-0.01 0.1668,-0.022 0.02,0.085 0.011,0.1509 -0.02,0.1932 -0.028,0.038 -0.074,0.059 -0.1268,0.062 -0.01,0 -0.014,0 -0.022,0 -0.1227,-0.01 -0.277,-0.1186 -0.3662,-0.3581 z"
       id="path4370" />
    <g
       aria-label="INWEN Z/15/030/18"
       style="font-style:normal;font-weight:normal;font-size:2.590065px;line-height:125%;font-family:sans-serif;letter-spacing:0px;word-spacing:0px;fill:none;fill-opacity:1;stroke:#73777a;stroke-width:0.09;stroke-linecap:butt;stroke-linejoin:miter;stroke-miterlimit:4;stroke-dasharray:none;stroke-opacity:1"
       id="text987">
      <path
         d="m 140.64816,73.78193 h 0.38573 v 1.861609 h -0.38573 z m 0.18844,-0.189702 v 0 z m -0.0797,2.051311 v 0 z m -0.2719,-1.909667 v 0 z"
         style="font-style:normal;font-variant:normal;font-weight:bold;font-stretch:normal;font-family:Helvetica;-inkscape-font-specification:'Helvetica Bold';fill:none;stroke:#73777a;stroke-width:0.09;stroke-miterlimit:4;stroke-dasharray:none;stroke-opacity:1"
         id="path1022" />
      <path
         d="m 141.3842,73.78193 h 0.40976 l 0.74363,1.293768 v 0 -1.293768 h 0.3617 v 1.861609 h -0.38573 l -0.76766,-1.32412 v 0 1.32412 h -0.3617 z m 0.75755,-0.189702 v 0 z m 0,2.051311 v 0 z m -0.9384,-1.909667 v 0 z"
         style="font-style:normal;font-variant:normal;font-weight:bold;font-stretch:normal;font-family:Helvetica;-inkscape-font-specification:'Helvetica Bold';fill:none;stroke:#73777a;stroke-width:0.09;stroke-miterlimit:4;stroke-dasharray:none;stroke-opacity:1"
         id="path1024" />
      <path
         d="m 143.11555,73.78193 h 0.41608 l 0.2972,1.367119 v 0 l 0.258,-1.367119 h 0.41607 l 0.26685,1.351943 v 0 l 0.31238,-1.351943 h 0.39205 l -0.52611,1.861609 h -0.3794 l -0.27697,-1.454382 v 0 l -0.28834,1.454382 h -0.3617 z"
         style="font-style:normal;font-variant:normal;font-weight:bold;font-stretch:normal;font-family:Helvetica;-inkscape-font-specification:'Helvetica Bold';fill:none;stroke:#73777a;stroke-width:0.09;stroke-miterlimit:4;stroke-dasharray:none;stroke-opacity:1"
         id="path1026" />
      <path
         d="M 145.717,75.643539 V 73.78193 h 1.37723 v 0.326288 h -0.9915 v 0.39458 h 0.91309 v 0.326287 h -0.91309 v 0.488167 h 1.03324 v 0.326287 z m 0.72087,-2.051311 v 0 z m 0.36549,2.051311 v 0 z m -1.28492,-1.909667 v 0 z"
         style="font-style:normal;font-variant:normal;font-weight:bold;font-stretch:normal;font-family:Helvetica;-inkscape-font-specification:'Helvetica Bold';fill:none;stroke:#73777a;stroke-width:0.09;stroke-miterlimit:4;stroke-dasharray:none;stroke-opacity:1"
         id="path1028" />
      <path
         d="m 147.42937,73.78193 h 0.40976 l 0.74363,1.293768 v 0 -1.293768 h 0.3617 v 1.861609 h -0.38573 l -0.76766,-1.32412 v 0 1.32412 h -0.3617 z m 0.75755,-0.189702 v 0 z m 0,2.051311 v 0 z m -0.93839,-1.909667 v 0 z"
         style="font-style:normal;font-variant:normal;font-weight:bold;font-stretch:normal;font-family:Helvetica;-inkscape-font-specification:'Helvetica Bold';fill:none;stroke:#73777a;stroke-width:0.09;stroke-miterlimit:4;stroke-dasharray:none;stroke-opacity:1"
         id="path1030" />
      <path
         d="m 149.90435,75.643539 v -0.327552 l 0.96875,-1.207769 v 0 h -0.94472 V 73.78193 h 1.43289 v 0.304788 l -0.98013,1.230534 v 0 h 0.98645 v 0.326287 z m 0.73984,-2.051311 v 0 z m -0.8056,0.141644 v 0 z"
         style="font-style:normal;font-variant:normal;font-weight:bold;font-stretch:normal;font-family:Helvetica;-inkscape-font-specification:'Helvetica Bold';fill:none;stroke:#73777a;stroke-width:0.09;stroke-miterlimit:4;stroke-dasharray:none;stroke-opacity:1"
         id="path1032" />
      <path
         d="m 151.33724,75.691597 0.58681,-1.957725 h 0.30352 l -0.58681,1.957725 z"
         style="font-style:normal;font-variant:normal;font-weight:bold;font-stretch:normal;font-family:Helvetica;-inkscape-font-specification:'Helvetica Bold';fill:none;stroke:#73777a;stroke-width:0.09;stroke-miterlimit:4;stroke-dasharray:none;stroke-opacity:1"
         id="path1034" />
      <path
         d="m 152.30219,74.11707 q 0.2719,0 0.3832,-0.08979 0.11129,-0.08979 0.1252,-0.222584 h 0.29973 v 1.838845 h -0.36297 v -1.272268 h -0.44516 z"
         style="font-style:normal;font-variant:normal;font-weight:bold;font-stretch:normal;font-family:Helvetica;-inkscape-font-specification:'Helvetica Bold';fill:none;stroke:#73777a;stroke-width:0.09;stroke-miterlimit:4;stroke-dasharray:none;stroke-opacity:1"
         id="path1036" />
      <path
         d="m 153.65034,75.135138 h 0.36296 v 0 q 0.0379,0.255465 0.2542,0.255465 0.11382,0 0.19603,-0.08347 0.0822,-0.08347 0.0822,-0.250407 0,-0.139115 -0.0696,-0.231437 -0.0695,-0.09232 -0.20867,-0.09232 -0.16061,0 -0.23776,0.134056 l -0.32249,-0.01391 0.1252,-1.010479 h 1.00795 v 0.312376 h -0.74237 v 0 l -0.0683,0.386992 q 0.14038,-0.09991 0.31744,-0.09991 0.24281,0 0.40469,0.160615 0.16188,0.160614 0.16188,0.424932 0,0.284553 -0.17199,0.469197 -0.172,0.184643 -0.47932,0.184643 -0.25673,0 -0.42367,-0.139115 -0.16693,-0.140379 -0.18843,-0.407227 z"
         style="font-style:normal;font-variant:normal;font-weight:bold;font-stretch:normal;font-family:Helvetica;-inkscape-font-specification:'Helvetica Bold';fill:none;stroke:#73777a;stroke-width:0.09;stroke-miterlimit:4;stroke-dasharray:none;stroke-opacity:1"
         id="path1038" />
      <path
         d="m 154.93905,75.691597 0.58681,-1.957725 h 0.30352 l -0.58681,1.957725 z"
         style="font-style:normal;font-variant:normal;font-weight:bold;font-stretch:normal;font-family:Helvetica;-inkscape-font-specification:'Helvetica Bold';fill:none;stroke:#73777a;stroke-width:0.09;stroke-miterlimit:4;stroke-dasharray:none;stroke-opacity:1"
         id="path1040" />
      <path
         d="m 155.82685,74.750675 q 0,-0.490696 0.15682,-0.718338 0.15682,-0.227643 0.4869,-0.227643 0.34653,0 0.4907,0.246613 0.14417,0.245348 0.14417,0.736044 0,0.894129 -0.64372,0.894129 -0.63487,0 -0.63487,-0.930805 z m 0.36802,-0.02782 q 0,0.39458 0.0594,0.531166 0.0594,0.136585 0.21373,0.136585 0.16947,0 0.21879,-0.164408 0.0506,-0.165673 0.0506,-0.558989 0,-0.307317 -0.0632,-0.438844 -0.062,-0.132791 -0.21247,-0.132791 -0.16061,0 -0.21373,0.160614 -0.0531,0.160615 -0.0531,0.466667 z"
         style="font-style:normal;font-variant:normal;font-weight:bold;font-stretch:normal;font-family:Helvetica;-inkscape-font-specification:'Helvetica Bold';fill:none;stroke:#73777a;stroke-width:0.09;stroke-miterlimit:4;stroke-dasharray:none;stroke-opacity:1"
         id="path1042" />
      <path
         d="m 157.25215,75.074433 h 0.36296 v 0 q 0.0101,0.31617 0.26558,0.31617 0.12268,0 0.19856,-0.07588 0.0759,-0.07588 0.0759,-0.216261 0,-0.136585 -0.0974,-0.198555 -0.0961,-0.06323 -0.31997,-0.06323 v 0 -0.257994 h 0.0582 q 0.30226,0 0.30226,-0.24029 0,-0.107497 -0.0632,-0.174525 -0.0632,-0.06829 -0.17579,-0.06829 -0.24787,0 -0.2504,0.295935 h -0.32882 q 0,-0.271906 0.15555,-0.428727 0.15682,-0.158085 0.44264,-0.158085 0.26179,0 0.42494,0.134057 0.16314,0.134056 0.16314,0.369286 0,0.246613 -0.22638,0.361699 0.28329,0.11635 0.28329,0.427462 0,0.25673 -0.17453,0.421138 -0.17326,0.163144 -0.4654,0.163144 -0.30605,0 -0.46161,-0.154291 -0.15555,-0.155556 -0.16946,-0.452756 z"
         style="font-style:normal;font-variant:normal;font-weight:bold;font-stretch:normal;font-family:Helvetica;-inkscape-font-specification:'Helvetica Bold';fill:none;stroke:#73777a;stroke-width:0.09;stroke-miterlimit:4;stroke-dasharray:none;stroke-opacity:1"
         id="path1044" />
      <path
         d="m 158.71032,74.750675 q 0,-0.490696 0.15682,-0.718338 0.15682,-0.227643 0.4869,-0.227643 0.34653,0 0.4907,0.246613 0.14417,0.245348 0.14417,0.736044 0,0.894129 -0.64372,0.894129 -0.63487,0 -0.63487,-0.930805 z m 0.36802,-0.02782 q 0,0.39458 0.0594,0.531166 0.0594,0.136585 0.21373,0.136585 0.16947,0 0.21879,-0.164408 0.0506,-0.165673 0.0506,-0.558989 0,-0.307317 -0.0632,-0.438844 -0.062,-0.132791 -0.21247,-0.132791 -0.16061,0 -0.21373,0.160614 -0.0531,0.160615 -0.0531,0.466667 z"
         style="font-style:normal;font-variant:normal;font-weight:bold;font-stretch:normal;font-family:Helvetica;-inkscape-font-specification:'Helvetica Bold';fill:none;stroke:#73777a;stroke-width:0.09;stroke-miterlimit:4;stroke-dasharray:none;stroke-opacity:1"
         id="path1046" />
      <path
         d="m 159.98259,75.691597 0.58681,-1.957725 h 0.30352 l -0.58681,1.957725 z"
         style="font-style:normal;font-variant:normal;font-weight:bold;font-stretch:normal;font-family:Helvetica;-inkscape-font-specification:'Helvetica Bold';fill:none;stroke:#73777a;stroke-width:0.09;stroke-miterlimit:4;stroke-dasharray:none;stroke-opacity:1"
         id="path1048" />
      <path
         d="m 160.94754,74.11707 q 0.27191,0 0.3832,-0.08979 0.11129,-0.08979 0.1252,-0.222584 h 0.29973 v 1.838845 h -0.36296 v -1.272268 h -0.44517 z"
         style="font-style:normal;font-variant:normal;font-weight:bold;font-stretch:normal;font-family:Helvetica;-inkscape-font-specification:'Helvetica Bold';fill:none;stroke:#73777a;stroke-width:0.09;stroke-miterlimit:4;stroke-dasharray:none;stroke-opacity:1"
         id="path1050" />
      <path
         d="m 162.59416,74.668471 q -0.22132,-0.122674 -0.22132,-0.360434 0,-0.227642 0.15935,-0.365492 0.15935,-0.137851 0.41987,-0.137851 0.24788,0 0.41229,0.128998 0.16567,0.128997 0.16567,0.35664 0,0.241554 -0.20994,0.365492 0.16567,0.09232 0.21753,0.192232 0.0531,0.09865 0.0531,0.236495 0,0.266847 -0.17452,0.43252 -0.17326,0.164409 -0.4692,0.164409 -0.27064,0 -0.45275,-0.145438 -0.18212,-0.145439 -0.18212,-0.424933 0,-0.302258 0.28203,-0.442638 z m 0.086,0.436315 q 0,0.123938 0.0696,0.204878 0.0708,0.08094 0.20361,0.08094 0.11762,0 0.1935,-0.07462 0.0759,-0.07462 0.0759,-0.209937 0,-0.120144 -0.0708,-0.199819 -0.0708,-0.07968 -0.20235,-0.07968 -0.11888,0 -0.19476,0.07335 -0.0746,0.07209 -0.0746,0.204879 z m 0.0379,-0.789161 q 0,0.104969 0.0696,0.169467 0.0696,0.0645 0.16947,0.0645 0.0936,0 0.16061,-0.05818 0.067,-0.05818 0.067,-0.170732 0,-0.103704 -0.062,-0.164408 -0.062,-0.0607 -0.16061,-0.0607 -0.11129,0 -0.17832,0.05817 -0.0658,0.05818 -0.0658,0.161879 z"
         style="font-style:normal;font-variant:normal;font-weight:bold;font-stretch:normal;font-family:Helvetica;-inkscape-font-specification:'Helvetica Bold';fill:none;stroke:#73777a;stroke-width:0.09;stroke-miterlimit:4;stroke-dasharray:none;stroke-opacity:1"
         id="path1052" />
    </g>
    <g
       aria-label="Z/15/023/18"
       style="font-style:normal;font-weight:normal;font-size:2.590065px;line-height:125%;font-family:sans-serif;letter-spacing:0px;word-spacing:0px;fill:none;fill-opacity:1;stroke:#73777a;stroke-width:0.09;stroke-linecap:butt;stroke-linejoin:miter;stroke-miterlimit:4;stroke-dasharray:none;stroke-opacity:1"
       id="text987-9">
      <path
         d="m 45.76734,75.62999 v -0.327553 l 0.968745,-1.207769 v 0 H 45.791369 V 73.76838 h 1.432882 v 0.304788 l -0.980127,1.230534 v 0 h 0.986451 v 0.326288 z m 0.739838,-2.051312 v 0 z m -0.805602,0.141645 v 0 z"
         style="font-style:normal;font-variant:normal;font-weight:bold;font-stretch:normal;font-family:Helvetica;-inkscape-font-specification:'Helvetica Bold';fill:none;stroke:#73777a;stroke-width:0.09;stroke-miterlimit:4;stroke-dasharray:none;stroke-opacity:1"
         id="path1055" />
      <path
         d="m 47.200222,75.678047 0.586812,-1.957724 h 0.303523 l -0.586811,1.957724 z"
         style="font-style:normal;font-variant:normal;font-weight:bold;font-stretch:normal;font-family:Helvetica;-inkscape-font-specification:'Helvetica Bold';fill:none;stroke:#73777a;stroke-width:0.09;stroke-miterlimit:4;stroke-dasharray:none;stroke-opacity:1"
         id="path1057" />
      <path
         d="m 48.165173,74.103521 q 0.271907,0 0.383198,-0.08979 0.111292,-0.08979 0.125204,-0.222583 h 0.299729 v 1.838845 h -0.362963 v -1.272269 h -0.445168 z"
         style="font-style:normal;font-variant:normal;font-weight:bold;font-stretch:normal;font-family:Helvetica;-inkscape-font-specification:'Helvetica Bold';fill:none;stroke:#73777a;stroke-width:0.09;stroke-miterlimit:4;stroke-dasharray:none;stroke-opacity:1"
         id="path1059" />
      <path
         d="m 49.513322,75.121588 h 0.362964 v 0 q 0.03794,0.255466 0.2542,0.255466 0.113822,0 0.196026,-0.08347 0.0822,-0.08347 0.0822,-0.250407 0,-0.139115 -0.06956,-0.231436 -0.06956,-0.09232 -0.208673,-0.09232 -0.160614,0 -0.237759,0.134056 l -0.322494,-0.01391 0.125203,-1.01048 h 1.007951 v 0.312376 h -0.742368 v 0 l -0.06829,0.386992 q 0.140379,-0.09991 0.317434,-0.09991 0.242819,0 0.404698,0.160615 0.161879,0.160614 0.161879,0.424932 0,0.284553 -0.171997,0.469197 -0.171996,0.184643 -0.479313,0.184643 -0.25673,0 -0.423668,-0.139115 -0.166938,-0.140379 -0.188438,-0.407227 z"
         style="font-style:normal;font-variant:normal;font-weight:bold;font-stretch:normal;font-family:Helvetica;-inkscape-font-specification:'Helvetica Bold';fill:none;stroke:#73777a;stroke-width:0.09;stroke-miterlimit:4;stroke-dasharray:none;stroke-opacity:1"
         id="path1061" />
      <path
         d="m 50.802031,75.678047 0.586812,-1.957724 h 0.303523 l -0.586811,1.957724 z"
         style="font-style:normal;font-variant:normal;font-weight:bold;font-stretch:normal;font-family:Helvetica;-inkscape-font-specification:'Helvetica Bold';fill:none;stroke:#73777a;stroke-width:0.09;stroke-miterlimit:4;stroke-dasharray:none;stroke-opacity:1"
         id="path1063" />
      <path
         d="m 51.689837,74.737125 q 0,-0.490695 0.15682,-0.718338 0.156821,-0.227642 0.486902,-0.227642 0.346523,0 0.490696,0.246612 0.144174,0.245348 0.144174,0.736044 0,0.894129 -0.643722,0.894129 -0.63487,0 -0.63487,-0.930805 z m 0.368022,-0.02782 q 0,0.394581 0.05944,0.531166 0.05944,0.136586 0.213731,0.136586 0.169467,0 0.21879,-0.164409 0.05059,-0.165673 0.05059,-0.558988 0,-0.307318 -0.06323,-0.438844 -0.06197,-0.132792 -0.212466,-0.132792 -0.160615,0 -0.213731,0.160614 -0.05312,0.160615 -0.05312,0.466667 z"
         style="font-style:normal;font-variant:normal;font-weight:bold;font-stretch:normal;font-family:Helvetica;-inkscape-font-specification:'Helvetica Bold';fill:none;stroke:#73777a;stroke-width:0.09;stroke-miterlimit:4;stroke-dasharray:none;stroke-opacity:1"
         id="path1065" />
      <path
         d="m 53.115131,75.62999 q 0,-0.231437 0.106234,-0.402169 0.106233,-0.170731 0.408491,-0.393315 0.250407,-0.183379 0.313641,-0.276965 0.06323,-0.09359 0.06323,-0.193496 0,-0.111292 -0.0645,-0.189702 -0.06323,-0.07967 -0.190966,-0.07967 -0.139115,0 -0.194761,0.08726 -0.05565,0.08726 -0.05565,0.25673 v 0 h -0.362963 v 0 -0.05312 q 0,-0.240289 0.150497,-0.417344 0.151761,-0.177055 0.45149,-0.177055 0.263054,0 0.446433,0.149232 0.183378,0.147967 0.183378,0.424932 0,0.188438 -0.09106,0.328817 -0.08979,0.139115 -0.35664,0.323758 -0.292141,0.202349 -0.347787,0.289612 v 0 h 0.795484 v 0.322494 h -1.254563 z"
         style="font-style:normal;font-variant:normal;font-weight:bold;font-stretch:normal;font-family:Helvetica;-inkscape-font-specification:'Helvetica Bold';fill:none;stroke:#73777a;stroke-width:0.09;stroke-miterlimit:4;stroke-dasharray:none;stroke-opacity:1"
         id="path1067" />
      <path
         d="m 54.556867,75.060884 h 0.362963 v 0 q 0.01012,0.31617 0.265583,0.31617 0.122674,0 0.198555,-0.07588 0.07588,-0.07588 0.07588,-0.216261 0,-0.136585 -0.09738,-0.198554 -0.09612,-0.06323 -0.319964,-0.06323 v 0 -0.257995 h 0.05817 q 0.302259,0 0.302259,-0.240289 0,-0.107498 -0.06323,-0.174526 -0.06323,-0.06829 -0.175791,-0.06829 -0.247877,0 -0.250406,0.295935 H 54.58469 q 0,-0.271906 0.155555,-0.428726 0.156821,-0.158085 0.442638,-0.158085 0.261789,0 0.424933,0.134056 0.163144,0.134056 0.163144,0.369286 0,0.246613 -0.226378,0.361699 0.283288,0.11635 0.283288,0.427462 0,0.25673 -0.174526,0.421138 -0.173261,0.163144 -0.465402,0.163144 -0.306052,0 -0.461608,-0.154291 -0.155556,-0.155556 -0.169467,-0.452755 z"
         style="font-style:normal;font-variant:normal;font-weight:bold;font-stretch:normal;font-family:Helvetica;-inkscape-font-specification:'Helvetica Bold';fill:none;stroke:#73777a;stroke-width:0.09;stroke-miterlimit:4;stroke-dasharray:none;stroke-opacity:1"
         id="path1069" />
      <path
         d="m 55.845576,75.678047 0.586811,-1.957724 h 0.303524 l -0.586812,1.957724 z"
         style="font-style:normal;font-variant:normal;font-weight:bold;font-stretch:normal;font-family:Helvetica;-inkscape-font-specification:'Helvetica Bold';fill:none;stroke:#73777a;stroke-width:0.09;stroke-miterlimit:4;stroke-dasharray:none;stroke-opacity:1"
         id="path1071" />
      <path
         d="m 56.810527,74.103521 q 0.271907,0 0.383198,-0.08979 0.111292,-0.08979 0.125204,-0.222583 h 0.299729 v 1.838845 h -0.362963 v -1.272269 h -0.445168 z"
         style="font-style:normal;font-variant:normal;font-weight:bold;font-stretch:normal;font-family:Helvetica;-inkscape-font-specification:'Helvetica Bold';fill:none;stroke:#73777a;stroke-width:0.09;stroke-miterlimit:4;stroke-dasharray:none;stroke-opacity:1"
         id="path1073" />
      <path
         d="m 58.457141,74.654921 q -0.221319,-0.122674 -0.221319,-0.360434 0,-0.227642 0.159349,-0.365492 0.15935,-0.13785 0.419874,-0.13785 0.247878,0 0.412286,0.128997 0.165673,0.128997 0.165673,0.35664 0,0.241554 -0.209937,0.365492 0.165673,0.09232 0.217525,0.192232 0.05312,0.09864 0.05312,0.236495 0,0.266848 -0.174526,0.432521 -0.173261,0.164408 -0.469196,0.164408 -0.270642,0 -0.452756,-0.145438 -0.182114,-0.145438 -0.182114,-0.424933 0,-0.302258 0.282024,-0.442638 z m 0.086,0.436315 q 0,0.123939 0.06956,0.204878 0.07082,0.08094 0.203614,0.08094 0.117615,0 0.193496,-0.07462 0.07588,-0.07462 0.07588,-0.209936 0,-0.120145 -0.07082,-0.19982 -0.07082,-0.07967 -0.202349,-0.07967 -0.11888,0 -0.194761,0.07335 -0.07462,0.07209 -0.07462,0.204878 z m 0.03794,-0.789161 q 0,0.104969 0.06956,0.169468 0.06956,0.0645 0.169467,0.0645 0.09359,0 0.160614,-0.05817 0.06703,-0.05818 0.06703,-0.170732 0,-0.103704 -0.06197,-0.164408 -0.06197,-0.0607 -0.160614,-0.0607 -0.111292,0 -0.17832,0.05818 -0.06576,0.05818 -0.06576,0.161879 z"
         style="font-style:normal;font-variant:normal;font-weight:bold;font-stretch:normal;font-family:Helvetica;-inkscape-font-specification:'Helvetica Bold';fill:none;stroke:#73777a;stroke-width:0.09;stroke-miterlimit:4;stroke-dasharray:none;stroke-opacity:1"
         id="path1075" />
    </g>
  </g>
</svg>
