<?xml version="1.0" encoding="UTF-8" standalone="no"?>
<!-- Created with Inkscape (http://www.inkscape.org/) -->
<svg
   xmlns:dc="http://purl.org/dc/elements/1.1/"
   xmlns:cc="http://web.resource.org/cc/"
   xmlns:rdf="http://www.w3.org/1999/02/22-rdf-syntax-ns#"
   xmlns:svg="http://www.w3.org/2000/svg"
   xmlns="http://www.w3.org/2000/svg"
   xmlns:xlink="http://www.w3.org/1999/xlink"
   xmlns:sodipodi="http://sodipodi.sourceforge.net/DTD/sodipodi-0.dtd"
   xmlns:inkscape="http://www.inkscape.org/namespaces/inkscape"
   width="346.70999"
   height="79.290001"
   id="svg2"
   sodipodi:version="0.32"
   inkscape:version="0.45"
   sodipodi:docbase="F:\License plates"
   sodipodi:docname="Romanian license plate.svg"
   inkscape:output_extension="org.inkscape.output.svg.inkscape"
   version="1.0"
   sodipodi:modified="true">
  <defs
     id="defs4">
    <g
       id="s">
      <g
         id="c">
        <path
           transform="matrix(0.9510565,0.309017,-0.309017,0.9510565,0,-1)"
           d="M 0,0 L 0,1 L 0.5,1 L 0,0 z "
           id="t" />
        <use
           id="use3302"
           transform="scale(-1,1)"
           xlink:href="#t"
           x="0"
           y="0"
           width="744.09448"
           height="1052.3622" />
      </g>
      <g
         id="a">
        <use
           id="use3305"
           transform="matrix(0.309017,0.9510565,-0.9510565,0.309017,0,0)"
           xlink:href="#c"
           x="0"
           y="0"
           width="744.09448"
           height="1052.3622" />
        <use
           id="use3307"
           transform="matrix(-0.809017,0.5877853,-0.5877853,-0.809017,0,0)"
           xlink:href="#c"
           x="0"
           y="0"
           width="744.09448"
           height="1052.3622" />
      </g>
      <use
         id="use3309"
         transform="scale(-1,1)"
         xlink:href="#a"
         x="0"
         y="0"
         width="744.09448"
         height="1052.3622" />
    </g>
  </defs>
  <sodipodi:namedview
     id="base"
     pagecolor="#ffffff"
     bordercolor="#666666"
     borderopacity="1.0"
     inkscape:pageopacity="0.0"
     inkscape:pageshadow="2"
     inkscape:zoom="1.1648808"
     inkscape:cx="206.78553"
     inkscape:cy="27.827342"
     inkscape:document-units="px"
     inkscape:current-layer="layer1"
     inkscape:window-width="1024"
     inkscape:window-height="742"
     inkscape:window-x="0"
     inkscape:window-y="0"
     showgrid="true"
     showguides="true"
     inkscape:guide-bbox="true"
     width="346.71px"
     height="79.29px" />
  <metadata
     id="metadata7">
    <rdf:RDF>
      <cc:Work
         rdf:about="">
        <dc:format>image/svg+xml</dc:format>
        <dc:type
           rdf:resource="http://purl.org/dc/dcmitype/StillImage" />
      </cc:Work>
    </rdf:RDF>
  </metadata>
  <g
     inkscape:label="Capa 1"
     inkscape:groupmode="layer"
     id="layer1"
     transform="translate(-5.5279208,-5.095195)">
    <rect
       style="fill:#ffffff;fill-opacity:1;stroke:#000000;stroke-width:3.09279561;stroke-miterlimit:4;stroke-dasharray:none;stroke-opacity:1"
       id="rect2221"
       width="335.62152"
       height="69.192917"
       x="11.07223"
       y="10.143804"
       ry="5.3568945" />
    <path
       style="fill:#003399;fill-opacity:1;fill-rule:evenodd;stroke:#003399;stroke-width:1px;stroke-linecap:butt;stroke-linejoin:miter;stroke-opacity:1"
       d="M 42.868685,10.363284 L 42.868685,79.30619 L 16.327325,79.30619 C 13.202305,79.2944 11.615076,77.74483 11.182541,75.04056 L 11.276562,15.666585 C 11.655475,12.509964 13.25521,10.574165 16.327325,10.110746 L 42.868685,10.363284 z "
       id="path3214"
       sodipodi:nodetypes="ccccccc" />
    <g
       style="fill:#ffcc00"
       transform="matrix(1.6138444,0,0,1.6138444,27.337182,32.052517)"
       id="g3313">
      <use
         height="1052.3622"
         width="744.09448"
         x="0"
         xlink:href="#s"
         y="-6"
         id="use3315" />
      <use
         height="1052.3622"
         width="744.09448"
         x="0"
         xlink:href="#s"
         y="6"
         id="use3317" />
      <g
         id="l">
        <use
           height="1052.3622"
           width="744.09448"
           y="0"
           xlink:href="#s"
           x="-6"
           id="use3320" />
        <use
           height="1052.3622"
           width="744.09448"
           y="0"
           x="0"
           xlink:href="#s"
           transform="matrix(-0.809017,-0.5877853,0.5877853,-0.809017,-3,-5.1961524)"
           id="use3322" />
        <use
           height="1052.3622"
           width="744.09448"
           y="0"
           x="0"
           xlink:href="#s"
           transform="matrix(-0.809017,0.5877853,-0.5877853,-0.809017,-5.1961524,-3)"
           id="use3324" />
        <use
           height="1052.3622"
           width="744.09448"
           y="0"
           x="0"
           xlink:href="#s"
           transform="matrix(0.309017,0.9510565,-0.9510565,0.309017,-5.1961524,3)"
           id="use3326" />
        <use
           height="1052.3622"
           width="744.09448"
           y="0"
           x="0"
           xlink:href="#s"
           transform="matrix(0.309017,0.9510565,-0.9510565,0.309017,-3,5.1961524)"
           id="use3328" />
      </g>
      <use
         height="1052.3622"
         width="744.09448"
         y="0"
         x="0"
         xlink:href="#l"
         transform="scale(-1,1)"
         id="use3330" />
    </g>
    <path
       transform="scale(0.8221819,1.2162758)"
       style="font-size:20.03504753px;font-style:normal;font-weight:normal;fill:#ffffff;fill-opacity:1;stroke:#ffffff;stroke-width:0.2;stroke-linecap:butt;stroke-linejoin:miter;stroke-miterlimit:4;stroke-opacity:1;font-family:Bitstream Vera Sans"
       d="M 24.564069,42.648203 L 24.564069,46.972173 L 27.831503,46.972173 C 28.640202,46.972181 29.246731,46.747178 29.651093,46.297164 C 30.055437,45.847167 30.257613,45.3189 30.257622,44.712361 C 30.257613,43.988449 30.016306,43.447138 29.5337,43.088426 C 29.129338,42.794956 28.604332,42.648215 27.958679,42.648203 L 24.564069,42.648203 z M 22.402084,54.984236 L 22.402084,40.730786 L 27.978244,40.730786 C 29.197817,40.730801 30.163047,41.043848 30.873935,41.669929 C 31.271756,42.015599 31.60926,42.4493 31.886448,42.971033 C 32.163615,43.492791 32.302203,44.073233 32.302215,44.712361 C 32.302203,45.631947 32.056005,46.445544 31.563618,47.153154 C 31.07121,47.860779 30.394571,48.361329 29.5337,48.654804 L 32.840265,54.984236 L 30.277188,54.984236 L 27.332584,48.899373 L 24.564069,48.899373 L 24.564069,54.984236 L 22.402084,54.984236 z M 34.131587,47.862402 C 34.131586,46.147171 34.177239,45.041723 34.268545,44.546054 C 34.35985,44.050406 34.522895,43.593879 34.757682,43.176471 C 35.090293,42.55691 35.636496,41.973207 36.396291,41.425361 C 37.15608,40.877542 38.096852,40.603625 39.218611,40.603611 C 40.333836,40.603625 41.271347,40.877542 42.031148,41.425361 C 42.790931,41.973207 43.343655,42.55691 43.689322,43.176471 C 43.917575,43.593879 44.07736,44.050406 44.168676,44.546054 C 44.259971,45.041723 44.305623,46.147171 44.305635,47.862402 C 44.305623,49.577648 44.259971,50.683096 44.168676,51.178751 C 44.07736,51.674413 43.917575,52.13094 43.689322,52.548334 C 43.343655,53.174431 42.790931,53.756503 42.031148,54.294553 C 41.271347,54.832603 40.333836,55.101628 39.218611,55.101629 C 38.096852,55.101628 37.15608,54.832603 36.396291,54.294553 C 35.636496,53.756503 35.090293,53.174431 34.757682,52.548334 C 34.522895,52.13094 34.35985,51.674413 34.268545,51.178751 C 34.177239,50.683096 34.131586,49.577648 34.131587,47.862402 L 34.131587,47.862402 z M 36.293572,47.862402 C 36.293569,49.329819 36.344113,50.282004 36.445205,50.718962 C 36.54629,51.155928 36.737053,51.550498 37.017495,51.902673 C 37.232711,52.189636 37.526193,52.435835 37.897941,52.64127 C 38.26968,52.84671 38.709903,52.949428 39.218611,52.949426 C 39.727307,52.949428 40.167529,52.84671 40.539281,52.64127 C 40.911017,52.435835 41.204499,52.189636 41.419727,51.902673 C 41.700157,51.550498 41.89092,51.155928 41.992017,50.718962 C 42.093096,50.282004 42.143641,49.329819 42.14365,47.862402 C 42.143641,46.401522 42.093096,45.452597 41.992017,45.015626 C 41.89092,44.578674 41.700157,44.177582 41.419727,43.812349 C 41.204499,43.538444 40.911017,43.297136 40.539281,43.088426 C 40.167529,42.87974 39.727307,42.775391 39.218611,42.775379 C 38.709903,42.775391 38.26968,42.87974 37.897941,43.088426 C 37.526193,43.297136 37.232711,43.538444 37.017495,43.812349 C 36.737053,44.177582 36.54629,44.578674 36.445205,45.015626 C 36.344113,45.452597 36.293569,46.401522 36.293572,47.862402 L 36.293572,47.862402 z "
       id="text3367" />
    <path
       transform="scale(1.0163938,0.9838706)"
       style="font-size:68.1003952px;font-style:normal;font-weight:normal;fill:#000000;fill-opacity:1;stroke:none;stroke-width:1px;stroke-linecap:butt;stroke-linejoin:miter;stroke-opacity:1;font-family:Bitstream Vera Sans"
       d="M 51.568118,70.319408 L 51.568118,21.871031 L 70.355581,21.871031 C 75.077357,21.871079 78.651959,23.084782 81.079398,25.512141 C 83.506768,27.93959 84.72047,31.059747 84.720508,34.87262 C 84.72047,36.867782 84.232772,38.785321 83.257414,40.625241 C 82.281982,42.465221 80.386611,44.016987 77.571297,45.280542 L 77.571297,45.41355 C 80.231435,46.034281 82.215477,47.436412 83.523431,49.619947 C 84.83131,51.803523 85.485268,54.125629 85.485307,56.586272 C 85.485268,60.776051 84.149642,64.112347 81.478424,66.595167 C 78.807136,69.077996 75.653727,70.319408 72.018188,70.319408 L 51.568118,70.319408 z M 70.222572,48.805269 L 58.916843,48.805269 L 58.916843,63.402961 L 70.222572,63.402961 C 72.949222,63.402968 74.949891,62.66588 76.224585,61.191694 C 77.499219,59.717526 78.136551,58.02721 78.136583,56.120741 C 78.136551,54.214301 77.499219,52.518443 76.224585,51.033163 C 74.949891,49.547921 72.949222,48.805291 70.222572,48.805269 L 70.222572,48.805269 z M 69.557529,28.388452 L 58.916843,28.388452 L 58.916843,42.287849 L 69.557529,42.287849 C 72.195507,42.287877 74.157382,41.61175 75.443159,40.259468 C 76.728879,38.907245 77.371753,37.266808 77.371784,35.33815 C 77.371753,33.476067 76.728879,31.852255 75.443159,30.466711 C 74.157382,29.081246 72.195507,28.388494 69.557529,28.388452 L 69.557529,28.388452 z M 93.066799,70.319408 L 93.066799,21.871031 L 100.0165,21.871031 L 121.92966,56.320254 L 122.06267,56.320254 L 122.06267,21.871031 L 129.44465,21.871031 L 129.44465,70.319408 L 122.49495,70.319408 L 100.58178,35.870184 L 100.41552,35.870184 L 100.41552,70.319408 L 93.066799,70.319408 z "
       id="text3621" />
    <path
       transform="scale(1.0471084,0.955011)"
       style="font-size:70.1583252px;font-style:normal;font-weight:normal;fill:#000000;fill-opacity:1;stroke:none;stroke-width:1px;stroke-linecap:butt;stroke-linejoin:miter;stroke-opacity:1;font-family:Bitstream Vera Sans"
       d="M 153.32144,72.345509 L 153.32144,29.901092 L 146.19598,35.108156 L 146.19598,27.503103 L 153.32144,22.330297 L 160.51541,22.330297 L 160.51541,72.345509 L 153.32144,72.345509 z M 174.97186,36.204379 C 174.97185,38.556727 175.70838,40.338089 177.18144,41.548471 C 178.65447,42.758914 180.30452,43.36412 182.13157,43.364091 C 183.95859,43.36412 185.60864,42.758914 187.08171,41.548471 C 188.55474,40.338089 189.29126,38.556727 189.29128,36.204379 C 189.29126,33.874942 188.55474,32.09929 187.08171,30.877417 C 185.60864,29.655626 183.95859,29.044711 182.13157,29.044667 C 180.30452,29.044711 178.65447,29.655626 177.18144,30.877417 C 175.70838,32.09929 174.97185,33.874942 174.97186,36.204379 L 174.97186,36.204379 z M 166.92147,57.683515 C 166.92147,52.819041 168.88553,49.073614 172.81367,46.447221 C 171.32919,45.122644 170.12449,43.655304 169.19956,42.045197 C 168.27462,40.43515 167.81215,38.533889 167.81215,36.341407 C 167.81215,32.32196 169.18813,28.907683 171.94012,26.098566 C 174.69209,23.289541 178.08923,21.885006 182.13157,21.884956 C 186.17388,21.885006 189.57103,23.289541 192.32303,26.098566 C 195.07498,28.907683 196.45097,32.32196 196.451,36.341407 C 196.45097,38.533889 195.98279,40.43515 195.04646,42.045197 C 194.11007,43.655304 192.9225,45.122644 191.48373,46.447221 C 195.389,49.096452 197.34165,52.841879 197.34168,57.683515 C 197.34165,62.114096 195.84005,65.716787 192.83688,68.491597 C 189.83366,71.266414 186.26523,72.653821 182.13157,72.653822 C 177.97504,72.653821 174.4009,71.266414 171.40913,68.491597 C 168.41735,65.716787 166.92147,62.114096 166.92147,57.683515 L 166.92147,57.683515 z M 174.08118,57.615001 C 174.08117,59.898813 174.88621,61.788655 176.4963,63.284534 C 178.10636,64.78043 179.98479,65.528374 182.13157,65.528367 C 184.25549,65.528374 186.13391,64.78043 187.76685,63.284534 C 189.39974,61.788655 190.2162,59.898813 190.21622,57.615001 C 190.2162,55.331218 189.39974,53.435666 187.76685,51.92834 C 186.13391,50.421054 184.25549,49.667401 182.13157,49.667378 C 179.98479,49.667401 178.10636,50.421054 176.4963,51.92834 C 174.88621,53.435666 174.08117,55.331218 174.08118,57.615001 L 174.08118,57.615001 z "
       id="text3331" />
    <path
       transform="scale(1.0471084,0.955011)"
       style="font-size:70.1583252px;font-style:normal;font-weight:normal;fill:#000000;fill-opacity:1;stroke:none;stroke-width:1px;stroke-linecap:butt;stroke-linejoin:miter;stroke-opacity:1;font-family:Bitstream Vera Sans"
       d="M 244.18978,58.090714 L 252.17165,58.090714 C 251.18958,62.749675 249.08849,66.306689 245.86837,68.761768 C 242.64818,71.216853 238.90275,72.444394 234.63207,72.444395 C 230.70392,72.444394 227.40954,71.502328 224.74893,69.618193 C 222.0883,67.734062 220.17561,65.695773 219.01088,63.503319 C 218.18871,62.041697 217.61776,60.443039 217.29803,58.70734 C 216.9783,56.971667 216.81843,53.100631 216.81844,47.094219 C 216.81843,41.087857 216.9783,37.21682 217.29803,35.481098 C 217.61776,33.745448 218.18871,32.14679 219.01088,30.685118 C 220.17561,28.515552 222.0883,26.471553 224.74893,24.553116 C 227.40954,22.634774 230.70392,21.675579 234.63207,21.675529 C 239.35951,21.675579 243.27052,23.1315 246.36509,26.043296 C 249.45961,28.955183 251.39512,32.432265 252.17165,36.47455 L 244.18978,36.47455 C 243.57312,34.556196 242.42551,32.877605 240.74695,31.438772 C 239.06833,30.00002 237.03004,29.280624 234.63207,29.280582 C 232.85069,29.280624 231.30913,29.646032 230.00738,30.376805 C 228.7056,31.107662 227.67789,31.952667 226.92425,32.911823 C 225.9422,34.190789 225.27419,35.595324 224.92022,37.125433 C 224.56622,38.655612 224.38922,41.978538 224.38923,47.094219 C 224.38922,52.232788 224.56622,55.567132 224.92022,57.097261 C 225.27419,58.62742 225.9422,60.009118 226.92425,61.242358 C 227.67789,62.247239 228.7056,63.109373 230.00738,63.828761 C 231.30913,64.548165 232.85069,64.907863 234.63207,64.907856 C 238.83424,64.907863 242.02014,62.635485 244.18978,58.090714 L 244.18978,58.090714 z M 266.04574,72.033311 L 266.04574,28.835241 L 252.3772,28.835241 L 252.3772,22.12087 L 287.28508,22.12087 L 287.28508,28.835241 L 273.61653,28.835241 L 273.61653,72.033311 L 266.04574,72.033311 z M 292.62917,72.033311 L 292.62917,22.12087 L 300.19997,22.12087 L 300.19997,64.907856 L 324.55669,64.907856 L 324.55669,72.033311 L 292.62917,72.033311 z "
       id="text3335" />
    <rect
       style="fill:none;fill-opacity:1;stroke:#000000;stroke-width:3.09279561;stroke-miterlimit:4;stroke-dasharray:none;stroke-opacity:1"
       id="rect3216"
       width="335.62152"
       height="69.192917"
       x="11.072082"
       y="10.14367"
       ry="5.3568945" />
  </g>
</svg>
