<svg viewBox="0 0 64 64" xmlns="http://www.w3.org/2000/svg"><path d="m48 6.6c-4.6-2.9-10.1-4.6-16-4.6s-11.4 1.7-16 4.6v50.7c4.6 2.9 10.1 4.6 16 4.6s11.4-1.7 16-4.6z" fill="#f9f9f9"/><path d="m48 6.6v50.7c8.4-5.2 14-14.8 14-25.4s-5.6-20-14-25.3m-32 0c-8.4 5.3-14 14.9-14 25.4s5.6 20.1 14 25.4zm26.9 25c-.4-.2-.5-.6-.4-.8l1-3.6-3.5.7c-.1 0-.5 0-.6-.7l-.3-1.2-2.4 2.8s-1.6 1.7-1.1-.9l1-5.5-1.9 1c-.1 0-.5.1-1-.9l-1.7-3.5-1.8 3.3c-.5 1-.9.9-1 .9l-1.9-1 1 5.5c.5 2.6-1.1.9-1.1.9l-2.4-2.8-.3 1.2c-.2.7-.5.7-.6.7l-3.5-.7 1 3.6c0 .3 0 .6-.4.8l-1 .6s4 3.2 5.3 4.3c.3.2.9.8.7 1.5l-.5 1.4 5.5-.8c.3 0 .9 0 .8.9l-.3 5.7h1l-.3-5.7c0-.9.6-.9.8-.9l5.5.8-.5-1.4c-.2-.7.4-1.3.7-1.5 1.3-1.1 5.3-4.3 5.3-4.3z" fill="#ed4c5c"/></svg>