<svg viewBox="0 0 64 64" xmlns="http://www.w3.org/2000/svg"><path d="m32 2v10h-20v20h-10c0 16.6 13.4 30 30 30s30-13.4 30-30-13.4-30-30-30z" fill="#2a5f9e"/><path d="m32 2c-4.7 0-9.1 1.1-13.1 3v6h-7.9v7.9h-6c-1.9 4-3 8.4-3 13.1h12v-15l12 15h6v-7.5l-8.4-10.5h8.4z" fill="#fff"/><g fill="#ed4c5c"><path d="m15.4 14 14.6 18h2v-4.9l-10.6-13.1z"/><path d="m32 5h-13.1c-6 2.9-11 7.9-13.9 13.9v13.1h6v-21h21z"/></g><path d="m8 35.7 2.2-2.7-.7 3.5 3.5.1-3.1 1.6 2.1 2.8-3.1-1.4-.9 3.4-.9-3.4-3.1 1.4 2.1-2.8-3.1-1.6 3.5-.1-.7-3.5zm44-15.5 1.8-2.2-.6 2.8 2.8.1-2.5 1.3 1.7 2.2-2.5-1.2-.7 2.8-.7-2.8-2.5 1.2 1.7-2.2-2.5-1.3 2.8-.1-.6-2.8zm0 20 1.8-2.2-.6 2.8 2.8.1-2.5 1.3 1.7 2.2-2.5-1.2-.7 2.8-.7-2.8-2.5 1.2 1.7-2.2-2.5-1.3 2.8-.1-.6-2.8zm-10-14 1.8-2.2-.6 2.8 2.8.1-2.5 1.3 1.7 2.2-2.5-1.2-.7 2.8-.7-2.8-2.5 1.2 1.7-2.2-2.5-1.3 2.8-.1-.6-2.8z" fill="#fff"/></svg>