<svg viewBox="0 0 64 64" xmlns="http://www.w3.org/2000/svg"><path d="m32 2v10h-20v20h-10c0 16.6 13.4 30 30 30s30-13.4 30-30-13.4-30-30-30z" fill="#2a5f9e"/><g fill="#fff"><path d="m14 8c-7.3 5.5-12 14.2-12 24h12z"/><path d="m8 14h24v-12c-9.8 0-18.5 4.7-24 12z"/><path d="m9.8 11.8 16.2 20.2h6v-7.5l-14.9-18.6c-2.7 1.6-5.2 3.6-7.3 5.9z"/></g><g fill="#ed4c5c"><path d="m32 5h-13.1c-6 2.9-11 7.9-13.9 13.9v13.1h6v-21h21z"/><path d="m32 27.1-13-16.1h-6l17 21h2z"/></g><path d="m37.1 32 1-2.9-2.7-1.9h3.4l1-2.8 1 2.8h3.4l-2.7 1.9 1 2.9-2.7-1.8z" fill="#fff"/><path d="m39.8 29.5 1.6 1.1-.6-1.8 1.6-1.1h-2l-.6-1.7-.6 1.7h-2l1.6 1.1-.6 1.8z" fill="#ed4c5c"/><path d="m54.6 32 1-2.9-2.7-1.9h3.4l1-2.8 1 2.8h3.4l-2.7 1.9 1 2.9-2.7-1.8z" fill="#fff"/><path d="m57.3 29.5 1.6 1.1-.6-1.8 1.6-1.1h-2l-.6-1.7-.6 1.7h-2l1.6 1.1-.6 1.8z" fill="#ed4c5c"/><path d="m45.9 21.7 1-2.9-2.7-1.9h3.4l1-2.8 1 2.8h3.4l-2.7 1.9 1 2.9-2.7-1.8z" fill="#fff"/><path d="m48.5 19.2 1.6 1.1-.6-1.8 1.6-1.1h-1.9l-.7-1.7-.5 1.7h-2l1.6 1.1-.6 1.8z" fill="#ed4c5c"/><path d="m45 48.7 1.3-3.8-3.6-2.5h4.5l1.3-3.7 1.3 3.7h4.4l-3.6 2.5 1.3 3.8-3.5-2.4z" fill="#fff"/><path d="m48.5 45.4 2.1 1.4-.7-2.3 2-1.5h-2.5l-.9-2.2-.7 2.2h-2.6l2 1.5-.7 2.3z" fill="#ed4c5c"/><path d="m12.6 11h12.2v3h-12.2z" fill="#fff"/></svg>