<svg viewBox="0 0 72 56" xmlns="http://www.w3.org/2000/svg"><path fill="white" d="m49.06 30.05a101.71 101.71 0 0 0 -13.06-.79 102.35 102.35 0 0 0 -13.06.79 2 2 0 0 0 -1.45 1.81v6c.41-.05 1.16-.1 2.2-.16v-4.7a1.52 1.52 0 0 1 1.44-1.44 1.25 1.25 0 0 1 1.39 1.23v4.67l4.39-.15v-4.9a1.38 1.38 0 0 1 1.45-1.32 1.33 1.33 0 0 1 1.44 1.27v4.89h4.4v-4.86a1.33 1.33 0 0 1 1.44-1.27 1.45 1.45 0 0 1 1.45 1.32v4.9l4.39.15v-4.67a1.25 1.25 0 0 1 1.39-1.23 1.52 1.52 0 0 1 1.44 1.41v4.62c1 .06 1.79.11 2.2.16v-6a1.8 1.8 0 0 0 -1.45-1.73z"/><path fill="white" d="m36 38.61a142.46 142.46 0 0 0 -20 1.28v12.33h1.5c10.23-.32 17.4-.38 18.5-.38s8.5.06 18.67.38h1.33v-12.33a142.46 142.46 0 0 0 -20-1.28zm-13.06 9.78a1.6 1.6 0 0 1 -1.45 1.44 1.21 1.21 0 0 1 -1.38-1.17v-5.74a1.53 1.53 0 0 1 1.38-1.44 1.3 1.3 0 0 1 1.45 1.17zm7.22-.39a1.49 1.49 0 0 1 -1.44 1.38 1.3 1.3 0 0 1 -1.45-1.22v-5.78a1.5 1.5 0 0 1 1.45-1.38 1.29 1.29 0 0 1 1.44 1.23zm7.28-.11a1.35 1.35 0 0 1 -1.38 1.28 1.38 1.38 0 0 1 -1.45-1.28v-5.77a1.42 1.42 0 0 1 1.45-1.33 1.32 1.32 0 0 1 1.38 1.33zm7.29.27a1.3 1.3 0 0 1 -1.45 1.22 1.46 1.46 0 0 1 -1.44-1.38v-5.77a1.29 1.29 0 0 1 1.44-1.23 1.47 1.47 0 0 1 1.45 1.38zm7.16.53a1.24 1.24 0 0 1 -1.38 1.17 1.5 1.5 0 0 1 -1.39-1.44v-5.77a1.21 1.21 0 0 1 1.39-1.17 1.53 1.53 0 0 1 1.38 1.44z"/><path fill="white" d="m49 28.56a12.52 12.52 0 0 0 -13-12.33 12.45 12.45 0 0 0 -12.95 12.33 104 104 0 0 1 25.95 0z"/><path fill="white" d="m40.16 14.11c0-1.39-1.34-5.47-2.64-5.7a10.11 10.11 0 0 0 -1.52-4.63 10.57 10.57 0 0 0 -1.45 4.65c-1.85.26-2.55 4.35-2.55 5.68a6.09 6.09 0 0 1 -.23 1.33 15.91 15.91 0 0 1 4.28-.54 18.13 18.13 0 0 1 4.27.54 6.29 6.29 0 0 1 -.16-1.33z"/></svg>