<svg height="56" viewBox="0 0 56 56" width="56" xmlns="http://www.w3.org/2000/svg"><path fill="white" d="m25.0117 54.0391c6.75 0 12.2344-5.4844 12.2344-12.2344 0-3.5625-1.4765-6.6797-4.2656-9.2109-.5156-.4688-.6329-.7266-.6329-1.4297l.0469-21.0469c0-4.8985-2.9765-8.1563-7.3828-8.1563-4.4297 0-7.4062 3.2578-7.4062 8.1563l.0234 21.0469c0 .7031-.1172.9609-.6093 1.4297-2.8126 2.5312-4.2657 5.6484-4.2657 9.2109 0 6.75 5.461 12.2344 12.2578 12.2344zm0-3.3984c-4.875 0-8.8359-3.9844-8.8359-8.836 0-2.9297 1.3828-5.5781 3.8672-7.2422.7266-.4922 1.0078-.9375 1.0078-1.8984v-22.4063c0-2.9531 1.6172-4.8515 3.9609-4.8515 2.3203 0 3.9141 1.8984 3.9141 4.8515v22.4063c0 .9609.2812 1.4062 1.0078 1.8984 2.4844 1.6641 3.8672 4.3125 3.8672 7.2422 0 4.8516-3.9375 8.836-8.7891 8.836zm11.7422-40.0782h5.1094c.8203 0 1.3828-.6328 1.3828-1.3594 0-.7265-.5625-1.3593-1.3828-1.3593h-5.1094c-.8203 0-1.3828.6328-1.3828 1.3593 0 .7266.5625 1.3594 1.3828 1.3594zm0 6.586h5.1094c.8203 0 1.3828-.6329 1.3828-1.3594 0-.7266-.5625-1.3594-1.3828-1.3594h-5.1094c-.8203 0-1.3828.6328-1.3828 1.3594 0 .7265.5625 1.3594 1.3828 1.3594zm-11.7656 30.3281c3.1406 0 5.6719-2.5313 5.6719-5.6953 0-2.2032-1.2422-4.0079-3.0469-4.9922-.75-.3984-1.0078-.6797-1.0078-1.8282v-12.4453c0-1.2187-.7032-1.9453-1.6172-1.9453-.8907 0-1.6172.7266-1.6172 1.9453v12.4453c0 1.1485-.2578 1.4298-1.0078 1.8282-1.8047.9843-3.0469 2.789-3.0469 4.9922 0 3.164 2.5312 5.6953 5.6719 5.6953zm11.7656-23.7422h5.1094c.8203 0 1.3828-.6328 1.3828-1.3594 0-.7265-.5625-1.3828-1.3828-1.3828h-5.1094c-.8203 0-1.3828.6563-1.3828 1.3828 0 .7266.5625 1.3594 1.3828 1.3594zm0 6.5859h5.1094c.8203 0 1.3828-.6562 1.3828-1.3828s-.5625-1.3593-1.3828-1.3593h-5.1094c-.8203 0-1.3828.6327-1.3828 1.3593s.5625 1.3828 1.3828 1.3828z"/></svg>