<svg viewBox="0 0 64 64" xmlns="http://www.w3.org/2000/svg"><path d="m2 32c0 5.9 1.7 11.4 4.6 16h50.7c2.9-4.6 4.6-10.1 4.6-16s-1.7-11.4-4.6-16h-50.7c-2.9 4.6-4.6 10.1-4.6 16z" fill="#f9f9f9"/><path d="m57.4 16c-5.3-8.4-14.7-14-25.4-14s-20.1 5.6-25.4 14z" fill="#428bc1"/><path d="m6.6 48c5.3 8.4 14.7 14 25.4 14s20.1-5.6 25.4-14z" fill="#83bf4f"/><path d="m35.1 30.8c.9-1.1 1.4-2.7 1.4-4.5 0-3.5-2-6.2-4.5-6.2s-4.5 2.7-4.5 6.2c0 1.8.5 3.4 1.4 4.5l-6.9 8s0 5.3 10 5.3 10-5.3 10-5.3zm-.4-4.6c0 1.2-.3 2.3-.8 3.1l-1.5-1.7v-1.6l1.4-.7-1.4-.7v-2.8c1.3.4 2.3 2.3 2.3 4.4m-5.4 0c0-2.2 1-4 2.3-4.4v2.8l-1.4.7 1.4.7v1.6l-1.5 1.7c-.5-.8-.8-1.9-.8-3.1" fill="#3e4347"/></svg>