<svg viewBox="0 0 64 64" xmlns="http://www.w3.org/2000/svg"><path d="m60.9 40c.7-2.5 1.1-5.2 1.1-8s-.4-5.5-1.1-8h-29.2l-16.9-16.6c-4 2.8-7.3 6.6-9.6 11l13.8 13.6-13.7 13.6c2.2 4.4 5.5 8.2 9.6 11l16.8-16.6z" fill="#699635"/><path d="m3.5 22.5c-1 3-1.5 6.2-1.5 9.5s.5 6.5 1.5 9.5l9.6-9.5z" fill="#3e4347"/><path d="m18.3 58.7c4.1 2.1 8.8 3.3 13.7 3.3 12.3 0 22.9-7.4 27.5-18.1h-26.1z" fill="#428bc1"/><path d="m59.5 20.1c-4.6-10.7-15.2-18.1-27.5-18.1-4.9 0-9.6 1.2-13.7 3.3l15.1 14.8z" fill="#ed4c5c"/><path d="m60.5 22.7c-.3-.9-.6-1.8-1-2.6h-26.1l-15.1-14.8c-.7.3-1.3.7-2 1.1-.5.3-1 .7-1.5 1l16.9 16.6h29.2c-.1-.4-.2-.9-.4-1.3" fill="#fff"/><path d="m5.3 18.4c-.1.2-.2.4-.3.7-.5 1.1-1 2.2-1.4 3.4l9.6 9.5-9.6 9.5c.4 1.2.8 2.3 1.4 3.4.1.2.2.4.3.7l13.7-13.6z" fill="#ffce31"/><path d="m31.7 40-16.9 16.6c.3.2.7.5 1 .7.8.5 1.6 1 2.5 1.4l15.1-14.8h26.1c.4-1 .8-2 1.2-3.1.1-.3.1-.5.2-.8z" fill="#fff"/></svg>