<svg viewBox="0 0 64 64" xmlns="http://www.w3.org/2000/svg"><path d="m32 2c-10.3 0-19.3 5.1-24.7 13h49.4c-5.4-7.9-14.4-13-24.7-13zm0 60c10.3 0 19.3-5.1 24.7-13h-49.4c5.4 7.9 14.4 13 24.7 13z" fill="#2a5f9e"/><path d="m59 19h-54c-1.9 3.9-3 8.3-3 13s1.1 9.1 3 13h54c1.9-3.9 3-8.3 3-13s-1.1-9.1-3-13" fill="#c94747"/><g fill="#ffce31"><path d="m5 45c.7 1.4 1.5 2.7 2.3 4h49.4c.9-1.3 1.7-2.6 2.3-4zm54-26c-.7-1.4-1.5-2.7-2.3-4h-49.4c-.9 1.3-1.7 2.6-2.3 4zm-.6 12.6h-52.8c-.3 0-.5.2-.5.4s.2.4.5.4h52.8c.3 0 .5-.2.5-.4s-.2-.4-.5-.4m-46-3.1h38.8l1.8.6 2.7-.9-2.7-.9-1.8.6h-38.8c-.2 0-.3.1-.3.3s.2.3.3.3"/><path d="m9.9 30.2h38.8l1.8.6 2.7-.9-2.7-.9-1.8.6h-38.8c-.2 0-.3.1-.3.3s.1.3.3.3"/></g><path d="m47.5 32c-3.2 2.9-7.4 8.8-15.8 8.8-7.4 0-4.9-8.8-4.9-8.8s-2.5-8.8 4.9-8.8c8.4 0 12.7 5.9 15.8 8.8" fill="#fff"/><path d="m30.6 26.3c.8.9.1 1.2 1 1.3s.4.9 1.2 1c.6 0-.1 2.1.5 2.7.5.7 1 .2 1 .7s-1.5.5-1.5 2.1c0 .9-1.3 1-1.3 1.6-.1.6 2.4.9 2.3 1.4s-2.6.4-2.8 1c0 .4 3.7.9 4 2.3-.5.2-2.1.3-3.3.3-7.4 0-12.6-5.8-15.8-8.8 3.2-2.9 8.4-8.8 15.8-8.8 0 .1-2.2 2-1.1 3.2" fill="#3e4347"/><path d="m21.8 28.9h.8v2.3h-.8zm0 3.9h.8v2.3h-.8zm1.5-3.9h.8v2.3h-.8zm0 3.9h.8v2.3h-.8zm1.6-3.9h.8v2.3h-.8zm0 3.9h.8v2.3h-.8zm1.5-3.9h.8v2.3h-.8zm0 3.9h.8v2.3h-.8zm1.5-3.9h.8v2.3h-.8zm0 3.9h.8v2.3h-.8zm1.6-3.9h.8v2.3h-.8zm0 3.9h.8v2.3h-.8z" fill="#fff"/><path d="m33.4 28.9h.8v2.3h-.8zm0 3.9h.8v2.3h-.8zm1.5-3.9h.8v2.3h-.8zm0 3.9h.8v2.3h-.8zm1.6-3.9h.8v2.3h-.8zm0 3.9h.8v2.3h-.8zm1.5-3.9h.8v2.3h-.8zm0 3.9h.8v2.3h-.8zm1.5-3.9h.8v2.3h-.8zm0 3.9h.8v2.3h-.8zm1.6-3.9h.8v2.3h-.8zm0 3.9h.8v2.3h-.8z" fill="#3e4347"/><path d="m29.2 25.8c-3.8-2.6-4.9 1.2-4.6 2.8.5-.5 2.8 1.6 4.2 1.8-1.1-.7 2.4-3.2.4-4.6m27.3 10.5c2.8-3.5-1.3-4.5-3.1-4.2.6.4-1.7 2.6-1.9 3.9.8-1.1 3.5 2.1 5 .3m-47.3-4.5c-4.6.8-2.4 4.1-.8 5.1-.1-.7 3.2-.8 4.3-1.7-1.4.2-1.1-3.9-3.5-3.4" fill="#428bc1"/></svg>