<svg viewBox="0 0 64 64" xmlns="http://www.w3.org/2000/svg"><path d="m32 2c-8.9 0-16.9 3.9-22.4 10h44.7c-5.4-6.1-13.4-10-22.3-10z" fill="#3e4347"/><path d="m54.4 12h-44.8c-2.5 2.9-4.6 6.3-5.9 10h56.6c-1.3-3.7-3.4-7.1-5.9-10" fill="#ffe62e"/><path d="m60.3 22h-56.6c-1.1 3.1-1.7 6.5-1.7 10h60c0-3.5-.6-6.9-1.7-10" fill="#ed4c5c"/><path d="m62 32h-60c0 3.5.6 6.9 1.7 10h56.6c1.1-3.1 1.7-6.5 1.7-10" fill="#3e4347"/><path d="m60.3 42h-56.6c1.3 3.7 3.3 7.1 5.9 10h44.7c2.6-2.9 4.7-6.3 6-10" fill="#ffe62e"/><path d="m54.4 52h-44.8c5.5 6.1 13.5 10 22.4 10s16.9-3.9 22.4-10" fill="#ed4c5c"/><circle cx="32" cy="32" fill="#fff" r="10"/><g fill="#3e4347"><circle cx="31" cy="26" r="2"/><path d="m31.5 35 .5 6h.5v-6z"/><path d="m31 40.5v.5h2v-1zm3.9-3.3c-1.1-1.7-2.1-3.3-3.2-5-.3-.5-1.2 0-.9.5.9 1.4 1.8 2.8 2.7 4.3h-3.6v.5c1.7 0 2.8.5 4.5.5.5 0 .7-.4.5-.8"/><path d="m33.9 32.1c-1.1-.4-3.4-.9-1.9-5.1h-1.8s-4.4 8.7 3.8 8.7c1.8 0 2.6 1.5 2.6 3.3-.1 0 2.1-5.2-2.7-6.9m-4.4 4.4.5 2h.5v-2zm1.5-11.5-4 2h4z"/></g><path d="m35 32.6v3.3s1.6.7.9 3.1l1.1.5s1.8-4.8-2-6.9" fill="#ed4c5c"/><g fill="#94989b"><path d="m31.5 32s0 2.6 2.5 2.6c0 0 1-2.6-2.5-2.6"/><ellipse cx="30.4" cy="31.7" rx=".9" ry="1.6"/></g></svg>